<?xml version="1.0" encoding="UTF-8"?>
<svg version="1.1" xmlns="http://www.w3.org/2000/svg" width="512" height="512">
<path d="M0 0 C7.50822279 5.84673931 15.17181661 12.66340276 19 21.5 C21.68047675 26.70065921 26.17489103 28.52842826 31.19921875 30.98266602 C45.00242036 37.81518342 54.67915649 50.24370496 59.9375 64.55078125 C64.78613648 80.28553907 63.83592582 96.48410918 56.875 111.3125 C47.80116966 127.94785563 34.63727406 138.38651852 16.484375 143.7421875 C1.26170855 147.32687992 -12.97076984 144.2352134 -27 138 C-27.33 146.58 -27.66 155.16 -28 164 C-24.04 164 -20.08 164 -16 164 C-12.13831433 164.45119351 -8.38307698 164.959022 -4.5625 165.625 C-3.0165918 165.89014404 -3.0165918 165.89014404 -1.43945312 166.16064453 C8.9367775 168.02944756 18.98251174 170.73247519 29 174 C29.70527832 174.22913086 30.41055664 174.45826172 31.13720703 174.69433594 C50.12405727 181.00953739 67.41827837 190.94551891 84 202 C84.27110596 201.41210693 84.54221191 200.82421387 84.8215332 200.21850586 C85.98433388 198.02949203 87.23680326 196.37260312 88.85546875 194.50390625 C89.39494141 193.86259766 89.93441406 193.22128906 90.49023438 192.56054688 C91.62475344 191.2249738 92.76807755 189.89683216 93.91992188 188.57617188 C97.13852393 184.90460445 97.13852393 184.90460445 98.0390625 180.29296875 C96.94840048 177.8861319 95.74773799 175.88298358 94.1875 173.75 C84.37487447 159.56051991 82.75873274 142.83634884 85.6875 126.0625 C86.59699229 122.90959341 87.66634359 119.99655925 89 117 C89.4125 116.06285156 89.825 115.12570313 90.25 114.16015625 C98.16497604 98.12783263 111.53520124 88.88367448 128 83 C129.19625 82.731875 130.3925 82.46375 131.625 82.1875 C135.14668632 80.94838815 136.91724147 79.56737237 139.75 77.1875 C150.06632762 68.63968569 161.22402697 65.76520589 174.578125 66.0859375 C187.06106762 67.34542723 198.9185667 72.95549275 207.1953125 82.54296875 C216.90522262 95.84986987 219.21859765 107.82464796 218 124 C216.23824932 133.59411216 211.23160718 142.10107072 204.89453125 149.4375 C202.76692484 152.31525217 202.05694374 154.6061399 201.1875 158.0625 C196.54746492 174.08512114 186.39215745 185.91591156 172 194 C156.4794133 201.1804033 138.78541439 202.91110476 122.49609375 197.0703125 C120.2830832 196.12138466 118.1337823 195.11458746 116 194 C115.67515625 194.7734375 115.67515625 194.7734375 115.34375 195.5625 C113.06551518 199.695112 109.95057905 203.20832871 106.98828125 206.8671875 C106.50746094 207.46789062 106.02664063 208.06859375 105.53125 208.6875 C105.09361328 209.22761719 104.65597656 209.76773438 104.20507812 210.32421875 C102.90353602 212.13414277 101.94613073 213.9848074 101 216 C101.43755615 216.42708252 101.8751123 216.85416504 102.32592773 217.29418945 C110.70718136 225.50140732 118.94008437 233.60457353 126 243 C126.79535156 244.051875 127.59070313 245.10375 128.41015625 246.1875 C135.82053021 256.18302188 142.50170487 266.82812852 148 278 C148.03738281 276.74445313 148.07476562 275.48890625 148.11328125 274.1953125 C148.61580454 260.33785212 149.49644687 248.10987012 160.109375 237.98828125 C169.49547644 230.26902196 178.07846261 229.03653744 190.02197266 229.79296875 C199.62597994 230.79817712 205.80325204 236.68667571 212.25 243.3125 C218.70241683 253.22156871 218.576822 263.0738481 218.49609375 274.5 C218.49624912 276.30346739 218.49774428 278.10693511 218.50050354 279.91040039 C218.50188315 283.6827682 218.48941316 287.45475387 218.46655273 291.22705078 C218.43833365 296.00962846 218.4408667 300.79156432 218.45364285 305.57418823 C218.46067916 309.29967505 218.45271867 313.02501965 218.44038582 316.75048828 C218.43593637 318.51073659 218.43547604 320.27100055 218.43945122 322.03125 C218.45816708 337.6231479 216.70323716 352.62236154 212.25 367.625 C211.99613525 368.49543945 211.74227051 369.36587891 211.48071289 370.26269531 C202.75892896 399.16071403 202.75892896 399.16071403 194 405 C189.40728797 405.73965025 185.97537911 405.60961194 182 403.125 C178.94713203 399.88132778 178.67911102 397.64061466 178.74121094 393.18945312 C179.18173031 389.46249301 180.86904718 386.51924189 182.625 383.25 C196.46261984 355.64242593 197.18722101 326.06984312 197.18530273 295.82446289 C197.18751285 291.91476927 197.20579539 288.00534794 197.22460938 284.09570312 C197.22753989 281.59375095 197.22952697 279.09179746 197.23046875 276.58984375 C197.24124702 274.84911842 197.24124702 274.84911842 197.25224304 273.07322693 C197.37608863 262.71270418 197.37608863 262.71270418 192.25 254.125 C188.8259685 251.88621017 187.06830651 251 183 251 C178.06703686 252.6721909 174.75462821 254.27523346 171.94174194 258.64337158 C170.63337068 261.91745843 170.74801245 264.74550378 170.74462891 268.26855469 C170.74100845 268.99446304 170.737388 269.7203714 170.73365784 270.46827698 C170.72677227 272.04349259 170.72425683 273.61873201 170.72560501 275.1939621 C170.7265743 277.70240664 170.71357487 280.21042725 170.69662476 282.71881104 C170.65051475 289.85075464 170.62581389 296.98265856 170.61914062 304.11474609 C170.61406872 308.48325974 170.58952358 312.85133846 170.55381393 317.21970367 C170.5441334 318.86994032 170.54161841 320.52023777 170.54698563 322.17049408 C170.59056472 336.24782759 168.97664806 349.81327968 162.1875 362.4375 C161.88263672 363.05302734 161.57777344 363.66855469 161.26367188 364.30273438 C155.3146943 375.82962653 145.68905972 384.59266146 136.60546875 393.625 C135.20742364 395.02185111 133.80975007 396.41907418 132.41242981 397.81665039 C129.4998017 400.72772278 126.58387014 403.63542944 123.6652832 406.54052734 C119.91968298 410.26903605 116.18080259 414.00419704 112.44411755 417.74163818 C109.56632343 420.61916103 106.68593601 423.49407574 103.80465126 426.36810303 C102.42410658 427.74546253 101.04416937 429.12343119 99.66484642 430.50201416 C97.74545932 432.41924194 95.82282214 434.33314668 93.89916992 436.24609375 C93.04280693 437.10313652 93.04280693 437.10313652 92.16914368 437.97749329 C88.59975378 441.51776004 86.70694424 443.15566294 81.6875 443.375 C78.01669355 443.32771103 77.13769604 443.09753469 74 440.875 C71.73842802 437.62399027 71 435.95490344 71 432 C72.90111795 426.48720239 75.52304301 422.92127078 79.72485352 418.86865234 C80.29753967 418.30020096 80.87022583 417.73174957 81.46026611 417.14607239 C82.69658027 415.92157058 83.93752587 414.7017305 85.18261909 413.48615646 C87.15434935 411.56109663 89.11352897 409.62400717 91.0700531 407.6835022 C94.51830567 404.26743519 97.97709801 400.86227492 101.4395752 397.46063232 C106.98639189 392.0112541 112.5247915 386.55353682 118.04832268 381.08055496 C119.97746151 379.17456492 121.91579749 377.27828766 123.85487366 375.38241577 C125.03850606 374.21287813 126.22174956 373.04294672 127.40454102 371.87255859 C127.9443309 371.34983871 128.48412079 370.82711884 129.04026794 370.28855896 C133.29077475 366.05228192 134.84028321 363.01243158 135.3125 357.0625 C135.15732255 351.91254826 133.41108085 348.49408561 129.875 344.75 C124.74992008 341.63038614 120.43554487 340.41681478 114.53540039 341.82958984 C108.05944986 344.35971992 103.59749802 349.83084611 98.859375 354.72265625 C97.80547328 355.79098738 96.75029522 356.85806077 95.69390869 357.92393494 C92.92928947 360.71882525 90.17918795 363.52753916 87.43286133 366.34039307 C83.02733776 370.84865679 78.60192607 375.3373277 74.17273712 379.82232475 C72.63201577 381.38716111 71.0987719 382.95904285 69.56634521 384.53199768 C68.62223109 385.49296531 67.67792574 386.45374512 66.73339844 387.41430664 C65.91369568 388.25353165 65.09399292 389.09275665 64.24945068 389.95741272 C59.70156615 394.08706587 55.52140462 394.38581305 49.5625 394.875 C30.29132064 396.78646288 15.48541251 404.33995625 2 418 C1.25878906 418.7425 0.51757812 419.485 -0.24609375 420.25 C-16.45554776 437.43897267 -24.80352773 460.64486289 -26.36816406 483.86914062 C-27.12498827 494.90439866 -27.12498827 494.90439866 -31.125 499.375 C-34.81064018 501.45818793 -37.91435908 501.92565302 -42 501 C-44.65524357 499.60370812 -45.90959854 498.29434306 -48 496 C-49.14918047 492.13060754 -49.22394897 488.1177184 -49.49243164 484.11035156 C-51.60792308 455.12361784 -63.98966499 429.29714967 -86 410 C-99.45712313 399.91668819 -114.23717414 394.8223039 -131.02734375 394.50390625 C-136.79585495 393.52606401 -140.80491339 389.44223773 -144.77685547 385.37084961 C-145.67153534 384.45988022 -146.56621521 383.54891083 -147.48800659 382.6103363 C-147.95689175 382.12834715 -148.4257769 381.64635799 -148.9088707 381.14976311 C-150.39261754 379.62623185 -151.88407282 378.11064694 -153.37796021 376.59706116 C-157.62123414 372.29607694 -161.85449318 367.98543589 -166.07275391 363.65991211 C-168.66240294 361.0055283 -171.2643499 358.36372654 -173.87424088 355.72924995 C-174.8604658 354.72884905 -175.84201032 353.72380986 -176.81853867 352.71394157 C-182.17220756 347.18001173 -186.41308608 342.87499403 -194 341 C-198.65820303 340.94266827 -202.75261585 342.48831871 -206.4375 345.3125 C-210.58530513 349.66263708 -211.20357029 352.85682535 -211.36328125 358.83984375 C-210.35051588 364.8619862 -206.51713326 368.88766452 -202.27514648 372.97021484 C-201.70246033 373.53370132 -201.12977417 374.09718781 -200.53973389 374.67774963 C-199.30217903 375.89393396 -198.06127514 377.10671795 -196.81738091 378.31641769 C-194.84663523 380.23474547 -192.88692196 382.16373178 -190.9299469 384.09609985 C-185.36672691 389.58617196 -179.78690312 395.05913468 -174.19360352 400.51855469 C-170.76681519 403.8648148 -167.35493165 407.22569088 -163.95167732 410.59587479 C-162.6555923 411.87338867 -161.35384874 413.14518892 -160.04632378 414.41099167 C-158.21536632 416.18402675 -156.40390165 417.97504205 -154.59545898 419.77099609 C-153.78577415 420.54125374 -153.78577415 420.54125374 -152.95973206 421.32707214 C-149.05354257 425.26414578 -147.82279363 428.49693965 -147 434 C-147.93195776 438.15795678 -149.39134368 440.59422912 -153 443 C-156.12870287 443.69732431 -158.85546749 443.57900739 -162 443 C-163.73973083 441.88568115 -163.73973083 441.88568115 -165.44702148 440.30371094 C-166.13931854 439.66437622 -166.8316156 439.0250415 -167.54489136 438.36633301 C-172.96029293 433.14674994 -178.3274445 427.8822044 -183.66015625 422.578125 C-184.62897641 421.61541813 -184.62897641 421.61541813 -185.6173687 420.63326263 C-189.03244673 417.23892656 -192.44432178 413.84140697 -195.85375977 410.44140625 C-199.35074954 406.95548836 -202.85926646 403.48141552 -206.37049198 400.00984573 C-209.09260357 397.31401831 -211.80565877 394.60920927 -214.51644707 391.90200043 C-215.80510371 390.61817491 -217.09709997 389.33769156 -218.39265633 388.06082916 C-235.65540501 371.0319122 -246.25303971 351.61634841 -246.5232687 326.92851448 C-246.52692377 325.36288712 -246.52453456 323.7972352 -246.51642036 322.2316246 C-246.50353744 319.73316159 -246.51529989 317.23576286 -246.53245544 314.73733521 C-246.55885054 310.34376428 -246.56476178 305.95046535 -246.56335449 301.55682373 C-246.56110363 294.49248251 -246.57534197 287.4284725 -246.61894035 280.36426163 C-246.62872577 277.91240819 -246.62009868 275.46108864 -246.61024475 273.00924683 C-246.61638853 271.50469619 -246.62330012 270.00014842 -246.63110352 268.49560547 C-246.63014175 267.18929169 -246.62917999 265.88297791 -246.62818909 264.53707886 C-247.03275589 260.68838959 -247.98664494 258.28400538 -250 255 C-253.46497401 252.28420956 -256.60412474 251.17583501 -261 251 C-266.14622717 252.59710498 -269.14855039 254.39381216 -272 259 C-272.90884252 262.55040709 -273.1263335 265.87431232 -273.12939453 269.53027344 C-273.13254669 270.61620789 -273.13569885 271.70214233 -273.13894653 272.82098389 C-273.1369223 273.98865295 -273.13489807 275.15632202 -273.1328125 276.359375 C-273.13376923 277.57715637 -273.13472595 278.79493774 -273.13571167 280.04962158 C-273.13639218 282.63187715 -273.1345469 285.21413444 -273.13037109 287.79638672 C-273.12507645 291.69372558 -273.13029158 295.59094624 -273.13671875 299.48828125 C-273.35657363 324.01915038 -273.35657363 324.01915038 -270.375 348.3125 C-270.11614014 349.62033447 -270.11614014 349.62033447 -269.85205078 350.95458984 C-262.304959 386.83071389 -241.59076849 412.69893036 -216.15673637 437.88786316 C-214.2579473 439.76892357 -212.36301343 441.65379516 -210.4690094 443.53967285 C-205.09363216 448.89086454 -199.71230036 454.23604043 -194.3269043 459.57714844 C-191.00969874 462.86759422 -187.69736483 466.16287925 -184.38798714 469.4611969 C-183.13276845 470.71021857 -181.8756568 471.95734094 -180.61660576 473.20249939 C-178.86540303 474.93450826 -177.12042732 476.67257039 -175.37670898 478.41210938 C-174.8588382 478.92121857 -174.34096741 479.43032776 -173.80740356 479.9548645 C-170.33823027 483.43356536 -168.26351718 485.97970163 -167.625 490.875 C-168.09860624 494.82171864 -169.55670613 496.90995187 -172 500 C-175.59859144 501.79929572 -179.08661078 501.66430674 -183 501 C-184.73017883 499.90744019 -184.73017883 499.90744019 -186.4230957 498.33544922 C-187.46114853 497.37514801 -187.46114853 497.37514801 -188.52017212 496.39544678 C-189.33851532 495.60494934 -190.15685852 494.8144519 -191 494 C-191.48398129 493.53262672 -191.96796257 493.06525345 -192.46660995 492.58371735 C-196.714344 488.46840534 -200.91264747 484.30394901 -205.10546875 480.1328125 C-205.77695765 479.46539913 -206.44844654 478.79798576 -207.14028358 478.11034775 C-210.6984519 474.57294619 -214.25339679 471.03233996 -217.8059082 467.48925781 C-221.43006818 463.87610707 -225.06574965 460.27478988 -228.70424938 456.67608833 C-231.53992482 453.86687008 -234.36638054 451.04850305 -237.19063759 448.22780991 C-238.52455668 446.89868662 -239.86178015 445.57286928 -241.20268822 444.25079727 C-253.51354764 432.1021192 -264.87743798 418.93971996 -273.3125 403.75 C-273.80049072 402.88068848 -274.28848145 402.01137695 -274.79125977 401.11572266 C-288.62151914 375.76062681 -294.3117675 348.46612485 -294.3359375 319.828125 C-294.34238265 318.01120911 -294.34911221 316.19429422 -294.35610962 314.37738037 C-294.36799529 310.59547518 -294.37179893 306.81366079 -294.37060547 303.03173828 C-294.37040143 298.20808884 -294.39783039 293.38502285 -294.43214989 288.56151199 C-294.45446645 284.81922772 -294.45844175 281.07708366 -294.45738602 277.33473969 C-294.45972991 275.55668862 -294.46848432 273.77863297 -294.48405075 272.0006485 C-294.58534237 259.25144322 -293.91536161 249.35015841 -284.7109375 239.6796875 C-277.27519554 232.37975818 -269.76526519 229.6055802 -259.4375 229.5 C-252.87058519 229.58134611 -247.59840134 230.33247586 -242 234 C-241.30648437 234.42410156 -240.61296875 234.84820312 -239.8984375 235.28515625 C-232.54232724 240.23055622 -227.83296371 247.29646349 -225.5234375 255.828125 C-224.31639422 263.14244697 -224.22028397 270.60149697 -224 278 C-223.41734375 276.89785156 -222.8346875 275.79570312 -222.234375 274.66015625 C-210.23305169 252.30738099 -195.149174 233.6222625 -177 216 C-179.85348578 210.89478395 -183.4785511 206.52228698 -187.1484375 201.99609375 C-189.26623464 199.34884733 -190.9187457 197.24376291 -192 194 C-192.88042969 194.34933594 -193.76085937 194.69867188 -194.66796875 195.05859375 C-195.82941406 195.51363281 -196.99085938 195.96867188 -198.1875 196.4375 C-199.33605469 196.88996094 -200.48460937 197.34242188 -201.66796875 197.80859375 C-214.79702591 202.50303974 -231.25774432 201.3223181 -244 196 C-260.52620863 187.95591773 -270.92181448 176.06729997 -277.03515625 158.859375 C-277.35355469 157.91578125 -277.67195313 156.9721875 -278 156 C-279.72406372 151.23830021 -281.90493815 147.69921005 -284.9375 143.6875 C-293.87756558 131.7564566 -295.11417053 119.48118107 -294 105 C-292.04199636 94.68411796 -286.76400367 86.00653989 -279 79 C-278.52304687 78.51917969 -278.04609375 78.03835937 -277.5546875 77.54296875 C-268.46341528 68.86892883 -255.6181111 65.79786946 -243.3359375 66.0859375 C-231.84586698 67.15644096 -222.27872176 71.21513771 -213.4375 78.6875 C-209.08426321 82.32192775 -204.6732723 83.49499266 -199.26953125 84.9921875 C-185.7031185 89.17394914 -175.09988412 98.90121788 -168 111 C-160.2584395 125.74190775 -157.96320588 143.13131447 -162.6875 159.3125 C-165.04740348 165.69174439 -167.91639841 171.58740868 -172.375 176.75 C-174.27598766 178.86426337 -174.27598766 178.86426337 -173.78540039 181.39575195 C-172.93851309 184.20387965 -171.95266153 185.70082025 -170.05859375 187.91796875 C-169.47529297 188.61470703 -168.89199219 189.31144531 -168.29101562 190.02929688 C-167.67935547 190.74150391 -167.06769531 191.45371094 -166.4375 192.1875 C-165.22363502 193.61490353 -164.01377663 195.04572722 -162.80859375 196.48046875 C-162.27032959 197.10848389 -161.73206543 197.73649902 -161.17749023 198.38354492 C-160 200 -160 200 -160 202 C-158.94167969 201.28457031 -157.88335937 200.56914062 -156.79296875 199.83203125 C-124.44014439 178.43174009 -87.1295894 164 -48 164 C-48.33 155.42 -48.66 146.84 -49 138 C-54.94 140.475 -54.94 140.475 -61 143 C-77.59948881 147.00677316 -94.6556675 145.6035504 -109.484375 136.6796875 C-124.27082354 126.80674826 -134.27205364 113.85621539 -137.875 96.25 C-140.12834751 83.67390498 -138.56208348 71.8956716 -134 60 C-133.67386719 59.13890625 -133.34773437 58.2778125 -133.01171875 57.390625 C-127.3777314 44.52464661 -115.60192258 34.14464597 -102.8125 28.8125 C-97.35646221 26.22405416 -95.69128439 22.45822078 -92.94921875 17.26171875 C-84.55329823 3.21243291 -69.40175918 -5.56729858 -54 -10 C-35.12998303 -14.2430088 -16.0785172 -10.49856907 0 0 Z M-72.37109375 25.01171875 C-76.15683413 29.63268243 -79.15075444 34.8162257 -81.3125 40.375 C-83.90444537 44.40691503 -87.6372627 45.33902322 -92 47 C-102.62362023 51.30297796 -110.19736985 58.5463447 -114.87890625 69.0234375 C-118.9871007 79.93090847 -118.82984971 90.08156738 -114.08984375 100.79296875 C-108.66834711 111.77198525 -100.32281429 118.62754256 -88.9375 122.74609375 C-78.83070565 125.70070097 -69.66137271 123.71278559 -60 120 C-59.01 119.34 -58.02 118.68 -57 118 C-58.53271547 114.34968275 -60.72153877 112.06060249 -63.53515625 109.3046875 C-64.42654297 108.42425781 -65.31792969 107.54382813 -66.23632812 106.63671875 C-67.16896484 105.72535156 -68.10160156 104.81398438 -69.0625 103.875 C-70.90972167 102.06210385 -72.75488421 100.24710642 -74.59765625 98.4296875 C-75.82754272 97.22675049 -75.82754272 97.22675049 -77.08227539 95.99951172 C-80.38962739 92.55110779 -80.33002062 89.80456563 -80.29296875 85.1953125 C-80 83 -80 83 -78.125 80.5 C-74.54600342 77.97364947 -72.40355896 77.57658087 -68 78 C-62.97697443 80.88947603 -59.18965123 84.59725471 -55.1875 88.75 C-53.14360046 90.85474329 -51.08526869 92.93561383 -49 95 C-48.67 95 -48.34 95 -48 95 C-47.99635437 94.42006287 -47.99270874 93.84012573 -47.98895264 93.24261475 C-47.94714932 87.20772191 -47.87781941 81.17359115 -47.79248047 75.13916016 C-47.76425089 72.88695904 -47.7430463 70.63465848 -47.72900391 68.38232422 C-47.7076024 65.14498917 -47.66096505 61.90885226 -47.609375 58.671875 C-47.60814636 57.66445251 -47.60691772 56.65703003 -47.60565186 55.61907959 C-47.4596953 48.65625128 -47.4596953 48.65625128 -45.17285156 45.39160156 C-42.04814105 43.39038247 -39.69821755 43.06376237 -36 43 C-30.4137931 45.17241379 -30.4137931 45.17241379 -29 48 C-28.84308093 50.76931368 -28.74156866 53.51734107 -28.68359375 56.2890625 C-28.6524221 57.51669815 -28.6524221 57.51669815 -28.62062073 58.76913452 C-28.55515188 61.38766966 -28.49625274 64.00630639 -28.4375 66.625 C-28.39431224 68.39844807 -28.35069786 70.17188581 -28.30664062 71.9453125 C-28.19947324 76.29677046 -28.09819831 80.64833077 -28 85 C-27.44570313 84.57847656 -26.89140625 84.15695313 -26.3203125 83.72265625 C-25.59585938 83.17480469 -24.87140625 82.62695312 -24.125 82.0625 C-23.40570313 81.51722656 -22.68640625 80.97195312 -21.9453125 80.41015625 C-18.48353038 77.90071178 -16.27680199 77.66456455 -12 78 C-7.36764706 80.26470588 -7.36764706 80.26470588 -6 83 C-5.28968924 86.89056574 -5.09861139 90.45961331 -7.140625 93.94921875 C-8.99248466 96.09324074 -10.95577901 98.03714104 -13 100 C-14.04807806 101.05350325 -15.09346363 102.10968926 -16.13671875 103.16796875 C-19.06914648 106.13472692 -22.02849291 109.07240681 -25 112 C-20.1356908 118.66053347 -13.07397336 122.06375897 -5.04296875 123.71484375 C5.23618527 125.14960139 15.81977529 123.37180004 24.375 117.1875 C25.60448837 116.14955297 26.8135712 115.08690497 28 114 C28.61488281 113.47535156 29.22976563 112.95070313 29.86328125 112.41015625 C37.60275358 105.36673925 41.17338422 96.32544622 42 86 C42.26417107 75.18452574 38.72469879 65.75433416 31.6875 57.5625 C25.30489893 50.99062905 19.13758918 47.75861333 10.41796875 45.08984375 C6.06282452 43.12686275 4.71918213 39.56880677 2.875 35.375 C-2.68916975 24.0800686 -11.93078606 16.15193732 -23.5625 11.625 C-41.58773431 6.1600245 -59.47918608 11.52157871 -72.37109375 25.01171875 Z M-266.89453125 96.5546875 C-272.53706537 103.10798315 -273.69445124 109.28019962 -273.375 117.85546875 C-272.40661457 125.97578407 -268.84077426 130.7481465 -262.8046875 136.078125 C-259.416059 139.68679431 -258.705829 144.02695262 -257.6875 148.75 C-254.95510768 159.74686958 -249.14562012 168.59947148 -239.3359375 174.640625 C-229.90157342 179.48304196 -219.32757199 180.80385382 -208.9375 178.24609375 C-198.06988423 174.02163945 -189.46575173 166.33162637 -183.953125 156.046875 C-180.43795296 147.35843091 -180.67543825 135.96273987 -183.5 127.125 C-187.91113232 116.88871386 -195.13352037 110.00432396 -205 105 C-208.68896404 103.61126968 -212.17100932 102.74871339 -216.0625 102.1875 C-220.84220635 101.26859967 -222.77863347 99.73000335 -226 96 C-239.24842885 84.90512235 -254.03941437 83.84263234 -266.89453125 96.5546875 Z M151 95 C149.64843325 96.65191491 148.31037934 98.31522656 147 100 C143.88705222 101.73958847 140.78363991 102.21496418 137.3125 102.8125 C127.57321984 104.68209396 119.00700775 109.59462833 113.0859375 117.58203125 C106.4212875 127.6064328 104.82933296 137.11069354 106 149 C108.07910971 159.09675435 113.67465929 166.78841171 121.875 172.875 C131.52396447 179.10060432 140.71789294 180.0318309 152 179 C162.40073283 176.39647894 171.59655072 169.63922121 177.515625 160.71484375 C180.05159222 156.01719363 181.36430014 151.61006213 182.375 146.375 C183.71004834 139.89047951 186.29232913 136.49270873 191 132 C196.59418201 125.64984745 197.5370957 119.61359021 197.3671875 111.31640625 C196.43492242 102.89626741 191.9468574 96.94432787 185.546875 91.62890625 C173.87933364 84.16669038 161.2403662 86.58014335 151 95 Z M-125 206 C-126.1976859 206.64365875 -127.39560163 207.28689003 -128.59375 207.9296875 C-143.40973067 216.00983533 -156.1150596 226.03150993 -168 238 C-167.05640625 238.03738281 -166.1128125 238.07476562 -165.140625 238.11328125 C-150.20081224 238.87827166 -135.95136764 241.266277 -125.125 252.6875 C-117.00387311 262.93322488 -112.7788018 274.96752542 -114 288 C-116.29451059 301.53402733 -121.60412712 311.85010466 -132.4375 320.25 C-139.93111316 326.26102752 -145.28842029 334.40614533 -147 344 C-147.1244751 344.63228516 -147.2489502 345.26457031 -147.37719727 345.91601562 C-147.8046246 349.79409508 -147.49962305 352.1895469 -145.42675781 355.55200195 C-143.14539493 358.32800817 -140.74922856 360.85524393 -138.1875 363.375 C-137.28475342 364.27041504 -136.38200684 365.16583008 -135.4519043 366.08837891 C-127.31181042 373.63513841 -121.0428014 375.26388583 -110.28613281 375.77880859 C-94.16633363 377.33845597 -78.0932866 387.99204637 -67 399 C-66.154375 399.804375 -65.30875 400.60875 -64.4375 401.4375 C-63.633125 402.283125 -62.82875 403.12875 -62 404 C-61.36964844 404.62390625 -60.73929687 405.2478125 -60.08984375 405.890625 C-51.0305531 415.28544493 -43.84408124 426.88979691 -39 439 C-38.34 439 -37.68 439 -37 439 C-36.27296875 437.45892578 -36.27296875 437.45892578 -35.53125 435.88671875 C-28.3468606 420.92391935 -19.08200228 408.46241242 -7 397 C-6.47664062 396.48179687 -5.95328125 395.96359375 -5.4140625 395.4296875 C5.41626344 385.23912765 21.70262952 376.70336472 36.7421875 375.52734375 C49.67893434 374.4920895 55.58394375 370.12597532 64.16796875 360.39453125 C65.11816105 359.2682071 66.06471605 358.13873413 67 357 C65.10204996 352.67010619 62.20901871 350.83784302 58.3125 348.375 C57.64839111 347.9426001 56.98428223 347.5102002 56.30004883 347.06469727 C54.20549779 345.70113048 52.10373983 344.34933892 50 343 C30.35896154 330.38723222 14.81238932 316.54414744 9.46875 292.625 C6.59467624 270.39882958 10.45969913 249.98989113 24.25 232.0625 C31.84893709 223.39658886 40.73925692 217.67820706 51.28515625 213.19140625 C54.13913033 212.03260752 54.13913033 212.03260752 57 210 C1.22471869 178.22499125 -68.13887221 174.42776548 -125 206 Z M70.125 228.53125 C55.99608142 231.55887541 44.72192325 238.88037398 36.3125 250.75390625 C29.16993918 262.97703861 27.16548613 275.75545566 29.6484375 289.62109375 C34.71227777 307.64749949 46.58980853 316.70161662 61.68359375 326.24609375 C68.98154714 330.86840149 76.12204468 335.77210047 83 341 C83.89460938 340.04738281 84.78921875 339.09476562 85.7109375 338.11328125 C94.5580158 328.87114551 102.61283593 321.02583302 116.10693359 320.70849609 C126.33239495 320.61878076 133.84534267 322.3599682 143 327 C136.65370881 296.71912487 121.17314032 268.41133566 100 246 C98.87037767 244.67058052 97.74520688 243.33736282 96.625 242 C89.28912941 233.09240165 89.28912941 233.09240165 79.71484375 227.26171875 C76.39197854 227.14713719 73.37949162 227.92987655 70.125 228.53125 Z M-192.20922852 262.84033203 C-193.72588241 265.34994417 -194.9169799 267.89468377 -195.99658203 270.62011719 C-197.13955674 273.33099734 -198.51591345 275.82268946 -199.96484375 278.3828125 C-208.57523859 293.74048073 -215.37815314 309.71861642 -219 327 C-218.24074219 326.65066406 -217.48148437 326.30132812 -216.69921875 325.94140625 C-215.70535156 325.48636719 -214.71148437 325.03132813 -213.6875 324.5625 C-212.70136719 324.11003906 -211.71523437 323.65757812 -210.69921875 323.19140625 C-202.07069771 319.38286947 -189.9204528 319.59938793 -180.9375 322.5 C-176.0846428 324.5669577 -172.50008562 327.70154264 -168.77734375 331.390625 C-167.1525307 333.22373729 -167.1525307 333.22373729 -165 333 C-164.74347656 332.27296875 -164.48695313 331.5459375 -164.22265625 330.796875 C-159.55029763 318.52603417 -152.30758508 309.58208271 -142.4296875 301.18359375 C-137.36747067 296.79715829 -134.7911272 292.41743798 -134.0625 285.75 C-133.57228929 278.5537068 -136.05283054 273.24528244 -139.6875 267.1875 C-150.03652972 257.39787729 -163.85715495 257.850663 -177.25732422 258.04978943 C-185.61210029 258.22774559 -185.61210029 258.22774559 -192.20922852 262.84033203 Z " fill="#000000" transform="translate(294,11)"/>
<path d="M0 0 C8.49550519 7.83581634 14.43570196 17.35322946 15.30078125 29.15234375 C15.67390048 48.00468385 6.61458172 66.7372188 -5.6875 80.96484375 C-13.86013974 89.09346568 -22.88676701 92.96516178 -34.4375 93.27734375 C-46.08561465 92.94961251 -56.64090156 88.78029838 -64.75 80.21484375 C-72.7548128 70.39333584 -74.16309165 60.25978047 -74.23266602 48.07006836 C-74.24409019 46.68259404 -74.26438727 45.29516025 -74.29418945 43.90795898 C-74.62197227 28.61570031 -71.45789645 15.1670871 -60.8359375 3.6171875 C-44.12560735 -12.17791256 -18.10181475 -15.28956853 0 0 Z M-43.75 16.52734375 C-51.98487061 25.46806041 -53.14943202 33.47304884 -53.25 45.15234375 C-53.27900391 46.25964844 -53.30800781 47.36695313 -53.33789062 48.5078125 C-53.38955482 55.19236496 -52.9385608 60.38748775 -48.9375 65.90234375 C-47.24440186 67.75747189 -47.24440186 67.75747189 -45.375 68.83984375 C-44.50681641 69.41025391 -44.50681641 69.41025391 -43.62109375 69.9921875 C-38.93719597 72.52431785 -33.89077776 72.76900657 -28.84765625 71.2890625 C-18.29835526 66.69272599 -12.78920712 53.75534145 -7.9375 43.90234375 C-5.30143478 37.0634953 -4.79217471 31.11805499 -7.5 24.21484375 C-10.64205638 17.91974479 -15.0366998 14.36792408 -21.625 12.02734375 C-29.58116675 9.56842188 -36.78603256 12.50371812 -43.75 16.52734375 Z " fill="#000000" transform="translate(271.9375,299.09765625)"/>
<path d="M0 0 C3.25908021 2.84124941 3.91758009 4.54294411 4.6875 8.8125 C4.13943558 17.77593845 -8.01064321 26.16381522 -14.09936523 32.22973633 C-15.82980137 33.95474713 -17.5547449 35.68512428 -19.27929688 37.41601562 C-20.37988729 38.51594633 -21.48078728 39.61556738 -22.58203125 40.71484375 C-23.09659378 41.23143051 -23.61115631 41.74801727 -24.14131165 42.28025818 C-27.58984451 45.706039 -29.4610867 47.16300547 -34.3125 47.375 C-38.14506165 47.35031361 -38.82418398 47.13918768 -42 44.625 C-44.90664016 40.81003479 -45.4628138 38.81326348 -45 34 C-42.16636885 29.13967141 -38.63382932 25.31318986 -34.6953125 21.359375 C-34.09371307 20.75111877 -33.49211365 20.14286255 -32.87228394 19.51617432 C-31.60579787 18.23961544 -30.33663527 16.96570695 -29.06494141 15.69433594 C-27.12721834 13.75222336 -25.20607442 11.79465549 -23.28515625 9.8359375 C-22.04785684 8.59277202 -20.80960711 7.3505515 -19.5703125 6.109375 C-19.00136261 5.52605408 -18.43241272 4.94273315 -17.84622192 4.34173584 C-12.28038537 -1.16151488 -7.62690269 -3.24849559 0 0 Z " fill="#000000" transform="translate(431,465)"/>
<path d="M0 0 C2.75569447 2.18159145 4.43588747 3.87177494 6 7 C6.12370115 11.57694247 5.87838473 14.99613174 2.8125 18.5 C-0.34418084 20.18356312 -2.41534813 20.92684384 -6 21 C-10.06609855 19.48517897 -13.06832937 17.9706563 -15 14 C-15.53198011 9.212179 -15.72509014 7.13597455 -13.125 3.0625 C-9.24699241 -0.70144855 -5.21240222 -0.82822281 0 0 Z " fill="#000000" transform="translate(461,432)"/>
</svg>
