<?xml version="1.0" encoding="UTF-8"?>
<svg version="1.1" xmlns="http://www.w3.org/2000/svg" width="512" height="512">
<path d="M0 0 C6.53856779 5.78784334 10.56622021 12.88386327 11.35546875 21.578125 C11.75052611 30.89190158 9.83759864 38.89568419 3.921875 46.2421875 C-2.47914742 52.93105033 -10.94547853 56.79057451 -20.203125 57.1796875 C-29.35323461 56.94546968 -36.63171563 53.60671768 -43.453125 47.6171875 C-49.68533839 40.58597239 -52.80508814 33.82774981 -52.921875 24.32421875 C-52.30407286 14.36215917 -48.14601631 6.63494559 -40.890625 -0.1328125 C-28.40096434 -9.99438825 -12.73270171 -9.07543632 0 0 Z " fill="#000000" transform="translate(312.890625,293.1328125)"/>
<path d="M0 0 C8.29763037 6.85456422 13.1056618 13.49613348 14.75 24.125 C15.37652263 32.78967472 13.15779932 40.96042846 7.54296875 47.62890625 C0.35270677 55.15594866 -6.70565133 59.19775391 -17.3125 59.625 C-26.87611708 59.45053932 -34.34256072 56.0925976 -41.125 49.375 C-48.20961893 40.78850254 -50.01558809 32.36370783 -49.125 21.375 C-47.70703312 13.26680755 -43.25139344 6.52019891 -36.7265625 1.546875 C-24.74493314 -6.04763469 -12.57861667 -6.54088067 0 0 Z " fill="#000000" transform="translate(237.125,290.625)"/>
<path d="M0 0 C6.51851837 5.30502154 10.95194229 11.96616645 12.55859375 20.3046875 C13.37169624 30.2339198 11.72262499 38.3277059 5.55859375 46.3046875 C-0.28183957 52.75990327 -6.36842193 56.74222442 -15.10546875 57.7109375 C-25.54271806 57.95797299 -33.39044491 56.54299704 -41.59375 49.44140625 C-48.3089243 42.35711032 -51.54644332 34.04312467 -51.44140625 24.3046875 C-50.8099664 15.69292269 -47.48863123 8.35191248 -41.36328125 2.2265625 C-29.27048443 -7.83667401 -13.09627713 -9.09405484 0 0 Z " fill="#000000" transform="translate(311.44140625,166.6953125)"/>
<path d="M0 0 C7.98414319 4.11705358 13.66798935 9.74584103 17.12109375 18.09375 C19.85434963 27.9820624 19.57290337 36.58108693 14.99609375 45.78125 C11.00355189 52.38879004 5.06052974 57.55033036 -2.12890625 60.43359375 C-10.56561934 62.45888425 -20.34907988 62.44478382 -28.0625 58.21484375 C-28.66191406 57.84488281 -29.26132813 57.47492188 -29.87890625 57.09375 C-30.93078125 56.536875 -31.98265625 55.98 -33.06640625 55.40625 C-40.06233202 49.65404436 -44.11943441 41.39455339 -45.1953125 32.46875 C-45.60220461 23.22836152 -43.12317557 15.39494163 -37.25390625 8.21875 C-27.72502101 -1.75708108 -12.92585297 -5.12290687 0 0 Z " fill="#000000" transform="translate(232.87890625,162.90625)"/>
<path d="M0 0 C6.36071254 4.98505523 10.57608674 11.71845545 12.01171875 19.6796875 C12.91763957 30.2998669 11.59087039 38.61592828 4.76171875 46.9921875 C-0.91884615 53.01334301 -7.74320434 57.17294858 -16.1015625 57.98046875 C-26.8152838 58.01971315 -35.11422174 56.33824644 -42.98828125 48.6796875 C-50.55697695 39.31531455 -51.96453359 30.58007993 -50.98828125 18.6796875 C-49.17044459 10.54840615 -44.57594281 3.79495768 -37.67578125 -0.890625 C-25.9156394 -7.6604435 -11.40499203 -7.57345247 0 0 Z " fill="#000000" transform="translate(347.98828125,229.3203125)"/>
<path d="M0 0 C5.87166118 4.6929634 10.44153388 10.9729778 11.7890625 18.4921875 C12.4107255 27.24642553 12.52383161 34.84491239 7.7890625 42.4921875 C7.4384375 43.11480469 7.0878125 43.73742187 6.7265625 44.37890625 C2.88975684 50.52045975 -2.89209216 54.08806063 -9.4609375 56.8671875 C-20.06051145 58.63378316 -29.43608386 58.20357339 -38.4296875 51.94921875 C-44.90502963 46.66988198 -48.94730346 40.52958413 -51.2109375 32.4921875 C-52.30532177 21.1645997 -50.58195918 12.4058383 -43.3125 3.57421875 C-31.67608652 -7.95404962 -13.4243081 -9.15509351 0 0 Z " fill="#000000" transform="translate(203.2109375,229.5078125)"/>
<path d="M0 0 C5.25542859 4.59414949 7.66741658 9.40809903 8.3125 16.375 C7.77540215 22.60533506 6.36987924 27.12631728 1.625 31.375 C-3.32187841 35.16760678 -7.43294098 36.47828277 -13.66015625 36.3125 C-19.04269589 35.59362993 -23.29990474 33.10800253 -26.875 29.0625 C-30.7682754 23.4516031 -31.90448789 18.7723531 -31 12 C-29.14220463 6.09938856 -26.06344484 2.44314249 -21 -1 C-13.92195443 -4.162531 -6.70310455 -3.86142331 0 0 Z " fill="#000000" transform="translate(376,302)"/>
<path d="M0 0 C4.33513746 3.87578515 7.52701321 8.16437278 8.25 14.02734375 C8.56858852 19.85154017 7.38441975 24.23057155 4 29 C-0.36709228 33.71406673 -4.93904539 36.03668306 -11.3125 36.375 C-16.93978218 36.22518883 -21.35925645 34.38605255 -25.5390625 30.609375 C-29.38295077 26.33838804 -30.79125945 22.25439792 -31.3125 16.625 C-30.77864981 10.43233782 -29.37136455 5.88400073 -24.6875 1.625 C-17.21985163 -4.13620461 -8.18089804 -4.7293224 0 0 Z " fill="#000000" transform="translate(159,302)"/>
<path d="M0 0 C4.29816086 3.05000498 7.47270301 7.12376235 8.7890625 12.26953125 C9.60506716 18.79756855 8.61189866 23.86564557 4.7890625 29.26953125 C0.47128171 34.04819876 -4.24588141 35.99498902 -10.5859375 36.58203125 C-16.77859968 36.04818106 -21.32693677 34.6408958 -25.5859375 29.95703125 C-29.62090965 24.72691789 -30.77854631 19.85379345 -30.2109375 13.26953125 C-28.8096714 6.70905815 -25.70556316 2.99802724 -20.2109375 -0.73046875 C-13.75912903 -4.46572628 -6.29918222 -3.55113261 0 0 Z " fill="#000000" transform="translate(158.2109375,176.73046875)"/>
<path d="M0 0 C4.74668347 3.35791582 7.50832244 7.56051019 8.7890625 13.265625 C9.39479422 19.92867394 7.6517706 24.53365311 3.9140625 30.015625 C-0.35381612 34.53455531 -4.41412188 36.05048534 -10.4609375 36.515625 C-16.75793757 36.095825 -21.30225074 34.67459635 -25.5859375 29.890625 C-29.37854428 24.94374659 -30.68922027 20.83268402 -30.5234375 14.60546875 C-29.80456743 9.22292911 -27.31894003 4.96572026 -23.2734375 1.390625 C-15.77060739 -3.81542039 -8.07479614 -4.56821136 0 0 Z " fill="#000000" transform="translate(375.2109375,176.734375)"/>
<path d="M0 0 C3.70050402 3.37443502 5.22041255 6.55380629 5.87109375 11.51953125 C6.02762043 18.54481716 5.37566234 23.41822951 0.5 28.6875 C-5.640942 33.47743476 -10.88379596 34.4998951 -18.5 33.6875 C-24.70227441 31.74334584 -28.23249496 28.43665997 -31.58203125 22.8984375 C-33.81853195 17.51180178 -33.15255162 10.76031104 -31.4375 5.3125 C-27.56572926 0.06687512 -23.243572 -3.97531075 -16.66796875 -5.18359375 C-10.13528285 -5.57202372 -5.05768028 -4.19640864 0 0 Z " fill="#000000" transform="translate(269.5,116.3125)"/>
<path d="M0 0 C4.66360382 2.66088686 7.57749 6.38105037 9.625 11.3125 C10.30969154 17.69702627 10.56119072 23.97959645 6.625 29.3125 C2.47052934 34.09014125 -1.62059436 36.28189329 -7.89453125 37.18359375 C-15.1688327 37.56162831 -19.34777359 35.01591783 -24.7109375 30.26171875 C-28.78405593 25.49062463 -28.86519217 20.35591553 -28.75390625 14.32421875 C-27.97971267 8.17057697 -25.03263139 4.60545248 -20.25 0.875 C-13.844986 -2.60598587 -6.68875951 -3.11221831 0 0 Z " fill="#000000" transform="translate(265.375,363.6875)"/>
<path d="M0 0 C4.75982924 2.62772498 7.04616381 6.26349144 8.75 11.375 C9.28242085 17.657566 8.50601912 22.19468006 4.75 27.375 C-0.01446874 31.16712818 -3.92268121 32.75404396 -10.05859375 32.65234375 C-15.53529068 31.95921455 -19.29272 29.5777364 -22.6875 25.3125 C-25.16159325 20.66120468 -25.91009174 16.59065448 -25.25 11.375 C-23.40337674 5.5396705 -20.73425857 2.29215881 -15.25 -0.625 C-9.85269529 -2.42410157 -5.14951716 -2.31968904 0 0 Z " fill="#000000" transform="translate(104.25,240.625)"/>
<path d="M0 0 C4.75982924 2.62772498 7.04616381 6.26349144 8.75 11.375 C9.11823488 16.99058189 8.98891406 20.56886946 5.75 25.375 C1.46032684 29.70523744 -1.6871041 32.15780543 -7.9375 32.6875 C-12.6987546 32.60858418 -16.40436044 31.16330186 -20.25 28.375 C-24.04212818 23.61053126 -25.62904396 19.70231879 -25.52734375 13.56640625 C-24.83421455 8.08970932 -22.4527364 4.33228 -18.1875 0.9375 C-12.08602658 -2.30796459 -6.30792052 -2.84151186 0 0 Z " fill="#000000" transform="translate(424.25,240.625)"/>
<path d="M0 0 C4.94586526 2.29629459 7.30760518 5.31323865 10 10 C11.70108067 15.10324201 11.56521247 19.31873434 9.3125 24.1875 C7.05618336 28.33077184 4.23077385 30.88461307 0 33 C-5.55531248 33.5072965 -10.41830236 33.76260422 -15.5 31.3125 C-19.44686025 27.66165427 -22.58509237 24.50971045 -23.23828125 18.984375 C-23.43531989 13.05247496 -22.50053966 9.82506818 -19 5 C-12.92475275 -0.49665228 -8.03268209 -0.74649271 0 0 Z " fill="#000000" transform="translate(342,378)"/>
<path d="M0 0 C4.47870656 2.15937638 7.18198188 4.92952939 10 9 C11.72237197 14.1671159 11.65561622 19.10599758 9.875 24.25 C7.26306126 28.08084349 4.19676371 30.90161815 0 33 C-5.53042052 33.50502343 -10.41030524 33.73807257 -15.5 31.375 C-19.96179187 27.13629773 -22.70660033 22.99267659 -23.3125 16.8125 C-22.82295107 10.84000302 -20.76610895 6.63995831 -16.375 2.5625 C-11.16555332 -0.86476755 -6.11829016 -0.57659279 0 0 Z " fill="#000000" transform="translate(182,378)"/>
<path d="M0 0 C4.94586526 2.29629459 7.30760518 5.31323865 10 10 C11.70108067 15.10324201 11.56521247 19.31873434 9.3125 24.1875 C7.05618336 28.33077184 4.23077385 30.88461307 0 33 C-5.55531248 33.5072965 -10.41830236 33.76260422 -15.5 31.3125 C-19.4391696 27.66876812 -22.65383134 24.49497201 -23.203125 18.94921875 C-23.30878583 13.85108367 -22.96124966 10.34316617 -20 6 C-13.70683928 -0.19247015 -8.63638136 -0.80259565 0 0 Z " fill="#000000" transform="translate(342,101)"/>
<path d="M0 0 C4.47870656 2.15937638 7.18198188 4.92952939 10 9 C11.5302087 13.59062609 11.9413765 18.37540138 10.28125 23.00390625 C7.83000444 27.58022356 4.61895495 30.69052253 0 33 C-5.53042052 33.50502343 -10.41030524 33.73807257 -15.5 31.375 C-19.96179187 27.13629773 -22.70660033 22.99267659 -23.3125 16.8125 C-22.82295107 10.84000302 -20.76610895 6.63995831 -16.375 2.5625 C-11.16555332 -0.86476755 -6.11829016 -0.57659279 0 0 Z " fill="#000000" transform="translate(182,101)"/>
<path d="M0 0 C3.67206831 3.67206831 5.17856182 6.56366261 5.4375 11.6875 C5.40829627 16.72514356 4.0248554 19.134411 0.60546875 22.72265625 C-3.05997886 25.63896129 -7.53658728 25.48134843 -12 25 C-16.11639609 23.22246532 -18.76553623 20.88962212 -21 17 C-21.84586159 11.89065422 -21.57987883 8.11976601 -19.1875 3.5 C-13.67795286 -2.7966253 -7.45106555 -2.86900842 0 0 Z " fill="#000000" transform="translate(264,444)"/>
<path d="M0 0 C4.12515131 2.06257565 6.30526469 3.74399052 8 8 C8.56811094 12.53750945 8.53359148 16.68006319 6.8125 20.9375 C4.02985749 24.10395527 1.91625765 25.76954397 -2.37109375 26.28515625 C-7.32658844 26.45451194 -11.12011628 26.40959478 -15 23 C-18.37622501 19.15808878 -18.50941037 15.36020742 -18.35546875 10.44140625 C-17.82863459 6.82303974 -16.42077514 4.68975015 -14 2 C-9.559999 -0.73957509 -5.06666568 -0.65531007 0 0 Z " fill="#000000" transform="translate(434,343)"/>
<path d="M0 0 C4.12515131 2.06257565 6.30526469 3.74399052 8 8 C8.56811094 12.53750945 8.53359148 16.68006319 6.8125 20.9375 C4.02985749 24.10395527 1.91625765 25.76954397 -2.37109375 26.28515625 C-7.32658844 26.45451194 -11.12011628 26.40959478 -15 23 C-18.37622501 19.15808878 -18.50941037 15.36020742 -18.35546875 10.44140625 C-17.82863459 6.82303974 -16.42077514 4.68975015 -14 2 C-9.559999 -0.73957509 -5.06666568 -0.65531007 0 0 Z " fill="#000000" transform="translate(88,343)"/>
<path d="M0 0 C3.15645345 2.77385304 4.79912383 4.8917811 5.3828125 9.1484375 C5.63992228 14.85627462 5.02258578 18.41240469 1.0625 22.8125 C-3.377501 25.55207509 -7.87083432 25.46781007 -12.9375 24.8125 C-17.06265131 22.74992435 -19.24276469 21.06850948 -20.9375 16.8125 C-21.50561094 12.27499055 -21.47109148 8.13243681 -19.75 3.875 C-14.48090281 -2.12086922 -7.29881709 -2.95058563 0 0 Z " fill="#000000" transform="translate(436.9375,144.1875)"/>
<path d="M0 0 C3.15645345 2.77385304 4.79912383 4.8917811 5.3828125 9.1484375 C5.63992228 14.85627462 5.02258578 18.41240469 1.0625 22.8125 C-3.377501 25.55207509 -7.87083432 25.46781007 -12.9375 24.8125 C-17.06265131 22.74992435 -19.24276469 21.06850948 -20.9375 16.8125 C-21.50561094 12.27499055 -21.47109148 8.13243681 -19.75 3.875 C-14.48090281 -2.12086922 -7.29881709 -2.95058563 0 0 Z " fill="#000000" transform="translate(90.9375,144.1875)"/>
<path d="M0 0 C5.91039556 4.76115198 5.91039556 4.76115198 6.63671875 9.1484375 C6.88546062 14.86092322 6.13198644 18.37594407 2.25 22.8125 C-1.29405288 25.17520192 -3.52169086 25.52583497 -7.75 25.8125 C-12.81219929 24.80006014 -15.38050521 22.66335118 -18.75 18.8125 C-20.62968188 15.05313624 -20.40815796 10.89551699 -19.75 6.8125 C-15.46997145 -0.74527192 -8.15113491 -3.51980826 0 0 Z " fill="#000000" transform="translate(262.75,44.1875)"/>
<path d="M0 0 C2.66682618 2.18194869 3.54648615 3.14470719 4.75 6.25 C5.17868509 11.24239508 4.41577728 14.45431495 1.1875 18.3125 C-2.91706584 20.62598256 -5.6570603 21.35486223 -10.25 20.25 C-13.66184222 18.32696166 -15.67958014 16.90940323 -16.98046875 13.125 C-17.70195203 8.89610792 -17.4844143 6.72751062 -15.5625 2.8125 C-10.92492878 -2.32643028 -6.28235832 -3.38280833 0 0 Z " fill="#000000" transform="translate(371.25,57.75)"/>
<path d="M0 0 C2.66682618 2.18194869 3.54648615 3.14470719 4.75 6.25 C5.17868509 11.24239508 4.41577728 14.45431495 1.1875 18.3125 C-2.91706584 20.62598256 -5.6570603 21.35486223 -10.25 20.25 C-13.66184222 18.32696166 -15.67958014 16.90940323 -16.98046875 13.125 C-17.70195203 8.89610792 -17.4844143 6.72751062 -15.5625 2.8125 C-10.92492878 -2.32643028 -6.28235832 -3.38280833 0 0 Z " fill="#000000" transform="translate(153.25,57.75)"/>
<path d="M0 0 C3.41184222 1.92303834 5.42958014 3.34059677 6.73046875 7.125 C7.45195203 11.35389208 7.2344143 13.52248938 5.3125 17.4375 C1.83464567 21.29133858 1.83464567 21.29133858 -1 22 C-6.03829462 21.92002707 -8.02815058 21.80642825 -11.9375 18.5625 C-14.58717837 15.27047536 -15.20892698 13.82850133 -14.9375 9.6875 C-14.45114007 5.91821055 -14.00784707 5.0093782 -11.4375 1.9375 C-7.33293416 -0.37598256 -4.5929397 -1.10486223 0 0 Z " fill="#000000" transform="translate(369,434)"/>
<path d="M0 0 C3.41184222 1.92303834 5.42958014 3.34059677 6.73046875 7.125 C7.44561859 11.31676935 7.22001748 13.53457842 5.375 17.4375 C2.84794879 20.16405526 1.61514146 21.24334249 -2 22 C-6.48980038 21.91982499 -8.41944237 21.49221191 -11.875 18.5625 C-14.59652446 15.28066168 -15.21092826 13.85903367 -14.9375 9.6875 C-14.45114007 5.91821055 -14.00784707 5.0093782 -11.4375 1.9375 C-7.33293416 -0.37598256 -4.5929397 -1.10486223 0 0 Z " fill="#000000" transform="translate(151,434)"/>
<path d="M0 0 C2.84057875 1.70434725 3.7082042 2.90831642 4.55859375 6.08984375 C5.16123733 9.8237488 5.26655343 12.3188079 3.875 15.875 C0.92277175 19.22085868 -1.49575045 20.77596283 -5.9375 21.4375 C-9.86292527 20.87672496 -11.94797605 19.49711051 -15 17 C-17.35242347 13.79214982 -17.4684209 10.90350748 -17 7 C-12.78344881 -0.83073792 -8.30658041 -2.0461062 0 0 Z " fill="#000000" transform="translate(480,246)"/>
<path d="M0 0 C3.06471302 1.65023009 5.30778907 3.056076 7.375 5.875 C8.69601084 10.36643685 8.48383625 13.10144696 6.25 17.25 C4.06889997 19.91578892 3.11038217 20.80806523 0 22 C-4.20581532 22.22213813 -7.87911598 21.67253041 -11.5 19.5 C-13.72190885 15.79681858 -14.19189503 12.29077281 -14 8 C-11.53615815 1.70351526 -6.63525467 -0.94789352 0 0 Z " fill="#000000" transform="translate(41,245)"/>
</svg>
