<?xml version="1.0" encoding="UTF-8"?>
<svg version="1.1" xmlns="http://www.w3.org/2000/svg" width="512" height="512">
<path d="M0 0 C0.89458923 0.00465271 1.78917847 0.00930542 2.71087646 0.01409912 C15.85147643 0.0940729 28.6986328 0.45901544 41.5625 3.375 C42.46452148 3.57367676 43.36654297 3.77235352 44.29589844 3.97705078 C70.82427645 9.9735602 96.52063623 20.21931576 118.5625 36.375 C120.1403125 37.52742188 120.1403125 37.52742188 121.75 38.703125 C129.47670898 44.45015056 136.61653293 50.71393905 143.5625 57.375 C144.35938232 58.13103516 144.35938232 58.13103516 145.17236328 58.90234375 C153.4633503 66.8018051 160.82978992 75.1095931 167.5625 84.375 C168.19019287 85.23617432 168.19019287 85.23617432 168.83056641 86.11474609 C185.58944764 109.42548024 196.83293451 136.29496732 202.5625 164.375 C202.72476074 165.11492187 202.88702148 165.85484375 203.05419922 166.6171875 C208.68556803 193.11774662 207.7953657 224.12731166 201.5625 250.375 C201.38058105 251.19436035 201.19866211 252.0137207 201.01123047 252.85791016 C195.38788832 277.99962664 184.83246658 302.56303783 169.5625 323.375 C169.17739258 323.8999707 168.79228516 324.42494141 168.39550781 324.96582031 C163.44297772 331.66999864 158.24500244 338.04182394 152.5703125 344.15625 C151.16899322 345.70478959 149.82732107 347.30849309 148.53515625 348.94921875 C146.76019243 351.13189704 145.01666789 352.87808247 142.875 354.6875 C140.77328026 356.47530167 138.68854591 358.25678303 136.67578125 360.14453125 C98.02552731 396.21303934 43.57561862 412.78831109 -8.56201172 411.29003906 C-56.31475158 409.1142796 -100.56690813 390.61489889 -136.4375 359.375 C-142.43250997 364.33694855 -147.90177037 369.7226624 -153.375 375.25 C-154.68694336 376.56871094 -154.68694336 376.56871094 -156.02539062 377.9140625 C-158.16507048 380.0654346 -160.30236597 382.21911792 -162.4375 384.375 C-161.13541606 387.28521826 -159.80350419 389.20529879 -157.43359375 391.328125 C-156.85802734 391.86566406 -156.28246094 392.40320313 -155.68945312 392.95703125 C-154.48544042 394.06384164 -153.27189536 395.16037631 -152.04882812 396.24609375 C-149.08265255 399.04914632 -147.06592449 401.27535649 -146.28515625 405.359375 C-146.14823131 411.66300971 -149.94271086 416.02542484 -154.07815552 420.39660645 C-155.55631208 421.89246839 -157.04269294 423.38023214 -158.53564453 424.86132812 C-159.75600655 426.08957558 -159.75600655 426.08957558 -161.00102234 427.34263611 C-163.68330625 430.03808526 -166.3763709 432.7224557 -169.0703125 435.40625 C-170.94680056 437.28476036 -172.82284092 439.16370953 -174.69845581 441.04309082 C-178.62887923 444.97896172 -182.56555987 448.90849073 -186.50585938 452.83447266 C-191.04095764 457.35328047 -195.56519399 461.88274709 -200.08387482 466.41796732 C-203.98086208 470.32863914 -207.88375375 474.23334594 -211.7914952 478.13327169 C-214.11770838 480.45484202 -216.4413183 482.77890108 -218.76080704 485.10719299 C-221.35431309 487.70837671 -223.95734661 490.2996519 -226.56298828 492.88867188 C-227.69185204 494.02664467 -227.69185204 494.02664467 -228.84352112 495.18760681 C-239.5186038 505.73781473 -250.16587743 512.68438041 -265.4375 512.875 C-277.76835458 512.73357358 -286.74207411 508.88614812 -295.56640625 500.3046875 C-305.06094557 490.26810266 -306.94384536 480.36216076 -306.70703125 466.9296875 C-306.09132724 452.14672511 -295.84242246 441.306425 -285.8059082 431.37109375 C-284.98371796 430.54525284 -284.16152771 429.71941193 -283.31442261 428.86854553 C-280.62968126 426.17578222 -277.93435809 423.49390991 -275.23828125 420.8125 C-273.35545873 418.93019681 -271.47313578 417.04740533 -269.59135437 415.1640625 C-265.66366674 411.23549695 -261.73009499 407.31290264 -257.79272461 403.39404297 C-253.24874644 398.87130599 -248.71374417 394.33971981 -244.18348628 389.80324268 C-239.80564438 385.41970042 -235.42214691 381.04185804 -231.03584862 376.66677856 C-229.17697301 374.81174939 -227.31944067 372.95537314 -225.46328163 371.09762573 C-222.87405509 368.50802855 -220.27843093 365.925022 -217.6809082 363.34375 C-216.91664017 362.57700455 -216.15237213 361.81025909 -215.36494446 361.02027893 C-207.04462147 352.78292095 -207.04462147 352.78292095 -202.26391602 352.03491211 C-195.26401037 352.62484126 -191.96398094 355.86790071 -187.375 360.9375 C-186.70017578 361.64841797 -186.02535156 362.35933594 -185.33007812 363.09179688 C-183.67947649 364.83604967 -182.05051599 366.59605556 -180.4375 368.375 C-176.52898801 366.79068547 -173.91382644 364.10864905 -171.015625 361.1484375 C-170.51077576 360.64075836 -170.00592651 360.13307922 -169.48577881 359.61001587 C-167.88157904 357.99466158 -166.28449144 356.37247791 -164.6875 354.75 C-163.59811893 353.65058302 -162.5082801 352.55161941 -161.41796875 351.453125 C-158.75248115 348.7656398 -156.09334857 346.07200979 -153.4375 343.375 C-157.62699933 337.7477288 -157.62699933 337.7477288 -161.9296875 332.20703125 C-167.684386 324.91460184 -172.84798564 317.46992469 -177.4375 309.375 C-177.829375 308.68696289 -178.22125 307.99892578 -178.625 307.29003906 C-205.90916601 258.83932865 -212.2181126 201.87708144 -197.6015625 148.31152344 C-188.02917894 115.36939374 -171.03626479 85.37484515 -146.4375 61.375 C-145.633125 60.570625 -144.82875 59.76625 -144 58.9375 C-143.154375 58.091875 -142.30875 57.24625 -141.4375 56.375 C-140.63119141 55.51648437 -140.63119141 55.51648437 -139.80859375 54.640625 C-133.90560189 48.47883809 -127.32867112 43.36371226 -120.4375 38.375 C-119.8717627 37.96491699 -119.30602539 37.55483398 -118.72314453 37.13232422 C-84.00509537 12.29427655 -42.53132593 -0.39739595 0 0 Z M-45.4375 26.375 C-46.15164063 26.55401855 -46.86578125 26.73303711 -47.6015625 26.91748047 C-59.1062013 29.84854867 -69.77216275 34.19136665 -80.4375 39.375 C-81.17033203 39.73110352 -81.90316406 40.08720703 -82.65820312 40.45410156 C-115.88869508 56.83346117 -143.70640291 83.88634384 -161.4375 116.375 C-161.78119629 117.00196777 -162.12489258 117.62893555 -162.47900391 118.27490234 C-184.91369821 159.7648743 -190.53268402 209.89366524 -177.60058594 255.31445312 C-173.71277684 268.30130218 -169.02438402 280.52954402 -162.4375 292.375 C-161.77069712 293.60799926 -161.1040305 294.84107223 -160.4375 296.07421875 C-156.30989871 303.59864943 -151.69153166 310.5923387 -146.4375 317.375 C-145.82003906 318.19742187 -145.20257813 319.01984375 -144.56640625 319.8671875 C-115.13953297 357.61159806 -72.42194016 380.89967713 -25.5625 388.625 C12.35542872 393.28080235 52.06099285 388.03092085 85.78613281 369.35742188 C87.54028059 368.38728847 89.31310503 367.45117739 91.0859375 366.515625 C105.39002754 358.73677154 117.87842913 348.64996474 129.5625 337.375 C130.46226562 336.53839844 131.36203125 335.70179688 132.2890625 334.83984375 C162.02234834 306.4347018 183.6163428 261.67909191 184.72363281 220.2800293 C184.7431467 218.83648981 184.75691724 217.39286386 184.765625 215.94921875 C184.77621445 214.77786125 184.77621445 214.77786125 184.78701782 213.58283997 C185.09849318 190.30122918 185.09849318 190.30122918 181.5625 167.375 C181.36382324 166.52164063 181.16514648 165.66828125 180.96044922 164.7890625 C174.88416871 139.08207201 163.97774544 114.19571521 147.5625 93.375 C147.14419922 92.84245605 146.72589844 92.30991211 146.29492188 91.76123047 C117.06526811 55.00103613 74.56631091 28.55780277 27.5625 22.375 C2.86289233 19.77673422 -21.26863164 20.12087062 -45.4375 26.375 Z M-204.61264038 381.40969849 C-205.29122604 382.08257401 -205.96981171 382.75544952 -206.66896057 383.44871521 C-207.41806198 384.19669876 -208.16716339 384.94468231 -208.93896484 385.71533203 C-209.72433121 386.49573349 -210.50969757 387.27613495 -211.31886292 388.08018494 C-213.93156972 390.67821656 -216.54030295 393.2801913 -219.1484375 395.8828125 C-220.95585683 397.68448335 -222.7632808 399.48614956 -224.57070923 401.28781128 C-227.88137905 404.58930251 -231.19060154 407.89223186 -234.49819696 411.19680226 C-239.36336809 416.05749962 -244.23498728 420.91160789 -249.11240804 425.76001275 C-253.33647607 429.95982338 -257.55224206 434.1679011 -261.76506424 438.37899399 C-263.55753185 440.16843318 -265.35250235 441.95536885 -267.15000534 443.73974991 C-269.6662198 446.23890767 -272.17279652 448.74736088 -274.67724609 451.25830078 C-275.42229904 451.99413895 -276.16735199 452.72997711 -276.9349823 453.4881134 C-282.24208718 458.8384147 -285.85439756 463.41759477 -285.9375 471.25 C-285.78331016 477.16795295 -284.34563095 480.95432729 -280.4375 485.375 C-275.7492117 489.72024281 -272.03996673 491.66765126 -265.625 491.75 C-264.62855469 491.77835937 -263.63210938 491.80671875 -262.60546875 491.8359375 C-254.74593974 490.69238087 -249.63217464 484.98982274 -244.29907227 479.57714844 C-243.51776443 478.79627869 -242.7364566 478.01540894 -241.93147278 477.21087646 C-239.36510366 474.64242666 -236.80950907 472.06353369 -234.25390625 469.484375 C-232.47094742 467.6958177 -230.68732266 465.90792402 -228.90306091 464.1206665 C-224.69739014 459.90473347 -220.49844864 455.6821765 -216.30275911 451.45631623 C-211.52268444 446.6426228 -206.73401246 441.83752082 -201.94462502 437.03309584 C-192.09936974 427.15654576 -182.26487592 417.2693383 -172.4375 407.375 C-173.38055999 406.26610603 -174.32487234 405.15827705 -175.2696991 404.05088806 C-176.05828953 403.12533064 -176.05828953 403.12533064 -176.86281109 402.1810751 C-179.0752453 399.64354384 -181.42218746 397.26053534 -183.80078125 394.87890625 C-184.27823288 394.40049789 -184.75568451 393.92208954 -185.24760437 393.42918396 C-186.24204985 392.43406577 -187.23772778 391.4401777 -188.23461914 390.44750977 C-189.76763372 388.91992879 -191.29513767 387.38697919 -192.82226562 385.85351562 C-193.79394973 384.88249107 -194.76594331 383.91177608 -195.73828125 382.94140625 C-196.61653564 382.06427979 -197.49479004 381.18715332 -198.3996582 380.28344727 C-201.57515351 377.30958278 -201.78867807 378.59991387 -204.61264038 381.40969849 Z " fill="#000000" transform="translate(306.4375,-0.375)"/>
<path d="M0 0 C1.05445313 0.56460938 2.10890625 1.12921875 3.1953125 1.7109375 C14.95634974 8.251671 25.2417145 16.78472875 35 26 C35.79792969 26.73347656 36.59585937 27.46695313 37.41796875 28.22265625 C49.41942898 39.65170979 58.49584938 53.30558834 66 68 C66.32871094 68.64356445 66.65742188 69.28712891 66.99609375 69.95019531 C78.26672131 92.34434386 78.26672131 92.34434386 76.5625 100.0625 C74.73321385 103.50155796 73.41355642 105.10357977 70 107 C66.28620016 107.46422498 63.81654948 107.30383237 60.3125 106 C56.19600757 102.43979033 54.64164527 97.67144631 52.734375 92.703125 C39.20955698 57.47914841 13.38667303 30.22919404 -20.65332031 14.04052734 C-54.75747216 -1.08139267 -94.17865269 -1.89307076 -128.97705078 11.4453125 C-147.6270125 18.97323207 -163.72097716 29.92040485 -178 44 C-178.84046875 44.82757813 -179.6809375 45.65515625 -180.546875 46.5078125 C-205.86255628 72.87159523 -218.60307408 109.76134659 -218 146 C-216.44256528 185.61398559 -199.26880479 220.20661566 -170.625 247.1875 C-143.25232669 271.36026925 -107.3610538 283.46043367 -71 282 C-31.4590037 279.31909162 3.33841936 261.58614226 29.5625 232 C40.50921064 218.52712536 48.87293668 203.2691892 54.56713867 186.90112305 C57.03602253 180.0513969 57.03602253 180.0513969 61 178 C65.1182114 176.93231556 67.30574418 176.73801667 71.3125 178.25 C74 180 74 180 76 183 C77.07466418 190.16171814 75.3496985 195.93806811 72.375 202.375 C71.82585937 203.61262085 71.82585937 203.61262085 71.265625 204.87524414 C70.1979809 207.26041145 69.10378955 209.63138644 68 212 C67.47664063 213.14597656 66.95328125 214.29195312 66.4140625 215.47265625 C59.34780779 230.28836709 49.15515792 243.07298602 38 255 C37.22785156 255.82628906 36.45570313 256.65257812 35.66015625 257.50390625 C6.77900439 287.41485607 -34.380013 302.92437198 -75.48071289 304.0690918 C-119.03863448 304.43125783 -159.87045907 288.42505344 -191 258 C-191.92167969 257.14019531 -192.84335938 256.28039062 -193.79296875 255.39453125 C-215.3840296 234.77796116 -229.33791617 206.86902995 -236 178 C-236.23759033 176.97688721 -236.23759033 176.97688721 -236.47998047 175.93310547 C-246.09338347 132.89527655 -236.18732244 88.758522 -212.98657227 51.8659668 C-208.30167919 44.6783429 -202.84514999 38.26369607 -197 32 C-196.4750293 31.43651855 -195.95005859 30.87303711 -195.40917969 30.29248047 C-145.52806994 -22.63978663 -63.60470575 -35.02712927 0 0 Z " fill="#000000" transform="translate(385,63)"/>
<path d="M0 0 C8.28997586 5.88478404 13.30368231 12.64194664 15.6015625 22.609375 C17.0396295 31.23777699 15.68250316 40.6953589 10.61340332 47.99739075 C4.05406447 56.35197202 -3.43254169 63.74175622 -10.9375 71.23828125 C-12.38685436 72.69153066 -13.8359878 74.14500041 -15.28491211 75.59867859 C-18.30732661 78.62851382 -21.33353282 81.65449896 -24.36230469 84.67797852 C-28.23069659 88.54055896 -32.08755921 92.4144304 -35.94145203 96.29147053 C-38.92516575 99.28995145 -41.91581543 102.28143926 -44.90847778 105.27098656 C-46.33328435 106.69630409 -47.7557505 108.12396543 -49.17575073 109.55407143 C-51.16342207 111.5541578 -53.16050588 113.54437008 -55.16015625 115.5324707 C-55.73597443 116.11593262 -56.3117926 116.69939453 -56.90505981 117.30053711 C-63.55034219 123.86179895 -70.85450814 128.90868381 -80.4453125 129.03125 C-92.39040846 128.30066309 -99.24756878 121.3786014 -107.2890625 113.3125 C-108.36141641 112.24793856 -109.43420911 111.18381895 -110.50741577 110.12011719 C-112.748119 107.89427724 -114.98099509 105.66092643 -117.20898438 103.42236328 C-120.04078154 100.57901066 -122.89458653 97.7589786 -125.75528908 94.94474792 C-127.9760367 92.75372275 -130.18250074 90.54872073 -132.38532639 88.33969116 C-133.43064809 87.29538437 -134.48059972 86.25568765 -135.53554153 85.22109985 C-144.47052308 76.43750619 -151.95665096 66.84208642 -152.25 53.8125 C-152.08359487 43.77827059 -148.11518808 34.96105812 -140.92578125 27.98828125 C-132.66653109 21.1127798 -125.10612169 19.38811539 -114.43359375 19.65234375 C-99.92601278 21.12125695 -90.57449184 32.13827341 -81 42 C-77.76807684 40.58301704 -75.65695725 38.88398217 -73.20043945 36.36401367 C-72.46900223 35.61951462 -71.737565 34.87501556 -70.98396301 34.10795593 C-69.81047554 32.90016228 -69.81047554 32.90016228 -68.61328125 31.66796875 C-66.93583187 29.96521398 -65.25808807 28.26274922 -63.58007812 26.56054688 C-60.94753097 23.87850009 -58.31826055 21.19340775 -55.69458008 18.50268555 C-53.15561941 15.90296016 -50.60407543 13.31610749 -48.05078125 10.73046875 C-47.27857742 9.93134567 -46.5063736 9.1322226 -45.71076965 8.30888367 C-33.83122072 -3.6781015 -15.45175517 -9.67368767 0 0 Z M-27.7265625 20.92578125 C-28.5937793 21.745625 -29.46099609 22.56546875 -30.35449219 23.41015625 C-31.66401855 24.69212891 -31.66401855 24.69212891 -33 26 C-34.21284668 27.18142578 -34.21284668 27.18142578 -35.45019531 28.38671875 C-37.94324923 30.84451736 -40.41173096 33.32486558 -42.875 35.8125 C-44.21171753 37.15489746 -44.21171753 37.15489746 -45.57543945 38.52441406 C-48.38609425 41.34716354 -51.1935363 44.17308541 -54 47 C-57.72615242 50.75301042 -61.45589874 54.50240519 -65.1875 58.25 C-66.04263184 59.11343018 -66.89776367 59.97686035 -67.77880859 60.86645508 C-68.96144287 62.05404419 -68.96144287 62.05404419 -70.16796875 63.265625 C-70.86172607 63.96461914 -71.5554834 64.66361328 -72.27026367 65.38378906 C-75.19485112 68.11643111 -77.80793993 68.5268501 -81.8059082 68.46777344 C-84.5268766 67.88767157 -85.69158224 66.89355383 -87.73046875 65.015625 C-88.42269531 64.38011719 -89.11492187 63.74460938 -89.828125 63.08984375 C-94.28088999 58.80525873 -98.60200077 54.39602823 -102.90820312 49.96484375 C-103.62298828 49.23910156 -104.33777344 48.51335937 -105.07421875 47.765625 C-105.70932373 47.11368164 -106.34442871 46.46173828 -106.9987793 45.79003906 C-111.09513525 42.12595685 -114.38325742 40.40825928 -120.0078125 40.65234375 C-124.66662181 41.46535165 -127.29909777 44.00517103 -129.9375 47.75 C-131.29310722 51.89656327 -131.64552053 54.96851696 -130 59 C-128.21925051 61.35766037 -128.21925051 61.35766037 -125.98974609 63.68725586 C-124.76877228 65.00462234 -124.76877228 65.00462234 -123.52313232 66.34860229 C-119.70057583 70.3654814 -115.83214658 74.33019866 -111.9140625 78.25390625 C-111.09046234 79.08083481 -110.26686218 79.90776337 -109.41830444 80.75975037 C-107.69700081 82.48607068 -105.9743831 84.21108168 -104.25048828 85.93481445 C-101.60551895 88.58199735 -98.96868496 91.23711561 -96.33203125 93.89257812 C-94.65153025 95.57600871 -92.97055782 97.25896884 -91.2890625 98.94140625 C-90.50157623 99.73607803 -89.71408997 100.53074982 -88.90274048 101.34950256 C-87.80547134 102.44215675 -87.80547134 102.44215675 -86.68603516 103.55688477 C-86.04477692 104.19956802 -85.40351868 104.84225128 -84.74282837 105.50440979 C-82.96315355 107.22218701 -82.96315355 107.22218701 -80 108 C-78.36206452 107.08111409 -78.36206452 107.08111409 -76.74560547 105.48291016 C-76.03660095 104.82913391 -75.32759644 104.17535767 -74.59710693 103.50177002 C-68.69617197 97.81745183 -62.87172753 92.05916227 -57.0703125 86.2734375 C-56.36302883 85.56898121 -55.65574516 84.86452492 -54.92702866 84.13872147 C-51.1937718 80.42037226 -47.46333517 76.69922181 -43.73535156 72.97558594 C-39.88863756 69.13438518 -36.03271152 65.30257099 -32.17460823 61.47281456 C-29.20135211 58.51816573 -26.23480922 55.55684623 -23.27007675 52.593647 C-21.85078911 51.17738402 -20.42900307 49.76362016 -19.004673 48.35242844 C-17.01827248 46.38306909 -15.04153723 44.40447876 -13.06689453 42.42333984 C-12.47885544 41.84451553 -11.89081635 41.26569122 -11.28495789 40.66932678 C-8.30410423 37.65762276 -6.1208371 35.20306983 -5 31 C-5.11101127 24.89438022 -6.89188944 22.20830838 -11 18 C-17.24576826 14.87711587 -22.85108659 16.27477383 -27.7265625 20.92578125 Z " fill="#000000" transform="translate(375,148)"/>
<path d="M0 0 C3.125 1.875 3.125 1.875 5 5 C5.98876625 10.02622846 5.7769173 13.70513784 3.125 18.125 C-1.29486216 20.7769173 -4.97377154 20.98876625 -10 20 C-13.125 18.125 -13.125 18.125 -15 15 C-15.98876625 9.97377154 -15.7769173 6.29486216 -13.125 1.875 C-8.70513784 -0.7769173 -5.02622846 -0.98876625 0 0 Z " fill="#000000" transform="translate(463,195)"/>
</svg>
