<?xml version="1.0" encoding="UTF-8"?>
<svg version="1.1" xmlns="http://www.w3.org/2000/svg" width="512" height="512">
<path d="M0 0 C1.59283447 1.34297809 3.17625698 2.69719977 4.75 4.0625 C5.56984375 4.73796875 6.3896875 5.4134375 7.234375 6.109375 C24.38083723 20.69984286 34.52988581 40.74687902 40.75 62.0625 C41.98451904 62.0718457 43.21903809 62.08119141 44.4909668 62.09082031 C49.13015057 62.13109779 53.76869715 62.19695612 58.4074707 62.27001953 C60.40413138 62.29801236 62.40089841 62.31933318 64.39770508 62.33349609 C80.7841618 62.45660997 95.37244745 63.24996846 107.90234375 75.09765625 C118.6295828 86.4241824 121.06123597 98.30355222 121.01069641 113.45320129 C121.01452196 114.67749004 121.01834751 115.90177878 121.02228898 117.16316718 C121.03078842 120.54021298 121.03039829 123.91703972 121.02610838 127.29407895 C121.02363325 130.94450264 121.03266511 134.59490118 121.04014587 138.24531555 C121.0528734 145.38895229 121.05468897 152.5325514 121.05234561 159.67619757 C121.05055999 165.48538095 121.05231732 171.29455295 121.05657005 177.10373497 C121.05716524 177.93165926 121.05776043 178.75958355 121.05837366 179.61259645 C121.05958546 181.29473387 121.06079959 182.97687129 121.06201603 184.6590087 C121.07288423 200.42264017 121.07073258 216.18625022 121.06463119 231.94988289 C121.05946356 246.35511841 121.07071468 260.76028628 121.08972941 275.16550843 C121.10912526 289.97354019 121.11736069 304.78153998 121.11360615 319.58958453 C121.11169665 327.89642894 121.11415715 336.2032158 121.12832069 344.51004982 C121.1402578 351.5824103 121.14161339 358.6546778 121.12953053 365.72703961 C121.12365794 369.33159853 121.12249717 372.93598755 121.13453293 376.54053497 C121.14745888 380.45738922 121.13688867 384.37398851 121.1242218 388.29084778 C121.13159609 389.41703909 121.13897037 390.54323041 121.14656812 391.70354873 C121.05578235 405.0994373 117.72760451 417.2835927 108.60546875 427.3671875 C98.27865949 436.80263007 87.63881985 439.51905417 74.02435303 439.45690918 C72.76401788 439.46300028 71.50368273 439.46909139 70.20515561 439.47536707 C66.72743381 439.49169302 63.2499398 439.48946378 59.77219319 439.4839921 C56.01334846 439.48131275 52.2545632 439.49587071 48.4957428 439.50808716 C41.13920179 439.52910597 33.78273966 439.53368402 26.42617217 439.53189927 C20.44346023 439.53058973 14.46077282 439.53440557 8.47806549 439.54182434 C6.75228858 439.54392363 5.02651167 439.54602123 3.30073476 439.54811716 C2.01212029 439.54968245 2.01212029 439.54968245 0.6974732 439.55127937 C-15.53784194 439.57016779 -31.77311186 439.56913597 -48.00843343 439.56231004 C-62.84306146 439.55673691 -77.67751666 439.57755266 -92.5121043 439.61067051 C-107.76198421 439.6444499 -123.01178144 439.65957047 -138.26169944 439.65495348 C-146.81621569 439.65271291 -155.37057227 439.65789123 -163.92505646 439.68284607 C-171.20897205 439.70391429 -178.49264042 439.7073968 -185.77656636 439.68854648 C-189.48869343 439.67942203 -193.20036026 439.67814324 -196.91245079 439.69890213 C-200.94746092 439.72121608 -204.98139794 439.70431329 -209.01641846 439.68395996 C-210.17471546 439.69647781 -211.33301247 439.70899566 -212.52640939 439.72189283 C-224.50640438 439.59293544 -235.70174582 435.66093963 -244.25 427.0625 C-252.12946357 417.75752711 -256.45728056 407.48865466 -256.3125 395.24414062 C-256.303396 394.1227771 -256.29429199 393.00141357 -256.28491211 391.84606934 C-256.26763062 390.05054626 -256.26763062 390.05054626 -256.25 388.21875 C-256.24884217 385.66796868 -256.25022166 383.11718517 -256.25390625 380.56640625 C-256.2583341 376.55624636 -256.25463956 372.54831558 -256.19873047 368.53857422 C-256.15352519 364.65996173 -256.16536668 360.78498845 -256.1875 356.90625 C-256.14592773 355.11072693 -256.14592773 355.11072693 -256.10351562 353.27893066 C-256.05989975 347.05944242 -256.05989975 347.05944242 -259.24890137 342.02613831 C-261.62900729 340.39362944 -261.62900729 340.39362944 -264.10803223 339.17713928 C-266.99291889 337.67589914 -268.21178366 335.8215538 -269.75 333 C-270.2140625 332.18402344 -270.678125 331.36804688 -271.15625 330.52734375 C-273.3188816 325.65369898 -273.38724918 320.96245293 -273.42700195 315.67700195 C-273.43357315 314.95106339 -273.44014435 314.22512482 -273.44691467 313.47718811 C-273.46655393 311.08505124 -273.47829029 308.69297694 -273.48828125 306.30078125 C-273.49235678 305.47937338 -273.4964323 304.65796551 -273.50063133 303.81166649 C-273.52145384 299.46241893 -273.53577108 295.11320255 -273.54516602 290.76391602 C-273.55621248 286.29313904 -273.59060275 281.82286219 -273.63033772 277.35226154 C-273.6565998 273.89563633 -273.66486639 270.43912852 -273.66844749 266.98241234 C-273.67329 265.33552873 -273.68483661 263.68864953 -273.70348549 262.0418644 C-273.82786152 250.32945261 -273.12313822 240.43565976 -264.76953125 231.46875 C-262.22049507 229.1097448 -259.81167537 227.0625 -256.25 227.0625 C-256.25276538 226.42934498 -256.25553076 225.79618996 -256.25837994 225.14384842 C-256.32481591 209.69269065 -256.37436587 194.241583 -256.40543652 178.79031754 C-256.42086386 171.31800435 -256.44187364 163.84578688 -256.47631836 156.37353516 C-256.50634804 149.85591652 -256.52560499 143.33836724 -256.53226548 136.82068133 C-256.53615494 133.37395047 -256.54520783 129.92741794 -256.56719017 126.48075104 C-256.59160893 122.62026937 -256.59196135 118.75997654 -256.59057617 114.89941406 C-256.601362 113.77371506 -256.61214783 112.64801605 -256.6232605 111.48820496 C-256.56657756 96.805248 -252.80159758 85.10329252 -242.734375 74.39453125 C-229.69101347 62.15099849 -213.89121759 62.56625106 -197.0625 62.375 C-195.04099417 62.34177554 -193.01950879 62.30728127 -190.99804688 62.27148438 C-186.082145 62.18716884 -181.16628469 62.12008413 -176.25 62.0625 C-175.86110596 60.8544873 -175.47221191 59.64647461 -175.0715332 58.40185547 C-174.54407479 56.78603739 -174.01630762 55.17032007 -173.48828125 53.5546875 C-173.23405396 52.76215576 -172.97982666 51.96962402 -172.71789551 51.15307617 C-163.48980854 23.05883792 -142.33999887 1.98458511 -116.5625 -11.5625 C-79.54343209 -29.60574777 -32.59451123 -25.46919947 0 0 Z M-136.29296875 24.76953125 C-153.61757407 45.06802091 -162.72659408 69.18848779 -161.25 96.0625 C-159.95524195 108.34677049 -156.78914473 119.98421054 -151.25 131.0625 C-140.69 131.0625 -130.13 131.0625 -119.25 131.0625 C-117.96929559 126.58003456 -116.87812921 122.53670692 -116.125 118 C-115.95742187 117.01902344 -115.78984375 116.03804688 -115.6171875 115.02734375 C-115.43542969 113.55974609 -115.43542969 113.55974609 -115.25 112.0625 C-115.08757812 111.09957031 -114.92515625 110.13664062 -114.7578125 109.14453125 C-115.53109525 104.30230833 -118.73435372 102.03013288 -122.25 98.8125 C-123.63130306 97.49475184 -125.0089279 96.17313709 -126.3828125 94.84765625 C-127.04958008 94.20586426 -127.71634766 93.56407227 -128.40332031 92.90283203 C-134.40999936 86.91679995 -139.37263767 81.55870346 -139.5625 72.875 C-139.50323804 66.90929589 -139.00339604 63.70485826 -135.25 59.0625 C-130.87513003 55.66154241 -127.41119903 54.40577453 -121.953125 53.61328125 C-121.27828064 53.51033249 -120.60343628 53.40738373 -119.90814209 53.30131531 C-117.77391869 52.97835694 -115.63743392 52.67590089 -113.5 52.375 C-111.34908392 52.05931111 -109.19886236 51.7394079 -107.04901123 51.41654968 C-105.10963519 51.12730236 -103.16861643 50.84913379 -101.22753906 50.5715332 C-98.33295643 50.22485141 -98.33295643 50.22485141 -96.25 49.0625 C-95.21722191 47.08019041 -94.26508402 45.05563979 -93.3515625 43.015625 C-93.07533051 42.40740906 -92.79909851 41.79919312 -92.51449585 41.17254639 C-91.3318852 38.56862769 -90.16385875 35.95825979 -88.99609375 33.34765625 C-88.14130631 31.44259187 -87.27795643 29.54157324 -86.4140625 27.640625 C-85.64763428 25.92987793 -85.64763428 25.92987793 -84.86572266 24.18457031 C-82.55067999 19.71119987 -80.46540867 16.75361474 -76.0625 14.25 C-70.12210885 12.39971423 -64.91505394 12.08084183 -59.0625 14.4375 C-50.25870309 19.53989703 -46.75006342 32.11451148 -42.67626953 40.92553711 C-42.26231934 41.81635986 -41.84836914 42.70718262 -41.421875 43.625 C-40.8664502 44.83349609 -40.8664502 44.83349609 -40.29980469 46.06640625 C-39.29636355 48.21392853 -39.29636355 48.21392853 -37.25 50.0625 C-35.01095018 50.53065161 -32.75011431 50.89639751 -30.484375 51.2109375 C-29.10541454 51.41369415 -27.72651 51.61683144 -26.34765625 51.8203125 C-24.17830593 52.13070927 -22.00848589 52.43633508 -19.83740234 52.734375 C-17.73841196 53.02580824 -15.64283641 53.33606074 -13.546875 53.6484375 C-11.66500488 53.91213135 -11.66500488 53.91213135 -9.74511719 54.18115234 C-5.0619291 55.36209039 -1.71772888 57.4636668 1.54296875 61.015625 C4.44522312 65.93724729 4.88179804 71.40184473 4.4375 77 C2.04237485 84.4531534 -4.31046559 90.36114233 -9.9921875 95.4921875 C-16.91028118 101.28397128 -16.91028118 101.28397128 -20.9921875 108.9765625 C-20.73543779 111.85050283 -20.09676118 114.30660599 -19.25 117.0625 C-18.89593949 119.24674095 -18.5625656 121.43443612 -18.25 123.625 C-17.64083196 127.47269764 -17.64083196 127.47269764 -16.25 131.0625 C-5.69 131.0625 4.87 131.0625 15.75 131.0625 C26.97312415 104.87521033 29.52714722 80.66764187 19.21972656 53.84448242 C9.96689982 31.0012159 -7.82014027 12.83825162 -30.1875 2.6875 C-40.28299997 -1.35298922 -51.34082432 -4.4745645 -62.25 -4.9375 C-63.48363281 -4.99744141 -63.48363281 -4.99744141 -64.7421875 -5.05859375 C-91.59583024 -5.72020524 -117.82121249 5.28668938 -136.29296875 24.76953125 Z M-68.25 31.0625 C-68.7346875 32.04347656 -69.219375 33.02445313 -69.71875 34.03515625 C-71.5006094 37.63209692 -73.3065212 41.2165605 -75.11669922 44.79931641 C-76.2015932 46.9658324 -77.26035319 49.14353776 -78.31640625 51.32421875 C-78.98080282 52.65412987 -79.64613009 53.98357655 -80.3125 55.3125 C-80.74949219 56.24074585 -80.74949219 56.24074585 -81.1953125 57.18774414 C-83.56301065 61.82000208 -86.6268361 63.98339427 -91.25 66.0625 C-94.89038086 66.97558594 -94.89038086 66.97558594 -98.71484375 67.546875 C-99.39301651 67.65219543 -100.07118927 67.75751587 -100.76991272 67.86602783 C-102.90733583 68.19487876 -105.04705549 68.5039979 -107.1875 68.8125 C-108.64928689 69.03385028 -110.11087838 69.25649509 -111.57226562 69.48046875 C-115.12937801 70.02277665 -118.68882663 70.5474477 -122.25 71.0625 C-120.87810865 74.1172728 -119.29722873 76.29421956 -116.984375 78.70703125 C-116.34113281 79.38443359 -115.69789063 80.06183594 -115.03515625 80.75976562 C-114.36355469 81.45779297 -113.69195312 82.15582031 -113 82.875 C-98.01530182 98.55152609 -98.01530182 98.55152609 -98.08203125 110.49609375 C-98.28909913 114.89267462 -98.95942473 119.09348058 -99.8125 123.40625 C-100.38543022 126.43608183 -100.38543022 126.43608183 -100.25 131.0625 C-78.8 131.0625 -57.35 131.0625 -35.25 131.0625 C-35.84659929 123.89913248 -35.84659929 123.89913248 -36.796875 116.78125 C-37.31351753 113.6813948 -37.45511776 110.70425672 -37.5 107.5625 C-37.52578125 106.4796875 -37.5515625 105.396875 -37.578125 104.28125 C-36.78366741 96.48799939 -31.74682903 92.21171269 -26.375 87.0625 C-19.45037135 80.39159397 -19.45037135 80.39159397 -13.25 73.0625 C-13.25 72.4025 -13.25 71.7425 -13.25 71.0625 C-14.60363647 70.86672363 -14.60363647 70.86672363 -15.98461914 70.66699219 C-19.36169204 70.17150593 -22.73629897 69.66306932 -26.11010742 69.14599609 C-27.5650665 68.92567971 -29.02080018 68.71041275 -30.47729492 68.50048828 C-32.58220367 68.1961815 -34.68357011 67.87325196 -36.78515625 67.546875 C-38.047229 67.35834961 -39.30930176 67.16982422 -40.60961914 66.97558594 C-45.76522035 65.6824501 -49.78832437 64.00724706 -53.08276367 59.62402344 C-53.52338135 58.73231445 -53.96399902 57.84060547 -54.41796875 56.921875 C-54.91876953 55.93316406 -55.41957031 54.94445312 -55.93554688 53.92578125 C-56.43119141 52.89839844 -56.92683594 51.87101562 -57.4375 50.8125 C-58.19836914 49.29462891 -58.19836914 49.29462891 -58.97460938 47.74609375 C-60.41765414 44.86000423 -61.83544097 41.96262903 -63.25 39.0625 C-64.57796422 36.39311071 -65.91409727 33.72792884 -67.25 31.0625 C-67.58 31.0625 -67.91 31.0625 -68.25 31.0625 Z M-233.25 91.0625 C-237.64370034 97.86004854 -238.40346719 104.20755425 -238.34765625 112.20703125 C-238.3462413 112.97681808 -238.34482635 113.74660492 -238.34336853 114.53971863 C-238.33779606 116.98485288 -238.32524871 119.42989368 -238.3125 121.875 C-238.30748144 123.53841013 -238.30291915 125.2018217 -238.29882812 126.86523438 C-238.28783566 130.93102528 -238.2705901 134.99674683 -238.25 139.0625 C-235.75407087 138.06740119 -233.2625881 137.0677866 -230.78515625 136.02734375 C-229.96917969 135.68832031 -229.15320313 135.34929687 -228.3125 135 C-227.49910156 134.65839844 -226.68570313 134.31679687 -225.84765625 133.96484375 C-219.57263117 131.7850982 -213.16831122 131.85862842 -206.6015625 131.74609375 C-205.58903412 131.72531265 -204.57650574 131.70453156 -203.53329468 131.68312073 C-200.31392902 131.61798402 -197.09448506 131.55890768 -193.875 131.5 C-191.68618997 131.45678063 -189.49738773 131.41316527 -187.30859375 131.36914062 C-181.9558108 131.26233961 -176.60295078 131.160508 -171.25 131.0625 C-171.71717371 129.34497748 -172.18468979 127.62754807 -172.65234375 125.91015625 C-172.92675293 124.90098145 -173.20116211 123.89180664 -173.48388672 122.85205078 C-174.01553266 120.91623608 -174.56517299 118.98530877 -175.12890625 117.05859375 C-178.25721373 105.34978576 -178.49887896 93.10605836 -179.25 81.0625 C-184.49693388 80.96294495 -189.74330697 80.8907104 -194.9909668 80.84277344 C-196.77263986 80.82277095 -198.55424823 80.79555977 -200.33569336 80.76074219 C-213.23405765 80.51512786 -224.11383682 80.69236153 -233.25 91.0625 Z M43.75 81.0625 C43.71036133 81.76109131 43.67072266 82.45968262 43.62988281 83.17944336 C42.79642037 97.1974988 41.62847659 110.53328284 37.75 124.0625 C37.08321192 126.39579864 36.41652912 128.72912737 35.75 131.0625 C42.29696132 131.13887583 48.84380673 131.19123618 55.39111328 131.22729492 C57.61609185 131.24233512 59.84104101 131.26277246 62.06591797 131.28881836 C65.27318606 131.32541135 68.48006045 131.3422745 71.6875 131.35546875 C72.67427734 131.37095261 73.66105469 131.38643646 74.67773438 131.40238953 C81.85358366 131.40411863 87.12840154 130.21821337 93.375 126.5 C99.20327057 120.51835389 102.62196683 114.14454513 102.90625 105.72265625 C102.44923449 97.94196728 99.33915705 92.97098864 94.37109375 87.10546875 C84.67396408 79.54719928 73.79527517 80.58328948 62.125 80.8125 C60.33986381 80.83259777 58.55470575 80.85084274 56.76953125 80.8671875 C52.4291404 80.91091914 48.0898154 80.97976411 43.75 81.0625 Z M98.75 142.875 C90.40306407 147.6363716 82.82218283 148.49867633 73.30114746 148.44104004 C72.07065847 148.44557017 70.84016948 148.4501003 69.57239294 148.4547677 C66.17805397 148.46434549 62.78420835 148.46064326 59.38990092 148.45126271 C55.7211229 148.44444099 52.05238989 148.45501183 48.38362122 148.46354675 C42.03224261 148.47609081 35.68093209 148.47809385 29.32954407 148.47319031 C20.13680791 148.46637118 10.94417405 148.47891915 1.7514562 148.49669749 C-13.17757289 148.52532367 -28.10659092 148.54285398 -43.03564453 148.55126953 C-44.37473164 148.5520303 -44.37473164 148.5520303 -45.74087101 148.55280644 C-52.98390121 148.55683818 -60.22693164 148.5603321 -67.46996212 148.56380367 C-73.80142672 148.56686114 -80.13289115 148.57013341 -86.46435547 148.57373047 C-87.355988 148.57423308 -88.24762053 148.5747357 -89.16627222 148.57525355 C-104.04097504 148.58400185 -118.91563982 148.60444556 -133.79031706 148.63321257 C-142.95846292 148.65037618 -152.12650111 148.65698473 -161.29466093 148.64990652 C-167.57687301 148.64572298 -173.85901724 148.65209051 -180.14121354 148.66670525 C-183.76362419 148.67475165 -187.38586648 148.67789386 -191.00827599 148.66788292 C-194.93932305 148.65710984 -198.87010809 148.66948757 -202.80114746 148.68395996 C-203.93996825 148.67706603 -205.07878903 148.67017209 -206.25211954 148.66306925 C-216.30758873 148.73516694 -224.98480647 150.73399324 -232.25 158.0625 C-236.66375253 164.27241981 -238.38166815 169.8935445 -238.36352539 177.49536133 C-238.36344986 178.55608353 -238.36337433 179.61680573 -238.36329651 180.70967102 C-238.35813522 181.8431749 -238.35297394 182.97667877 -238.34765625 184.14453125 C-238.3462413 185.31384689 -238.34482635 186.48316254 -238.34336853 187.68791199 C-238.33777793 191.41696751 -238.32522709 195.14596267 -238.3125 198.875 C-238.30748379 201.40559809 -238.30292109 203.93619712 -238.29882812 206.46679688 C-238.28781157 212.66538513 -238.27108273 218.86393825 -238.25 225.0625 C-236.73688736 225.07129936 -236.73688736 225.07129936 -235.19320679 225.08027649 C-225.63192255 225.13778264 -216.07085969 225.21068675 -206.50980186 225.29821491 C-201.59574435 225.34271874 -196.68176593 225.3820175 -191.76757812 225.40893555 C-187.01468132 225.43516972 -182.26209229 225.47571015 -177.50938797 225.52568626 C-175.70679207 225.54222023 -173.90414312 225.55381754 -172.10148239 225.56011391 C-151.4599201 225.63942321 -133.04456663 228.83868079 -117.9453125 244.04296875 C-106.33559269 256.55931332 -101.92659899 271.83395387 -102.1015625 288.54296875 C-102.79529797 304.99180188 -110.10933085 319.36825052 -121.8125 330.8125 C-134.66964697 341.36261858 -150.35618578 345.1370698 -166.61547852 345.26782227 C-167.3970784 345.27772186 -168.17867828 345.28762146 -168.98396301 345.29782104 C-171.53224807 345.32906308 -174.08055168 345.35404363 -176.62890625 345.37890625 C-178.40966743 345.39950812 -180.19042407 345.42050537 -181.97117615 345.44187927 C-186.6317271 345.4967664 -191.29231972 345.54632114 -195.95294189 345.59472656 C-200.71931616 345.64518699 -205.48563081 345.70074425 -210.25195312 345.75585938 C-219.58458434 345.86303218 -228.91726758 345.9645659 -238.25 346.0625 C-238.32637444 353.44565162 -238.37873584 360.82870046 -238.41479492 368.2121582 C-238.42983529 370.72131152 -238.45027272 373.23043874 -238.47631836 375.73950195 C-238.51291014 379.35634825 -238.52977448 382.97284542 -238.54296875 386.58984375 C-238.55845261 387.70270248 -238.57393646 388.81556122 -238.58988953 389.96214294 C-238.59189568 399.35064806 -237.02003494 408.10200371 -230.25 415.0625 C-225.11330091 418.942668 -220.69054308 421.18290242 -214.17672634 421.19951439 C-213.12145132 421.20458893 -212.06617631 421.20966347 -210.97892326 421.21489179 C-209.81552565 421.21538955 -208.65212804 421.21588731 -207.45347595 421.21640015 C-206.22065197 421.2207824 -204.98782799 421.22516465 -203.7176457 421.2296797 C-200.28904159 421.24075079 -196.86048313 421.24729417 -193.43186772 421.25186086 C-189.73638875 421.25781622 -186.04092661 421.26942634 -182.34545898 421.28015137 C-173.41666806 421.30467848 -164.48787157 421.3193038 -155.55905733 421.33221143 C-153.03692064 421.33592341 -150.5147845 421.33989664 -147.99264836 421.3439641 C-132.32938609 421.36920272 -116.66612294 421.39125515 -101.00284481 421.40369225 C-97.37437372 421.40662193 -93.74590266 421.4095836 -90.11743164 421.41259766 C-88.76467664 421.41371673 -88.76467664 421.41371673 -87.38459326 421.41485842 C-72.7803635 421.42750788 -58.17625561 421.46072506 -43.57208281 421.50239949 C-28.57667418 421.54483932 -13.58132789 421.56838972 1.41414064 421.57361281 C9.8328538 421.57702481 18.25137659 421.58875485 26.67003059 421.62171555 C33.84107087 421.64974554 41.01188176 421.66070256 48.18297256 421.64952008 C51.84002183 421.64434072 55.49659096 421.64717225 59.15357018 421.67198563 C63.12410394 421.69870082 67.09398689 421.68639279 71.06459045 421.67050171 C72.21237301 421.6843838 73.36015557 421.69826588 74.54271942 421.71256864 C82.64615949 421.63276728 89.78024305 420.06935506 95.66333824 414.13128126 C102.05093722 406.50896346 103.1969726 397.83043276 103.11076355 388.18553162 C103.11332682 387.12428528 103.1158901 386.06303895 103.11853105 384.96963364 C103.12345206 381.43199122 103.1070034 377.8947805 103.09057617 374.35717773 C103.08972954 371.81401072 103.09020575 369.27084298 103.09190369 366.72767639 C103.0925857 361.26185604 103.08410524 355.79617342 103.06719017 350.33038139 C103.04275028 342.42791412 103.03498981 334.52549873 103.0312262 326.62299777 C103.02466952 313.79998656 103.00472968 300.97703278 102.97631836 288.15405273 C102.94875747 275.70190721 102.92753384 263.24977731 102.91479492 250.79760742 C102.91400675 250.02932707 102.91321858 249.26104673 102.91240653 248.46948516 C102.90849125 244.61503058 102.90470017 240.76057589 102.90097082 236.90612113 C102.86989932 204.95820569 102.81708493 173.01036084 102.75 141.0625 C101.3084828 140.97631406 101.3084828 140.97631406 98.75 142.875 Z M-253.25 246.0625 C-255.74956221 249.45240113 -255.50935366 252.84470384 -255.5246582 256.95483398 C-255.52976913 257.63989014 -255.53488007 258.32494629 -255.54014587 259.03076172 C-255.55401972 261.2901285 -255.55308683 263.54918949 -255.55078125 265.80859375 C-255.55466938 267.38273736 -255.5590043 268.95687991 -255.56376648 270.53102112 C-255.57122391 273.82873945 -255.57094088 277.1263507 -255.56567383 280.42407227 C-255.55987958 284.64533209 -255.57681111 288.86615308 -255.6000185 293.08734035 C-255.61476639 296.33790133 -255.61562612 299.58835688 -255.61250877 302.83894539 C-255.61302145 304.39503918 -255.61824915 305.95113896 -255.62832069 307.50720024 C-255.64068876 309.68534554 -255.63389211 311.86263932 -255.62231445 314.04077148 C-255.62294388 315.27891098 -255.6235733 316.51705048 -255.6242218 317.79270935 C-255.20952941 321.41611479 -254.55393607 323.24747323 -252.25 326.0625 C-248.06246496 328.57125299 -243.61625938 328.34597578 -238.87060547 328.32128906 C-238.03898392 328.3247937 -237.20736237 328.32829834 -236.35054016 328.33190918 C-233.60600385 328.34069772 -230.86172638 328.33488426 -228.1171875 328.328125 C-226.2001236 328.32947324 -224.28306004 328.3314151 -222.36599731 328.33392334 C-218.34617867 328.33687135 -214.32644893 328.33259014 -210.30664062 328.32324219 C-205.17920719 328.31189405 -200.05198422 328.31837966 -194.92455864 328.33038712 C-190.96262053 328.33765394 -187.00073133 328.33529497 -183.03879166 328.33013153 C-181.14994405 328.32880593 -179.26109186 328.33040416 -177.3722496 328.33509064 C-159.45631249 328.36976508 -143.906365 327.34250131 -130.21875 314.25 C-122.6184274 305.80519712 -118.45663848 294.83339128 -118.97265625 283.3984375 C-120.51564948 270.40252266 -125.722577 260.1830559 -135.86328125 251.78125 C-145.31980941 244.97131155 -155.05742281 242.75273438 -166.54589844 242.7878418 C-167.42675613 242.78273087 -168.30761383 242.77761993 -169.21516418 242.77235413 C-172.09663884 242.75857025 -174.97787152 242.75940536 -177.859375 242.76171875 C-179.8747771 242.75782774 -181.89017838 242.75349224 -183.90557861 242.74873352 C-188.1149767 242.74129701 -192.32429085 242.74154544 -196.53369141 242.74682617 C-201.92621776 242.75263983 -207.31840277 242.73563167 -212.71087265 242.7124815 C-216.86643478 242.69775542 -221.02191426 242.69687054 -225.17749786 242.69999123 C-227.16620819 242.69947819 -229.15492317 242.69424371 -231.14360809 242.68417931 C-233.91985931 242.67184413 -236.69543925 242.67858728 -239.47167969 242.69018555 C-240.69988182 242.67871994 -240.69988182 242.67871994 -241.95289612 242.66702271 C-246.51326175 242.70913662 -249.59992781 243.027041 -253.25 246.0625 Z " fill="#000000" transform="translate(332.25,72.9375)"/>
<path d="M0 0 C6.19732901 5.09558163 9.55652842 10.39987908 10.8125 18.3125 C11.56928404 26.63712442 8.92184539 34.08463977 3.6484375 40.515625 C-2.04474461 46.08767558 -7.96048402 47.63279851 -15.8125 47.875 C-24.94360187 47.50792053 -29.37691233 45.49060178 -35.5625 38.875 C-41.26525247 32.34296281 -41.72228572 26.45229691 -41.50390625 17.98828125 C-40.87057581 10.63070172 -37.75702824 6.08638135 -32.1875 1.3125 C-21.68674839 -6.67720232 -11.16108162 -5.90880792 0 0 Z M-21.1875 15.3125 C-23.66788907 19.0330836 -23.65087203 20.91046571 -23.1875 25.3125 C-21.77083333 27.89583333 -21.77083333 27.89583333 -19.1875 29.3125 C-15.20297016 29.88171855 -13.13256252 29.98399179 -9.8125 27.625 C-7.96828193 25.00053583 -7.26580977 23.52320053 -7.1875 20.3125 C-8.47757388 17.39285912 -9.51044141 15.7568197 -12.1875 14 C-15.8062018 12.75607126 -18.03285192 13.37900602 -21.1875 15.3125 Z " fill="#000000" transform="translate(186.1875,336.6875)"/>
<path d="M0 0 C3.33761045 2.15090451 4.73470933 3.20412799 6 7 C6.28095068 10.62019489 6.27746241 14.24510534 6.3125 17.875 C6.34150391 18.86886719 6.37050781 19.86273437 6.40039062 20.88671875 C6.46430728 28.23221765 6.46430728 28.23221765 4.10546875 32.1328125 C1.37677655 34.55269167 0.37045445 34.95806176 -3.3125 35.375 C-7 35 -7 35 -9.6953125 33.26171875 C-13.24547056 28.23734252 -12.68882368 23.43616773 -12.5625 17.4375 C-12.57345703 16.30119141 -12.58441406 15.16488281 -12.59570312 13.99414062 C-12.52164919 5.62604569 -12.52164919 5.62604569 -10.08959961 2.70727539 C-6.63667133 -0.11388683 -4.44894138 -0.43617072 0 0 Z " fill="#000000" transform="translate(319,8)"/>
<path d="M0 0 C0.7734375 0.06445312 1.546875 0.12890625 2.34375 0.1953125 C5.25367828 1.1125725 5.93515841 2.27980666 7.5 4.875 C8.14831433 8.99669603 8.00945507 13.14517792 8 17.3125 C8.02835938 18.44494141 8.05671875 19.57738281 8.0859375 20.74414062 C8.10545418 29.02409142 8.10545418 29.02409142 5.1875 33.125 C1.63610778 35.43753447 -0.33564369 35.54427155 -4.5 34.875 C-7.88939556 32.73820715 -9.22582557 31.6975233 -10.5 27.875 C-10.75424949 24.42105916 -10.73128473 20.96232577 -10.75 17.5 C-10.770625 16.55382812 -10.79125 15.60765625 -10.8125 14.6328125 C-10.86201971 5.8183035 -10.86201971 5.8183035 -7.5 1.875 C-4.26372698 -0.28251534 -3.66421162 -0.3786352 0 0 Z " fill="#000000" transform="translate(214.5,8.125)"/>
<path d="M0 0 C2.125 0.390625 2.125 0.390625 4.625 2.140625 C7.81028361 6.91855042 7.34115325 12.21475837 7.375 17.765625 C7.395625 18.60351562 7.41625 19.44140625 7.4375 20.3046875 C7.46967005 25.41972479 7.01273174 28.97938971 4.125 33.390625 C1.19590749 35.21141224 -0.49342399 35.40619953 -3.9375 35.265625 C-7.41206861 34.23064711 -8.62538317 33.20799096 -10.875 30.390625 C-11.39257812 27.61328125 -11.39257812 27.61328125 -11.40625 24.453125 C-11.41140625 23.31101562 -11.4165625 22.16890625 -11.421875 20.9921875 C-11.40640625 19.80367187 -11.3909375 18.61515625 -11.375 17.390625 C-11.39046875 16.20210937 -11.4059375 15.01359375 -11.421875 13.7890625 C-11.41671875 12.64695312 -11.4115625 11.50484375 -11.40625 10.328125 C-11.40173828 9.28527344 -11.39722656 8.24242187 -11.39257812 7.16796875 C-10.17681063 0.6441145 -5.81897653 -0.26797918 0 0 Z " fill="#000000" transform="translate(266.875,-0.390625)"/>
<path d="M0 0 C1.69576172 -0.03867187 1.69576172 -0.03867187 3.42578125 -0.078125 C7.02827832 0.28428189 8.82169627 1.07909027 11.6875 3.25 C14.02659307 6.7586396 14.10041057 8.12089433 13.6875 12.25 C11.42279412 16.88235294 11.42279412 16.88235294 8.6875 18.25 C5.89751052 18.48031261 3.16895414 18.61981022 0.375 18.6875 C-0.38490234 18.73326172 -1.14480469 18.77902344 -1.92773438 18.82617188 C-7.39680028 18.93545816 -7.39680028 18.93545816 -9.96801758 17.01074219 C-12.54019824 14.10767751 -13.30755426 12.5368527 -13.375 8.625 C-12.24275993 5.02847271 -11.24064395 3.5570225 -8.3125 1.25 C-5.51142988 -0.15053506 -3.12358319 0.0424496 0 0 Z " fill="#000000" transform="translate(345.3125,459.75)"/>
<path d="M0 0 C1.69576172 -0.03867187 1.69576172 -0.03867187 3.42578125 -0.078125 C7.02827832 0.28428189 8.82169627 1.07909027 11.6875 3.25 C14.02659307 6.7586396 14.10041057 8.12089433 13.6875 12.25 C11.42279412 16.88235294 11.42279412 16.88235294 8.6875 18.25 C5.89751052 18.48031261 3.16895414 18.61981022 0.375 18.6875 C-0.38490234 18.73326172 -1.14480469 18.77902344 -1.92773438 18.82617188 C-7.39680028 18.93545816 -7.39680028 18.93545816 -9.96801758 17.01074219 C-12.54019824 14.10767751 -13.30755426 12.5368527 -13.375 8.625 C-12.24275993 5.02847271 -11.24064395 3.5570225 -8.3125 1.25 C-5.51142988 -0.15053506 -3.12358319 0.0424496 0 0 Z " fill="#000000" transform="translate(217.3125,459.75)"/>
<path d="M0 0 C1.12148438 -0.02578125 2.24296875 -0.0515625 3.3984375 -0.078125 C6.98133403 0.28623736 8.79900016 1.04805398 11.625 3.25 C13.17491142 6.88892246 13.90529855 9.12880579 12.9375 13 C10.77217742 16.71198157 10.77217742 16.71198157 8.625 18.25 C5.73559712 18.60308386 3.13757783 18.75975533 0.25 18.75 C-0.50539063 18.77835937 -1.26078125 18.80671875 -2.0390625 18.8359375 C-6.26166802 18.85070185 -7.92228257 18.59851589 -11.37890625 15.9375 C-13.375 13.25 -13.375 13.25 -13.9375 9.75 C-13.29088349 5.72660837 -12.27481674 4.06696483 -9.375 1.25 C-6.07164934 0.14888311 -3.47667863 0.04773472 0 0 Z " fill="#000000" transform="translate(388.375,459.75)"/>
<path d="M0 0 C1.12148438 -0.02578125 2.24296875 -0.0515625 3.3984375 -0.078125 C6.98133403 0.28623736 8.79900016 1.04805398 11.625 3.25 C13.17491142 6.88892246 13.90529855 9.12880579 12.9375 13 C10.77217742 16.71198157 10.77217742 16.71198157 8.625 18.25 C5.73559712 18.60308386 3.13757783 18.75975533 0.25 18.75 C-0.50539063 18.77835937 -1.26078125 18.80671875 -2.0390625 18.8359375 C-6.26166802 18.85070185 -7.92228257 18.59851589 -11.37890625 15.9375 C-13.375 13.25 -13.375 13.25 -13.9375 9.75 C-13.29088349 5.72660837 -12.27481674 4.06696483 -9.375 1.25 C-6.07164934 0.14888311 -3.47667863 0.04773472 0 0 Z " fill="#000000" transform="translate(260.375,459.75)"/>
<path d="M0 0 C1.12148437 -0.02578125 2.24296875 -0.0515625 3.3984375 -0.078125 C6.98133403 0.28623736 8.79900016 1.04805398 11.625 3.25 C13.17491142 6.88892246 13.90529855 9.12880579 12.9375 13 C10.77217742 16.71198157 10.77217742 16.71198157 8.625 18.25 C5.73559712 18.60308386 3.13757783 18.75975533 0.25 18.75 C-0.50539062 18.77835937 -1.26078125 18.80671875 -2.0390625 18.8359375 C-6.26166802 18.85070185 -7.92228257 18.59851589 -11.37890625 15.9375 C-13.375 13.25 -13.375 13.25 -13.9375 9.75 C-13.29088349 5.72660837 -12.27481674 4.06696483 -9.375 1.25 C-6.07164934 0.14888311 -3.47667863 0.04773472 0 0 Z " fill="#000000" transform="translate(132.375,459.75)"/>
<path d="M0 0 C3.73778502 2.61644951 3.73778502 2.61644951 4.5 5.75 C4.55349147 9.52496925 4.55821656 12.55611465 1.9765625 15.46875 C-1.60682914 17.32261823 -5.06046553 17.22428682 -9 17.1875 C-9.75925781 17.20748047 -10.51851563 17.22746094 -11.30078125 17.24804688 C-14.87804111 17.24491442 -17.05126111 17.07893341 -19.97265625 14.9375 C-22.13330663 11.84296237 -22.434202 9.50048622 -22.5 5.75 C-21.20058342 2.31036789 -20.21023818 1.11378053 -16.9375 -0.5625 C-11.02951939 -1.74409612 -5.72281354 -2.04386198 0 0 Z " fill="#000000" transform="translate(354.5,239.25)"/>
<path d="M0 0 C3.73778502 2.61644951 3.73778502 2.61644951 4.5 5.75 C4.55349147 9.52496925 4.55821656 12.55611465 1.9765625 15.46875 C-1.60682914 17.32261823 -5.06046553 17.22428682 -9 17.1875 C-9.75925781 17.20748047 -10.51851562 17.22746094 -11.30078125 17.24804688 C-14.87804111 17.24491442 -17.05126111 17.07893341 -19.97265625 14.9375 C-22.13330663 11.84296237 -22.434202 9.50048622 -22.5 5.75 C-21.20058342 2.31036789 -20.21023818 1.11378053 -16.9375 -0.5625 C-11.02951939 -1.74409612 -5.72281354 -2.04386198 0 0 Z " fill="#000000" transform="translate(226.5,239.25)"/>
<path d="M0 0 C1.54300781 -0.03867187 1.54300781 -0.03867187 3.1171875 -0.078125 C7.48657798 0.39853578 10.0621613 2.1871613 13.125 5.25 C13.92044584 12.1817423 13.92044584 12.1817423 11.09765625 15.97265625 C7.4130826 18.79539795 4.58931076 18.99855104 0.125 18.875 C-0.92300781 18.90400391 -0.92300781 18.90400391 -1.9921875 18.93359375 C-5.88889781 18.89683233 -7.73362261 18.35896676 -10.83984375 15.96484375 C-13.88903627 11.89730287 -13.58546028 10.22322196 -12.875 5.25 C-9.3389875 0.49467285 -5.66670097 0.08478854 0 0 Z " fill="#000000" transform="translate(302.875,459.75)"/>
<path d="M0 0 C1.54300781 -0.03867187 1.54300781 -0.03867187 3.1171875 -0.078125 C7.48657798 0.39853578 10.0621613 2.1871613 13.125 5.25 C13.92044584 12.1817423 13.92044584 12.1817423 11.09765625 15.97265625 C7.4130826 18.79539795 4.58931076 18.99855104 0.125 18.875 C-0.92300781 18.90400391 -0.92300781 18.90400391 -1.9921875 18.93359375 C-5.88889781 18.89683233 -7.73362261 18.35896676 -10.83984375 15.96484375 C-13.88903627 11.89730287 -13.58546028 10.22322196 -12.875 5.25 C-9.3389875 0.49467285 -5.66670097 0.08478854 0 0 Z " fill="#000000" transform="translate(174.875,459.75)"/>
<path d="M0 0 C2.63590225 2.45411589 2.97746954 3.82297499 3.4375 7.4375 C2.909349 11.73815818 2.19083789 13.08940519 -1 16 C-4.01658156 16.71593335 -6.9137739 16.65370636 -10 16.5625 C-11.21042969 16.57893555 -11.21042969 16.57893555 -12.4453125 16.59570312 C-16.22894199 16.54887603 -18.36826038 16.43773317 -21.53125 14.24609375 C-23.93364938 10.57221171 -23.77826196 7.23374506 -23 3 C-18.35652161 -3.63354055 -6.63664706 -4.02221034 0 0 Z " fill="#000000" transform="translate(313,240)"/>
<path d="M0 0 C2.63590225 2.45411589 2.97746954 3.82297499 3.4375 7.4375 C2.909349 11.73815818 2.19083789 13.08940519 -1 16 C-4.01658156 16.71593335 -6.9137739 16.65370636 -10 16.5625 C-11.21042969 16.57893555 -11.21042969 16.57893555 -12.4453125 16.59570312 C-16.22894199 16.54887603 -18.36826038 16.43773317 -21.53125 14.24609375 C-23.93364938 10.57221171 -23.77826196 7.23374506 -23 3 C-18.35652161 -3.63354055 -6.63664706 -4.02221034 0 0 Z " fill="#000000" transform="translate(185,240)"/>
<path d="M0 0 C3.15554373 1.81682821 4.67890499 3.06622227 5.875 6.5625 C6.14345669 10.32089365 5.03556766 12.69546293 3.0078125 15.8046875 C-0.14046576 18.04262024 -3.59155271 17.70007077 -7.3125 17.6875 C-8.06789063 17.71585937 -8.82328125 17.74421875 -9.6015625 17.7734375 C-13.82318019 17.7881984 -15.48343264 17.53751026 -18.9375 14.875 C-20.9375 12.1875 -20.9375 12.1875 -21.5625 8.6875 C-20.78339045 4.32448651 -19.37158422 2.90282241 -15.9375 0.1875 C-10.79370659 -1.5270978 -5.21686979 -1.44296398 0 0 Z " fill="#000000" transform="translate(395.9375,238.8125)"/>
<path d="M0 0 C3.15554373 1.81682821 4.67890499 3.06622227 5.875 6.5625 C6.14345669 10.32089365 5.03556766 12.69546293 3.0078125 15.8046875 C-0.14046576 18.04262024 -3.59155271 17.70007077 -7.3125 17.6875 C-8.06789063 17.71585937 -8.82328125 17.74421875 -9.6015625 17.7734375 C-13.82318019 17.7881984 -15.48343264 17.53751026 -18.9375 14.875 C-20.9375 12.1875 -20.9375 12.1875 -21.5625 8.6875 C-20.78339045 4.32448651 -19.37158422 2.90282241 -15.9375 0.1875 C-10.79370659 -1.5270978 -5.21686979 -1.44296398 0 0 Z " fill="#000000" transform="translate(267.9375,238.8125)"/>
<path d="M0 0 C3.15554373 1.81682821 4.67890499 3.06622227 5.875 6.5625 C6.14345669 10.32089365 5.03556766 12.69546293 3.0078125 15.8046875 C-0.14046576 18.04262024 -3.59155271 17.70007077 -7.3125 17.6875 C-8.06789062 17.71585937 -8.82328125 17.74421875 -9.6015625 17.7734375 C-13.82318019 17.7881984 -15.48343264 17.53751026 -18.9375 14.875 C-20.9375 12.1875 -20.9375 12.1875 -21.5625 8.6875 C-20.78339045 4.32448651 -19.37158422 2.90282241 -15.9375 0.1875 C-10.79370659 -1.5270978 -5.21686979 -1.44296398 0 0 Z " fill="#000000" transform="translate(139.9375,238.8125)"/>
</svg>
