<?xml version="1.0" encoding="UTF-8"?>
<svg version="1.1" xmlns="http://www.w3.org/2000/svg" width="512" height="512">
<path d="M0 0 C1.31553803 -0.00694553 2.63107605 -0.01389106 3.98647887 -0.02104706 C7.61827634 -0.03960646 11.24966418 -0.03339286 14.88147819 -0.02289402 C18.80591902 -0.01588284 22.73027731 -0.03191445 26.6546936 -0.04489136 C34.33510989 -0.06650457 42.01537785 -0.06641136 49.69581454 -0.05826581 C55.93980808 -0.05195934 62.18375845 -0.05310878 68.42775154 -0.05953789 C69.31731122 -0.06043954 70.2068709 -0.0613412 71.12338694 -0.06227018 C72.93066983 -0.06412143 74.73795271 -0.06598399 76.54523558 -0.06785773 C93.48293974 -0.08442687 110.42056054 -0.07572454 127.35825969 -0.05887216 C142.84480225 -0.04417607 158.33115079 -0.05880387 173.81766837 -0.08764232 C189.73085738 -0.11705396 205.64395689 -0.12800344 221.55717188 -0.11846012 C223.35801572 -0.1174376 225.15885958 -0.11644299 226.95970345 -0.11547661 C227.84568494 -0.11500022 228.73166644 -0.11452383 229.64449586 -0.114033 C235.87814351 -0.1118712 242.11170619 -0.12166047 248.34533501 -0.13624763 C255.94628005 -0.15378676 263.54697776 -0.15363101 271.14791315 -0.13089598 C275.02370102 -0.11976802 278.8990534 -0.11655799 282.77482224 -0.13519669 C286.98166746 -0.15516674 291.18745564 -0.13618497 295.39428711 -0.11352539 C297.2207139 -0.13127898 297.2207139 -0.13127898 299.0840382 -0.14939123 C307.43727299 -0.0580506 314.35254625 1.4855435 320.66667503 7.25683874 C327.44182814 14.48042708 328.91897801 22.81399276 328.88088989 32.44296265 C328.88217153 33.63155924 328.88217153 33.63155924 328.88347906 34.84416789 C328.88512444 37.49583086 328.8796279 40.14743039 328.87416077 42.79908752 C328.87387867 44.70127867 328.87403708 46.60346993 328.87460327 48.50566101 C328.87489035 53.66843295 328.869008 58.83118168 328.86202931 63.99394822 C328.85578096 69.38982415 328.8551908 74.7857006 328.85400391 80.18157959 C328.85089497 90.39892478 328.84268746 100.61625927 328.83265442 110.83359975 C328.82147972 122.46589923 328.8159794 134.09819921 328.81095898 145.73050272 C328.8005045 169.65856231 328.7829135 193.5866124 328.76063538 217.5146637 C329.64045074 217.50578125 330.52026611 217.4968988 331.42674255 217.48774719 C339.75291107 217.40731409 348.07894748 217.34655407 356.40541649 217.30741501 C360.68528814 217.28661611 364.96483647 217.258441 369.24452209 217.21290588 C373.38129949 217.16917102 377.51776755 217.14546882 381.65475845 217.13515472 C383.22629789 217.12781258 384.79782205 217.11347604 386.36922836 217.09174347 C399.60073273 216.91617169 408.75002696 218.71703271 418.56532288 228.1631012 C427.50435114 237.73835923 429.21803368 248.95665869 429.16468811 261.70875549 C429.17498299 263.45751732 429.17498299 263.45751732 429.18548584 265.24160767 C429.20366929 269.06582596 429.19992705 272.88963052 429.19422913 276.71388245 C429.19763971 278.71623307 429.20105978 280.71858388 429.2055822 282.7209323 C429.21957619 289.01053799 429.21811129 295.30000773 429.2066803 301.58961487 C429.19522516 308.03406592 429.20924223 314.47809951 429.23607677 320.92249554 C429.25838735 326.49322672 429.26483635 332.06382836 429.25900036 337.63460094 C429.25566335 340.94494961 429.25958558 344.25497646 429.27525139 347.56529808 C429.4211381 383.45341236 429.4211381 383.45341236 418.76063538 397.5146637 C417.87504944 398.6883551 417.87504944 398.6883551 416.97157288 399.88575745 C411.28313458 406.74922064 404.39288191 411.8080219 397.29188538 417.0927887 C392.82770092 420.42752683 388.5360486 423.94281204 384.26063538 427.5146637 C376.57937852 433.90932117 368.71228825 440.0321922 360.72206116 446.03541565 C359.36023704 447.06246224 358.00486341 448.09809582 356.65467834 449.14039612 C353.23023023 451.76564658 350.02496256 454.16429459 346.01063538 455.8271637 C345.29391663 456.13267151 344.57719788 456.43817932 343.83876038 456.75294495 C340.14190985 458.10799354 336.95536498 458.63517443 333.01063538 458.5771637 C331.81180725 458.56362854 331.81180725 458.56362854 330.58876038 458.54981995 C329.6838385 458.5324176 329.6838385 458.5324176 328.76063538 458.5146637 C328.77634583 459.37108459 328.79205627 460.22750549 328.8082428 461.10987854 C328.85983967 464.334139 328.89721084 467.5581867 328.9254303 470.7827301 C328.94037485 472.16951996 328.96073816 473.55626376 328.98695374 474.94288635 C329.18610196 485.75936825 328.87131908 495.77868086 321.76063538 504.5146637 C313.52925889 512.38020122 306.69850876 512.95597472 295.75505066 512.90234375 C294.44051592 512.90772929 293.12598118 512.91311483 291.77161205 512.91866356 C288.13342477 512.93310133 284.49546436 512.92887874 280.85726476 512.92149675 C276.9294137 512.9167632 273.00161158 512.92927661 269.07377625 512.93951416 C261.38274666 512.95670413 253.69179877 512.95754172 246.00075497 512.95230126 C239.74860661 512.94825851 233.49648238 512.94970436 227.24433517 512.95504951 C225.9091561 512.95617215 225.9091561 512.95617215 224.54700371 512.95731746 C222.73867202 512.95884895 220.93034034 512.9603873 219.12200867 512.96193243 C202.16623543 512.97565831 185.21050835 512.97021927 168.25473617 512.95874722 C152.7480184 512.94881585 137.24141997 512.96175368 121.7347206 512.98568141 C105.80691833 513.01007346 89.87917163 513.01967995 73.95135105 513.01302868 C65.0113108 513.00953656 56.07136233 513.01176803 47.13133621 513.02927971 C39.5204652 513.04400306 31.90975057 513.04463547 24.29888262 513.0272088 C20.41721029 513.01869727 16.5358173 513.01655274 12.65415955 513.03186035 C8.44260914 513.04826302 4.23173246 513.03355842 0.02018738 513.01586914 C-1.20170756 513.02547415 -2.4236025 513.03507915 -3.68252456 513.04497522 C-11.91003317 512.97384839 -18.2754316 511.72385406 -24.76280212 506.47169495 C-25.37381775 505.76399963 -25.98483337 505.05630432 -26.61436462 504.3271637 C-27.240849 503.63235901 -27.86733337 502.93755432 -28.51280212 502.22169495 C-34.0346141 493.56419337 -33.66839313 484.42858905 -33.62704468 474.54621887 C-33.63122118 472.92096456 -33.63670043 471.29571316 -33.64336449 469.67046714 C-33.65779541 465.21957739 -33.65358181 460.76887318 -33.64619768 456.31797338 C-33.64146271 451.51224745 -33.65397851 446.70656147 -33.66421509 441.90084839 C-33.6813997 432.49357509 -33.6822441 423.08636859 -33.67700218 413.67908368 C-33.67296002 406.0353597 -33.67440459 398.39165547 -33.67975044 390.74793243 C-33.68049886 389.65987849 -33.68124729 388.57182455 -33.68201839 387.45079927 C-33.68354986 385.24046073 -33.6850882 383.03012219 -33.68663336 380.81978366 C-33.7003562 360.10000917 -33.69492134 339.38027245 -33.68344814 318.66049883 C-33.67350743 299.69485598 -33.68647131 280.72931057 -33.71038233 261.76368275 C-33.73474654 242.29211985 -33.74438834 222.82060238 -33.73772961 203.34902453 C-33.73423253 192.41606228 -33.73650211 181.48317505 -33.75398064 170.5502243 C-33.76866877 161.24738065 -33.76938212 151.94466491 -33.75190973 142.64182386 C-33.74337095 137.89383697 -33.74132028 133.14607893 -33.75656128 128.39810371 C-33.77033211 124.05449126 -33.76574406 119.71130536 -33.74632204 115.36771807 C-33.74253835 113.79388559 -33.74555166 112.22001956 -33.75593369 110.64621678 C-33.76902065 108.51108916 -33.75759718 106.37745209 -33.73993587 104.24238968 C-33.73982854 103.05532622 -33.7397212 101.86826275 -33.73961061 100.64522767 C-33.13736716 96.87635853 -31.8971177 95.20429064 -29.23936462 92.5146637 C-27.23936462 91.88575745 -27.23936462 91.88575745 -25.23936462 91.9521637 C-24.57936462 91.95087463 -23.91936462 91.94958557 -23.23936462 91.94825745 C-20.30190412 92.78015544 -19.14132232 94.14281455 -17.23936462 96.5146637 C-16.74076128 99.51806915 -16.74076128 99.51806915 -16.74272919 103.11210442 C-16.73762382 103.7767647 -16.73251846 104.44142498 -16.72725838 105.12622648 C-16.71496115 107.36358242 -16.73126176 109.59982365 -16.74729919 111.83714294 C-16.74428963 113.45324486 -16.73951425 115.0693443 -16.73312044 116.68543637 C-16.72057952 121.13436022 -16.73293806 125.58292481 -16.74919534 130.03182387 C-16.76234003 134.82674548 -16.75240897 139.62162348 -16.74508667 144.41654968 C-16.73539503 152.72806841 -16.73988566 161.03948239 -16.75350952 169.35099411 C-16.7728485 181.37464097 -16.76644482 193.3981697 -16.75293571 205.42181958 C-16.73133962 224.93698566 -16.72464422 244.45212391 -16.73008728 263.96730042 C-16.73040791 265.13578554 -16.73072855 266.30427066 -16.7310589 267.50816442 C-16.7337715 276.98852304 -16.73720252 286.46888137 -16.74066448 295.94923973 C-16.74365932 304.23325467 -16.74636765 312.51726962 -16.74864197 320.80128479 C-16.74896748 321.96774374 -16.74929299 323.1342027 -16.74962837 324.33600889 C-16.75456787 343.77465473 -16.7439039 363.21326189 -16.72207022 382.65189564 C-16.70935789 394.64731686 -16.71084687 406.64257902 -16.73052108 418.63799168 C-16.74311177 426.85544355 -16.74168197 435.07281465 -16.72914755 443.29026638 C-16.72242292 448.03429751 -16.72236912 452.77809312 -16.73972893 457.52210236 C-16.75551394 461.86348913 -16.75301271 466.20446374 -16.73587888 470.54584183 C-16.73295564 472.1178266 -16.7368344 473.6898415 -16.74813706 475.26178835 C-16.76252657 477.39687652 -16.75232826 479.53049827 -16.73600006 481.6655407 C-16.73664947 482.85189704 -16.73729888 484.03825338 -16.73796797 485.26055992 C-16.13028002 489.22659757 -14.72748235 491.40202167 -12.23936462 494.5146637 C-6.71591617 497.54438172 -0.00770941 496.79507559 6.12792969 496.77536011 C7.3858514 496.77918565 8.64377312 496.7830112 9.93981367 496.78695267 C13.42445947 496.79723233 16.90900238 496.79505096 20.39365661 496.79077208 C24.15446766 496.78830481 27.91525394 496.797319 31.67605591 496.80480957 C39.04101277 496.81755833 46.40593319 496.81935006 53.77089923 496.81700931 C59.75706604 496.81522628 65.74322179 496.81697547 71.72938728 496.82123375 C72.58136455 496.82182894 73.43334181 496.82242413 74.31113656 496.82303735 C76.04192324 496.8242491 77.77270992 496.82546324 79.50349659 496.82667973 C95.73431824 496.83755584 111.96511911 496.83539237 128.19594193 496.82929488 C143.04446898 496.82412501 157.89293044 496.83538289 172.74144452 496.8543931 C187.98893181 496.87376444 203.23638806 496.88202878 218.48388773 496.87826985 C227.04380455 496.87635682 235.60366553 496.87885535 244.16357231 496.89298439 C251.45024474 496.90489014 258.73682696 496.9063121 266.02350061 496.89419422 C269.7408323 496.88830001 273.45799892 496.88722101 277.17531967 496.89919662 C281.2057968 496.91203018 285.23588002 496.90160403 289.26635742 496.8888855 C290.44028689 496.89625978 291.61421636 496.90363407 292.82371944 496.91123182 C298.87351261 496.8709796 303.4948244 496.63026863 308.76063538 493.5146637 C312.52439948 487.08688 312.48827385 480.36686935 312.59120178 473.1264801 C312.62083996 471.71785253 312.67557928 470.30953147 312.75526428 468.90284729 C313.01729844 464.27573379 313.011883 460.02777534 311.76063538 455.5146637 C308.5341153 452.19552958 304.898491 450.49471156 300.76063538 448.5146637 C298.2828484 446.7561409 295.99685944 444.8117764 293.69813538 442.8271637 C293.14448303 442.36761292 292.59083069 441.90806213 292.020401 441.43458557 C289.23264803 439.06008396 286.93172016 437.0427419 285.76063538 433.5146637 C285.94647397 430.47930005 286.32012144 428.29204123 287.82313538 425.6396637 C290.97232684 423.81110091 294.25786238 423.9752779 297.76063538 424.5146637 C300.23512195 425.9929284 302.07403983 427.27983977 304.19813538 429.1396637 C305.31749094 430.05975116 306.43859239 430.97771867 307.56141663 431.89356995 C308.10233948 432.34232483 308.64326233 432.79107971 309.20057678 433.25343323 C317.87762396 440.26839813 324.52294551 442.58553426 335.76063538 441.5146637 C343.58875564 439.33305641 349.4414422 433.64261772 355.41688538 428.40138245 C359.04417519 425.23171185 362.83812639 422.33481215 366.67616272 419.42384338 C371.78487291 415.53105796 376.76409467 411.48811372 381.72621155 407.41065979 C384.99907708 404.72837168 388.28947003 402.09201891 391.67860413 399.55763245 C402.52369451 391.42240912 409.44834307 383.25455698 411.76063538 369.5146637 C411.85106148 367.82805721 411.89525236 366.13854269 411.90107727 364.44952393 C411.90678741 363.45292755 411.91249756 362.45633118 411.91838074 361.42953491 C411.9194986 360.34734177 411.92061646 359.26514862 411.92176819 358.15016174 C411.92673309 357.00160706 411.931698 355.85305237 411.93681335 354.66969299 C411.95141257 350.87191671 411.95823301 347.07418218 411.96376038 343.27638245 C411.96951332 340.63468423 411.97527104 337.99298603 411.98103333 335.35128784 C411.99059569 330.51994672 411.99649812 325.68861459 411.99953008 320.85726517 C412.00400882 313.76097789 412.02155353 306.6648834 412.05053067 299.56865472 C412.07480594 293.40864117 412.08247697 287.24870686 412.08420563 281.08864784 C412.08722985 278.47441877 412.09525055 275.86019046 412.10839081 273.24599266 C412.12547436 269.58629682 412.12356514 265.92706895 412.11708069 262.26734924 C412.12629547 261.19122879 412.13551025 260.11510834 412.14500427 259.00637817 C412.10599678 251.96675994 411.56848629 245.81502072 406.82313538 240.23731995 C406.14251038 239.68946838 405.46188538 239.14161682 404.76063538 238.5771637 C404.08001038 238.01126526 403.39938538 237.44536682 402.69813538 236.86231995 C399.20501339 234.43262824 396.2178254 234.38464302 392.08734131 234.36749268 C390.90549255 234.36033737 389.7236438 234.35318207 388.50598145 234.34580994 C387.20773941 234.34312103 385.90949738 234.34043213 384.57191467 234.33766174 C383.19206064 234.33139585 381.81220829 234.32474894 380.43235779 234.31774902 C375.89986849 234.29672286 371.3673789 234.28634866 366.83485413 234.27638245 C365.27389318 234.27233449 363.7129324 234.26821755 362.15197182 234.26403236 C354.81889633 234.24498463 347.48583088 234.23075218 340.15273541 234.22242039 C331.6900817 234.21264618 323.22768942 234.18632031 314.76512784 234.1459195 C308.22235031 234.11575641 301.67964773 234.10095138 295.13680202 234.09763938 C291.22973168 234.09528928 287.32294077 234.0863343 283.41594505 234.06117821 C279.73949546 234.03788852 276.06350911 234.03366753 272.38700485 234.04393959 C270.39858789 234.04467055 268.4101944 234.02558605 266.421875 234.00587463 C257.78513107 234.0315079 257.78513107 234.0315079 250.76063538 238.5146637 C246.90253502 242.63883993 246.63759434 247.09174944 246.62692261 252.55961609 C246.62265762 253.55187698 246.61839264 254.54413788 246.61399841 255.56646729 C246.61467819 257.1826873 246.61467819 257.1826873 246.6153717 258.83155823 C246.61201309 259.97529404 246.60865448 261.11902985 246.60519409 262.29742432 C246.5956913 266.08078598 246.59374109 269.86410333 246.59266663 273.6474762 C246.5894528 276.28198769 246.58608863 278.91649901 246.58258057 281.55101013 C246.57618877 287.07730904 246.57469761 292.60359597 246.57533264 298.12989807 C246.57593204 304.49467626 246.56540584 310.85936931 246.54958898 317.22412598 C246.53487086 323.36810783 246.53134645 329.51204927 246.53194237 335.65604782 C246.53076573 338.25941693 246.5263618 340.86278673 246.51861 343.46614456 C246.50875725 347.11796768 246.51170945 350.76957501 246.51771545 354.42140198 C246.51209595 355.4867366 246.50647644 356.55207123 246.50068665 357.64968872 C246.53661226 366.29326968 247.04723637 375.25597396 251.19813538 383.0146637 C251.60934631 383.8087262 252.02055725 384.6027887 252.44422913 385.4209137 C253.67685612 387.55441558 253.67685612 387.55441558 255.42079163 389.1709137 C256.76063538 390.5146637 256.76063538 390.5146637 256.76063538 392.5146637 C257.29301819 392.7415387 257.825401 392.9684137 258.37391663 393.2021637 C261.5393722 394.94290522 264.20023609 397.19436274 266.94813538 399.5146637 C267.49405334 399.96583557 268.03997131 400.41700745 268.60243225 400.8818512 C272.21443536 403.90751923 273.63175937 405.1228028 274.07313538 409.8896637 C273.76063538 413.5146637 273.76063538 413.5146637 272.19813538 415.9521637 C269.67900879 417.56698843 267.85378577 418.31359764 264.835886 418.18581009 C261.96202685 417.25638972 260.26700729 415.5035024 257.99412537 413.52632141 C250.99157366 408.33382117 244.41898246 408.42442844 236.08729553 408.57814026 C234.53714886 408.57708062 232.98700118 408.57243697 231.43687439 408.56451416 C228.12054286 408.55509519 224.80562888 408.57052942 221.48947525 408.60588837 C216.24461638 408.66153926 211.00068978 408.65998271 205.75559998 408.65107727 C197.46370561 408.64359706 189.17243973 408.67322617 180.88068521 408.71929622 C166.01750943 408.8015507 151.15431068 408.83868521 136.29091108 408.83468795 C131.07774247 408.8350011 125.86528305 408.85759445 120.65227818 408.8982234 C117.41362907 408.91995231 114.17509006 408.92555154 110.93637466 408.92714882 C109.43552526 408.93140365 107.93467703 408.94257741 106.43393707 408.96119499 C104.38425616 408.98577722 102.3359654 408.98574346 100.28617859 408.97981262 C99.13992823 408.986516 97.99367786 408.99321938 96.81269264 409.00012589 C93.08912113 408.40785221 91.42334679 407.13298702 88.76063538 404.5146637 C88.13172913 402.5146637 88.13172913 402.5146637 88.19813538 400.5146637 C88.19684631 399.8546637 88.19555725 399.1946637 88.19422913 398.5146637 C89.01954391 395.60044874 90.4272481 394.41732125 92.76063538 392.5146637 C95.50172806 392.02247238 95.50172806 392.02247238 98.70845032 392.03364563 C99.92558716 392.02814697 101.142724 392.02264832 102.39674377 392.01698303 C103.74232878 392.03113858 105.0879098 392.04567781 106.43348694 392.06056213 C107.85277779 392.06169063 109.27207098 392.06105671 110.69136047 392.05879211 C114.54244505 392.05764409 118.39303163 392.08116714 122.24400043 392.10908794 C126.26919342 392.13408718 130.29439773 392.13644242 134.31965637 392.14118958 C141.94114947 392.15362373 149.56241316 392.18645118 157.18380523 392.22658753 C165.86084679 392.27129164 174.53789929 392.29328884 183.21502733 392.31336927 C201.06369343 392.35518351 218.91214596 392.42554402 236.76063538 392.5146637 C236.422901 391.79923401 236.08516663 391.08380432 235.73719788 390.34669495 C229.97720628 377.47827443 229.46379369 365.06135756 229.63563538 351.2021637 C229.64570021 349.76792526 229.65481978 348.33367987 229.66297913 346.89942932 C229.68468088 343.43769255 229.71901083 339.97622517 229.76063538 336.5146637 C229.06433675 336.51835087 228.36803812 336.52203804 227.65063953 336.52583694 C210.70816156 336.61417431 193.76575654 336.68036656 176.823102 336.72191238 C168.629751 336.74253767 160.43655372 336.7706575 152.24330139 336.81642151 C145.10205314 336.85629046 137.96091621 336.88209676 130.81955975 336.89101768 C127.03821003 336.89623238 123.25717881 336.90848771 119.47593117 336.93758392 C115.91609229 336.96475424 112.35670281 336.97310562 108.7967701 336.96709442 C106.86894624 336.96871784 104.94117123 336.9902323 103.01347351 337.01234436 C101.86227524 337.0068457 100.71107697 337.00134705 99.5249939 336.99568176 C98.52669209 336.99936893 97.52839029 337.00305611 96.49983692 337.00685501 C92.9957417 336.37722437 91.30113776 334.95711768 88.76063538 332.5146637 C88.13172913 330.5146637 88.13172913 330.5146637 88.19813538 328.5146637 C88.19684631 327.8546637 88.19555725 327.1946637 88.19422913 326.5146637 C89.01692407 323.60969948 90.4428628 322.41812074 92.76063538 320.5146637 C95.39240646 320.02247238 95.39240646 320.02247238 98.44270325 320.03364563 C100.18005989 320.02539764 100.18005989 320.02539764 101.95251465 320.01698303 C103.21918472 320.03136414 104.4858548 320.04574524 105.79090881 320.06056213 C107.14123501 320.0616907 108.49156366 320.06105657 109.84188843 320.05879211 C113.50497308 320.05764436 117.16753389 320.08116294 120.83049679 320.10908794 C124.65949791 320.1340917 128.48851101 320.13644278 132.31758118 320.14118958 C139.5672123 320.15362241 146.81660218 320.18644804 154.06612706 320.22658753 C162.31995855 320.27129578 170.57380155 320.29328988 178.82772398 320.31336927 C195.80552461 320.35518058 212.78299293 320.42853658 229.76063538 320.5146637 C229.76063538 302.0346637 229.76063538 283.5546637 229.76063538 264.5146637 C225.66697571 264.53561096 221.57331604 264.55655823 217.35560608 264.57814026 C203.84481003 264.64435743 190.33401653 264.68878168 176.823102 264.72191238 C168.629751 264.74253767 160.43655372 264.7706575 152.24330139 264.81642151 C145.10205314 264.85629046 137.96091621 264.88209676 130.81955975 264.89101768 C127.03821003 264.89623238 123.25717881 264.90848771 119.47593117 264.93758392 C115.91609229 264.96475424 112.35670281 264.97310562 108.7967701 264.96709442 C106.86894624 264.96871784 104.94117123 264.9902323 103.01347351 265.01234436 C101.86227524 265.0068457 100.71107697 265.00134705 99.5249939 264.99568176 C98.52669209 264.99936893 97.52839029 265.00305611 96.49983692 265.00685501 C92.99579951 264.37723475 91.30227779 262.9557522 88.76063538 260.5146637 C88.09657288 258.5146637 88.09657288 258.5146637 88.13563538 256.5146637 C88.11629944 255.5246637 88.11629944 255.5246637 88.09657288 254.5146637 C89.12836537 251.40714747 91.09186258 250.31835279 93.76063538 248.5146637 C96.49983692 248.02247238 96.49983692 248.02247238 99.5249939 248.03364563 C101.25179131 248.02539764 101.25179131 248.02539764 103.01347351 248.01698303 C104.26719757 248.03136414 105.52092163 248.04574524 106.81263733 248.06056213 C108.15325893 248.06169107 109.49388301 248.06105585 110.83450317 248.05879211 C114.46654027 248.05764581 118.09804752 248.08114083 121.72996163 248.10908794 C125.52825999 248.13411595 129.32657088 248.13644469 133.12493896 248.14118958 C140.31433079 248.15361529 147.50347892 248.18643126 154.69276351 248.22658753 C162.87890448 248.27131796 171.06505718 248.29329546 179.25128996 248.31336927 C196.08788102 248.35516438 212.92422709 248.42550837 229.76063538 248.5146637 C229.88108215 247.69772034 230.00152893 246.88077698 230.12562561 246.03907776 C230.29263977 244.96367737 230.45965393 243.88827698 230.63172913 242.7802887 C230.7934259 241.71584534 230.95512268 240.65140198 231.12171936 239.55470276 C232.85329372 231.31566417 238.96622195 225.16455817 245.76063538 220.5146637 C252.97595295 217.03997054 259.53234668 217.12358353 267.44813538 217.22169495 C268.74638245 217.22593979 270.04462952 217.23018463 271.38221741 217.23455811 C274.80836294 217.24592948 278.23411772 217.27532827 281.66011047 217.30867004 C285.16622128 217.3395389 288.67239616 217.3530991 292.17860413 217.36817932 C299.03944019 217.40020696 305.90001894 217.45130796 312.76063538 217.5146637 C312.70010903 192.7321776 312.6226148 167.94979482 312.52492046 143.16742611 C312.47995489 131.66054131 312.44054193 120.15368752 312.41419983 108.64674377 C312.39122598 98.61729645 312.35783471 88.58794717 312.31193382 78.5585776 C312.28799344 73.24810204 312.26926996 67.93772365 312.26302147 62.62719536 C312.25697437 57.62771441 312.23698783 52.62848209 312.20635986 47.62909317 C312.19757368 45.79534824 312.19385826 43.96157083 312.19562721 42.12780571 C312.1972819 39.62076512 312.18056439 37.11448068 312.15936279 34.60754395 C312.16421037 33.88476271 312.16905795 33.16198148 312.17405242 32.41729778 C312.10535991 27.48309613 311.3111314 23.75757243 308.76063538 19.5146637 C302.75625896 15.56199529 296.26609874 16.09382485 289.27308655 16.13371277 C287.38492234 16.12669281 287.38492234 16.12669281 285.4586134 16.11953104 C281.97617623 16.10703433 278.49398645 16.11318523 275.01154852 16.12248969 C271.25143115 16.12928534 267.49135591 16.1187964 263.73124695 16.11054993 C256.36974899 16.09721589 249.00834283 16.10008885 241.64684129 16.10878785 C235.66355527 16.11556528 229.68029498 16.11648086 223.69700623 16.1132164 C222.84516445 16.1127567 221.99332268 16.112297 221.11566752 16.11182337 C219.38512237 16.11086419 217.65457723 16.10989155 215.92403209 16.1089056 C199.69986933 16.10035267 183.47575743 16.11018431 167.25160301 16.1263067 C153.33303885 16.13970979 139.41454975 16.13738167 125.49598694 16.12355042 C109.32954962 16.10749289 93.16315687 16.10117664 76.99671268 16.11038721 C75.27256331 16.11134285 73.54841392 16.11228596 71.82426453 16.1132164 C70.97596846 16.11367923 70.1276724 16.11414205 69.25367039 16.1146189 C63.2781471 16.11720827 57.30265209 16.11283894 51.32713318 16.10577774 C44.0441384 16.09736063 36.76124062 16.09964732 29.47825694 16.11561997 C25.76294794 16.12349986 22.0478006 16.12659917 18.33249283 16.11667252 C14.30424943 16.1060726 10.27641362 16.11873632 6.2481842 16.13371277 C4.48831318 16.12367452 4.48831318 16.12367452 2.69288921 16.11343348 C-3.38692839 16.15737215 -7.90415767 16.49665304 -13.23936462 19.5146637 C-17.17996637 23.7919831 -16.64798375 28.77093422 -16.61045837 34.26856995 C-16.62783319 36.193702 -16.64541765 38.11883217 -16.66319275 40.04396057 C-16.67328355 43.06800204 -16.67685632 46.09192441 -16.67515564 49.11598206 C-16.67872044 52.04220501 -16.70603501 54.96751004 -16.73545837 57.89356995 C-16.72727585 58.79781204 -16.71909332 59.70205414 -16.71066284 60.63369751 C-16.78476578 66.86916395 -16.78476578 66.86916395 -19.05210876 70.08863831 C-22.24998428 72.17355748 -24.50613992 71.98131678 -28.23936462 71.5146637 C-31.42440032 69.75451239 -32.07233434 69.01575453 -33.23936462 65.5146637 C-33.33957981 64.13558337 -33.38756632 62.75230046 -33.40049744 61.36964417 C-33.41010498 60.53802765 -33.41971252 59.70641113 -33.42961121 58.84959412 C-33.43386108 57.95273895 -33.43811096 57.05588379 -33.44248962 56.1318512 C-33.4481897 55.20301117 -33.45388977 54.27417114 -33.45976257 53.31718445 C-33.46921214 51.34851723 -33.47574638 49.3798342 -33.479599 47.41114807 C-33.48926034 44.42192798 -33.52026573 41.43340862 -33.55186462 38.4443512 C-33.5583995 36.52768859 -33.56364806 34.61102109 -33.56748962 32.6943512 C-33.57983643 31.80964142 -33.59218323 30.92493164 -33.60490417 30.01341248 C-33.57684566 22.06146086 -32.07033451 14.75312618 -26.61436462 8.7021637 C-25.69784119 7.64062073 -25.69784119 7.64062073 -24.76280212 6.55763245 C-17.15557156 0.39883742 -9.50755965 -0.06422894 0 0 Z " fill="#000000" transform="translate(58.23936462402344,-0.5146636962890625)"/>
<path d="M0 0 C1.21728405 0.74681916 2.4348175 1.49323195 3.65258789 2.23925781 C5.50965574 3.37703333 7.36647777 4.51518892 9.22209167 5.65533447 C13.28031561 8.14700771 17.35641088 10.60584782 21.4453125 13.046875 C22.49033936 13.67335938 23.53536621 14.29984375 24.61206055 14.9453125 C26.56868701 16.11729069 28.52832765 17.28425664 30.49145508 18.4453125 C38.7187124 23.39721708 45.45783551 29.26657703 49 38.375 C50.32351112 45.35351316 50.51103073 50.9382565 46.96484375 57.2734375 C44.28921781 60.89003281 40.86055926 62.60898025 36.6875 64 C32.7275 64 28.7675 64 24.6875 64 C24.6875 77.2 24.6875 90.4 24.6875 104 C29.6375 104 34.5875 104 39.6875 104 C47.83035714 109.42857143 47.83035714 109.42857143 49.6875 115 C49.99798675 118.89051688 50.01144022 122.78606891 50.0625 126.6875 C50.11857422 128.28368164 50.11857422 128.28368164 50.17578125 129.91210938 C50.25290936 136.84935452 49.54629615 141.81706583 44.6875 147 C39.29236967 151.21755545 32.6098584 150.47879641 26.0625 150.4375 C24.93070313 150.45748047 23.79890625 150.47746094 22.6328125 150.49804688 C21.54484375 150.49740234 20.456875 150.49675781 19.3359375 150.49609375 C18.34770996 150.49794678 17.35948242 150.4997998 16.34130859 150.50170898 C12.97110991 149.86456471 11.80901702 148.63868614 9.6875 146 C8.75 143.5625 8.75 143.5625 8.6875 141 C10.30905629 137.51365399 11.45203292 136.15697806 14.6875 134 C16.7722168 133.77294922 16.7722168 133.77294922 19.13671875 133.8046875 C20.40805664 133.81435547 20.40805664 133.81435547 21.70507812 133.82421875 C23.02668945 133.84935547 23.02668945 133.84935547 24.375 133.875 C25.26767578 133.88402344 26.16035156 133.89304688 27.08007812 133.90234375 C29.28266666 133.92590085 31.48511725 133.96177156 33.6875 134 C33.6875 129.38 33.6875 124.76 33.6875 120 C-10.5325 120 -54.7525 120 -100.3125 120 C-100.3125 124.62 -100.3125 129.24 -100.3125 134 C-99.23143982 133.99333817 -98.15037964 133.98667633 -97.03656006 133.97981262 C-86.854266 133.91902765 -76.67200869 133.87403991 -66.48957443 133.84456348 C-61.25452876 133.82889997 -56.01962942 133.80764906 -50.78466797 133.77368164 C-45.73371185 133.74111282 -40.68289658 133.72315215 -35.63184357 133.71536827 C-33.70369499 133.70982032 -31.77555421 133.69898666 -29.84746552 133.68280983 C-27.14911672 133.66106852 -24.45135181 133.65803169 -21.75292969 133.65942383 C-20.95379654 133.648638 -20.15466339 133.63785217 -19.33131409 133.6267395 C-16.10112989 133.64480149 -13.72388341 133.78166454 -10.84356689 135.31034851 C-8.38181364 138.02708484 -8.37430378 140.41538049 -8.3125 144 C-9.65812399 146.94755732 -10.39804544 148.54277272 -13.3125 150 C-16.17930454 150.10902794 -19.02218474 150.15733335 -21.88964844 150.16113281 C-22.77763123 150.16609772 -23.66561401 150.17106262 -24.58050537 150.17617798 C-27.52763638 150.19082088 -30.47471354 150.19760585 -33.421875 150.203125 C-35.46730552 150.20887558 -37.51273602 150.21463333 -39.5581665 150.22039795 C-43.85225679 150.2309146 -48.14632833 150.23675263 -52.44042969 150.24023438 C-57.93952999 150.2457144 -63.4383821 150.26972919 -68.93740463 150.29820633 C-73.16506673 150.31684406 -77.39266925 150.32203896 -81.62036896 150.32357025 C-83.64733484 150.32659575 -85.6742997 150.33462079 -87.70122528 150.34775543 C-90.54026557 150.36483623 -93.37870241 150.36293042 -96.21777344 150.35644531 C-97.05332764 150.3656601 -97.88888184 150.37487488 -98.74975586 150.3843689 C-103.68083511 150.34913689 -107.03309777 149.71433358 -111.3125 147 C-117.13312696 140.70743031 -116.55576677 134.85240512 -116.625 126.6875 C-116.65400391 125.55892578 -116.68300781 124.43035156 -116.71289062 123.26757812 C-116.76198568 116.8512327 -116.68895768 112.84220914 -112.3125 108 C-109.9375 105.625 -109.9375 105.625 -106.3125 104 C-101.6925 104 -97.0725 104 -92.3125 104 C-92.3125 90.8 -92.3125 77.6 -92.3125 64 C-96.2725 64 -100.2325 64 -104.3125 64 C-109.29190873 61.89931194 -112.31809308 59.49161038 -115.3125 55 C-117.75683368 47.66699896 -116.61003242 40.51525129 -113.7734375 33.484375 C-108.86509215 25.13756312 -101.98648146 20.94061032 -93.75 16.125 C-92.51796671 15.39267123 -91.28653203 14.65933455 -90.05566406 13.92504883 C-86.81515348 11.99654565 -83.56528996 10.08439368 -80.31292725 8.17596436 C-77.63544426 6.60198832 -74.96397148 5.01795892 -72.29237366 3.434021 C-69.05183369 1.51384447 -65.80763719 -0.40010558 -62.5625 -2.3125 C-61.95211884 -2.67253113 -61.34173767 -3.03256226 -60.71286011 -3.40350342 C-35.70721379 -18.12792792 -24.49586493 -15.10995783 0 0 Z M-46.3125 7 C-48.53757438 8.28513206 -50.76420668 9.56756958 -52.9921875 10.84765625 C-59.23416941 14.48347309 -65.45217267 18.16044216 -71.66650391 21.84326172 C-73.98498999 23.21682021 -76.30777821 24.5818347 -78.63427734 25.94189453 C-81.55808615 27.65302124 -84.46813203 29.38529537 -87.375 31.125 C-88.23013184 31.62008057 -89.08526367 32.11516113 -89.96630859 32.62524414 C-95.15840704 35.77595469 -97.91129297 38.36464691 -100.3125 44 C-100.3125 45.32 -100.3125 46.64 -100.3125 48 C-56.0925 48 -11.8725 48 33.6875 48 C32.58504225 41.38525353 31.56953088 39.23746782 26.6875 35 C22.40947357 32.1028271 17.94166973 29.58351771 13.4375 27.0625 C10.83234039 25.58047874 8.23242718 24.08937756 5.6328125 22.59765625 C4.64412674 22.03263901 4.64412674 22.03263901 3.63546753 21.45620728 C-0.89161649 18.85674558 -5.34200057 16.15497034 -9.7578125 13.37109375 C-10.34711548 13.00081558 -10.93641846 12.63053741 -11.5435791 12.2490387 C-14.34636686 10.48514215 -17.13937565 8.70869501 -19.92285156 6.91430664 C-30.86628931 0.01881521 -35.42679178 0.35378789 -46.3125 7 Z M-76.3125 64 C-76.3125 77.2 -76.3125 90.4 -76.3125 104 C-70.3725 104 -64.4325 104 -58.3125 104 C-58.3125 90.8 -58.3125 77.6 -58.3125 64 C-64.2525 64 -70.1925 64 -76.3125 64 Z M-42.3125 64 C-42.3125 77.2 -42.3125 90.4 -42.3125 104 C-36.3725 104 -30.4325 104 -24.3125 104 C-24.3125 90.8 -24.3125 77.6 -24.3125 64 C-30.2525 64 -36.1925 64 -42.3125 64 Z M-8.3125 64 C-8.3125 77.2 -8.3125 90.4 -8.3125 104 C-2.7025 104 2.9075 104 8.6875 104 C8.6875 90.8 8.6875 77.6 8.6875 64 C3.0775 64 -2.5325 64 -8.3125 64 Z " fill="#000000" transform="translate(239.3125,56)"/>
<path d="M0 0 C5.50712792 3.25182791 10.07891126 8.11534959 12.48828125 14.0859375 C12.82421875 17.0390625 12.82421875 17.0390625 12.86328125 20.3359375 C12.89164063 21.41359375 12.92 22.49125 12.94921875 23.6015625 C11.66047019 33.34362789 4.88759045 39.30939004 -1.76171875 45.9375 C-2.78143915 46.96501411 -3.80071814 47.99296644 -4.81958008 49.02133179 C-6.9512675 51.16787826 -9.09045296 53.30659648 -11.23486328 55.44042969 C-13.9571581 58.15117089 -16.65610614 60.88388721 -19.34927368 63.62352943 C-21.44764618 65.75164031 -23.56000594 67.86544405 -25.6763916 69.9756279 C-26.67604196 70.97629243 -27.67108969 71.9815805 -28.66101074 72.99187088 C-38.13920211 82.64091096 -47.82667329 89.12832027 -61.57421875 89.3984375 C-77.70453934 89.43366936 -87.0700845 80.82970409 -97.95507812 70.01367188 C-98.50832764 69.46026123 -99.06157715 68.90685059 -99.6315918 68.33666992 C-101.32772865 66.64493671 -103.03928398 64.96989614 -104.75195312 63.29492188 C-105.84602903 62.2067105 -106.93916163 61.11754973 -108.03125 60.02734375 C-108.53751419 59.53545059 -109.04377838 59.04355743 -109.56538391 58.53675842 C-113.72111164 54.32713638 -116.08328409 50.14378489 -116.91015625 44.2421875 C-116.83290584 35.48714096 -114.85211809 29.42633684 -108.51171875 23.0859375 C-103.23644658 19.12334933 -98.10383805 18.62498228 -91.63671875 18.5546875 C-82.58624466 20.0932681 -77.16878951 25.91814387 -71.01171875 32.3359375 C-70.18929687 33.17640625 -69.366875 34.016875 -68.51953125 34.8828125 C-66.5074655 36.94167047 -64.50539703 39.00929565 -62.51171875 41.0859375 C-57.3294931 36.76273688 -52.53854299 32.20804998 -47.8203125 27.38671875 C-46.36682626 25.91572922 -44.91304133 24.44503477 -43.45898438 22.97460938 C-41.19563165 20.68024171 -38.93470712 18.38362936 -36.67895508 16.08178711 C-34.48285481 13.84329384 -32.27736108 11.61441113 -30.0703125 9.38671875 C-29.40140488 8.69919022 -28.73249725 8.01166168 -28.0433197 7.30329895 C-20.24369157 -0.53858223 -10.97729635 -3.99484813 0 0 Z M-16.75366211 18.71020508 C-17.92033669 19.89692558 -17.92033669 19.89692558 -19.11058044 21.10762024 C-19.93260452 21.97316025 -20.7546286 22.83870026 -21.6015625 23.73046875 C-22.4643129 24.61119553 -23.32706329 25.4919223 -24.21595764 26.39933777 C-26.50738564 28.74067316 -28.78632476 31.09322961 -31.0581665 33.45355225 C-34.25051571 36.76944373 -37.45349887 40.07466516 -40.67176819 43.36540222 C-42.3829058 45.11594467 -44.08410226 46.87627462 -45.77391052 48.64741516 C-50.70908369 53.70688332 -54.66826427 57.26361925 -61.8125 58.4765625 C-70.81579904 57.84720567 -75.99715083 50.80046124 -81.7890625 44.5625 C-82.35463867 43.96663086 -82.92021484 43.37076172 -83.50292969 42.75683594 C-84.61614463 41.57825086 -85.71021388 40.38122125 -86.78222656 39.16503906 C-88.49295067 37.259998 -88.49295067 37.259998 -91.51171875 35.0859375 C-95.25027571 34.82802854 -95.25027571 34.82802854 -98.51171875 36.0859375 C-100.71272208 39.38744249 -101.17335338 40.25644489 -100.51171875 44.0859375 C-98.76145237 46.32160658 -97.08609445 48.1893482 -95.0703125 50.15625 C-94.50981705 50.71915741 -93.94932159 51.28206482 -93.37184143 51.86203003 C-92.18321615 53.04967661 -90.98836946 54.2311245 -89.7878418 55.40673828 C-87.96434016 57.1960992 -86.16586452 59.00801617 -84.36914062 60.82421875 C-83.20845709 61.97799864 -82.04638999 63.1303887 -80.8828125 64.28125 C-80.35022324 64.81879913 -79.81763397 65.35634827 -79.26890564 65.91018677 C-74.32097342 70.70743538 -69.15812438 73.51291164 -62.07421875 73.5234375 C-61.20925781 73.54277344 -60.34429687 73.56210937 -59.453125 73.58203125 C-50.1430792 72.01181104 -44.27473658 65.47150842 -37.88671875 59.0625 C-36.88967416 58.07324338 -35.8921891 57.08443053 -34.89428711 56.09603882 C-32.81672737 54.03332079 -30.74698092 51.96313095 -28.68212891 49.88769531 C-26.0380987 47.23202145 -23.37189808 44.59990369 -20.69903564 41.9732914 C-18.63821202 39.94193601 -16.59141416 37.89689021 -14.54840088 35.84763718 C-13.57068255 34.8709435 -12.58824566 33.89894917 -11.60101318 32.93187332 C-10.22491624 31.58048294 -8.86975228 30.20787649 -7.515625 28.83447266 C-6.74033447 28.06044098 -5.96504395 27.2864093 -5.16625977 26.48892212 C-3.08703054 23.4691385 -3.10307438 21.6813777 -3.51171875 18.0859375 C-4.51171875 16.0859375 -4.51171875 16.0859375 -6.51171875 15.0859375 C-11.3967752 14.57752448 -13.36298015 15.19220936 -16.75366211 18.71020508 Z " fill="#000000" transform="translate(439.51171875,283.9140625)"/>
<path d="M0 0 C2.05472597 0.00852482 4.10667972 -0.02031562 6.16113281 -0.05200195 C7.46824219 -0.05135742 8.77535156 -0.05071289 10.12207031 -0.05004883 C11.30929688 -0.05190186 12.49652344 -0.05375488 13.71972656 -0.05566406 C20.40366757 0.94839287 24.22224806 5.29306933 28.05957031 10.44604492 C29.85524801 15.83307801 29.28691921 21.62125287 29.30957031 27.25854492 C29.33019531 28.53020508 29.35082031 29.80186523 29.37207031 31.11206055 C29.37980469 32.95767578 29.37980469 32.95767578 29.38769531 34.84057617 C29.39704102 35.96310791 29.40638672 37.08563965 29.41601562 38.2421875 C28.82281853 43.57405425 26.65771139 47.4246403 22.49707031 50.75854492 C21.89765625 51.24967773 21.29824219 51.74081055 20.68066406 52.24682617 C15.98109778 55.7233728 10.15802581 54.7472558 4.53076172 54.79614258 C3.14387127 54.81261857 1.75706277 54.83979779 0.37060547 54.87817383 C-13.47784994 55.25908088 -13.47784994 55.25908088 -19.49291992 50.8684082 C-25.35770282 45.10550971 -26.0794286 38.15750872 -26.17480469 30.33666992 C-26.17996094 29.46526367 -26.18511719 28.59385742 -26.19042969 27.69604492 C-26.21105469 26.84010742 -26.23167969 25.98416992 -26.25292969 25.10229492 C-26.2966454 17.88920278 -25.00374656 11.71889238 -21.12792969 5.57104492 C-14.92849182 -0.45126615 -8.15817596 -0.05169576 0 0 Z M-8.94042969 16.44604492 C-10.07579508 18.71677571 -10.06935381 19.98887771 -10.07324219 22.50854492 C-10.07453125 23.30518555 -10.07582031 24.10182617 -10.07714844 24.92260742 C-10.07328125 25.7553418 -10.06941406 26.58807617 -10.06542969 27.44604492 C-10.06929687 28.2787793 -10.07316406 29.11151367 -10.07714844 29.96948242 C-10.07585937 30.76612305 -10.07457031 31.56276367 -10.07324219 32.38354492 C-10.07211426 33.11444336 -10.07098633 33.8453418 -10.06982422 34.59838867 C-10.05244764 36.54170545 -10.05244764 36.54170545 -8.94042969 38.44604492 C-5.46128028 38.47492306 -1.98216138 38.49280179 1.49707031 38.50854492 C2.9869043 38.52111328 2.9869043 38.52111328 4.50683594 38.53393555 C5.45107422 38.5371582 6.3953125 38.54038086 7.36816406 38.54370117 C8.2427124 38.54893799 9.11726074 38.5541748 10.01831055 38.55957031 C12.05397237 38.67389301 12.05397237 38.67389301 13.05957031 37.44604492 C13.15837828 35.96951828 13.19036277 34.48837257 13.19238281 33.00854492 C13.19367188 32.11393555 13.19496094 31.21932617 13.19628906 30.29760742 C13.19048828 28.88608398 13.19048828 28.88608398 13.18457031 27.44604492 C13.1884375 26.5050293 13.19230469 25.56401367 13.19628906 24.59448242 C13.19435547 23.25256836 13.19435547 23.25256836 13.19238281 21.88354492 C13.19125488 21.05725586 13.19012695 20.2309668 13.18896484 19.37963867 C13.27221838 17.43925453 13.27221838 17.43925453 12.05957031 16.44604492 C10.49784286 16.35918889 8.93227687 16.33902273 7.36816406 16.34838867 C6.42392578 16.35161133 5.4796875 16.35483398 4.50683594 16.3581543 C3.01700195 16.37072266 3.01700195 16.37072266 1.49707031 16.38354492 C0.49998047 16.38805664 -0.49710938 16.39256836 -1.52441406 16.3972168 C-3.99647817 16.40904485 -6.46842487 16.42552643 -8.94042969 16.44604492 Z " fill="#000000" transform="translate(94.9404296875,228.553955078125)"/>
<path d="M0 0 C2.04374995 0.00851056 4.08469921 -0.02029159 6.12817383 -0.05200195 C18.49553099 -0.04588858 18.49553099 -0.04588858 24.11450195 4.44604492 C29.84355864 11.83351276 29.32830967 18.25119166 29.36450195 27.25854492 C29.38512695 28.53020508 29.40575195 29.80186523 29.42700195 31.11206055 C29.43473633 32.95767578 29.43473633 32.95767578 29.44262695 34.84057617 C29.45197266 35.96310791 29.46131836 37.08563965 29.47094727 38.2421875 C28.88199011 43.5359442 26.72369182 47.41532247 22.61450195 50.75854492 C21.7327832 51.49524414 21.7327832 51.49524414 20.83325195 52.24682617 C15.55208727 55.9316388 8.136568 54.79633117 1.98950195 54.88354492 C0.6952832 54.92930664 -0.59893555 54.97506836 -1.93237305 55.0222168 C-10.14243008 55.11836309 -15.84867323 54.31762491 -21.88549805 48.44604492 C-26.12406608 41.95573762 -26.09105511 35.20690046 -26.13549805 27.69604492 C-26.15612305 26.84010742 -26.17674805 25.98416992 -26.19799805 25.10229492 C-26.24171376 17.88920278 -24.94881492 11.71889238 -21.07299805 5.57104492 C-14.88634342 -0.43884815 -8.1420184 -0.05174805 0 0 Z M-8.88549805 16.44604492 C-10.02086344 18.71677571 -10.01442217 19.98887771 -10.01831055 22.50854492 C-10.01959961 23.30518555 -10.02088867 24.10182617 -10.0222168 24.92260742 C-10.01834961 25.7553418 -10.01448242 26.58807617 -10.01049805 27.44604492 C-10.01436523 28.2787793 -10.01823242 29.11151367 -10.0222168 29.96948242 C-10.02092773 30.76612305 -10.01963867 31.56276367 -10.01831055 32.38354492 C-10.01718262 33.11444336 -10.01605469 33.8453418 -10.01489258 34.59838867 C-9.997516 36.54170545 -9.997516 36.54170545 -8.88549805 38.44604492 C-5.40634864 38.47492306 -1.92722974 38.49280179 1.55200195 38.50854492 C3.04183594 38.52111328 3.04183594 38.52111328 4.56176758 38.53393555 C5.50600586 38.5371582 6.45024414 38.54038086 7.4230957 38.54370117 C8.29764404 38.54893799 9.17219238 38.5541748 10.07324219 38.55957031 C12.10890401 38.67389301 12.10890401 38.67389301 13.11450195 37.44604492 C13.21330992 35.96951828 13.24529441 34.48837257 13.24731445 33.00854492 C13.24860352 32.11393555 13.24989258 31.21932617 13.2512207 30.29760742 C13.24541992 28.88608398 13.24541992 28.88608398 13.23950195 27.44604492 C13.24336914 26.5050293 13.24723633 25.56401367 13.2512207 24.59448242 C13.24928711 23.25256836 13.24928711 23.25256836 13.24731445 21.88354492 C13.24618652 21.05725586 13.24505859 20.2309668 13.24389648 19.37963867 C13.32715002 17.43925453 13.32715002 17.43925453 12.11450195 16.44604492 C10.5527745 16.35918889 8.98720851 16.33902273 7.4230957 16.34838867 C6.47885742 16.35161133 5.53461914 16.35483398 4.56176758 16.3581543 C3.07193359 16.37072266 3.07193359 16.37072266 1.55200195 16.38354492 C0.55491211 16.38805664 -0.44217773 16.39256836 -1.46948242 16.3972168 C-3.94154653 16.40904485 -6.41349323 16.42552643 -8.88549805 16.44604492 Z " fill="#000000" transform="translate(94.885498046875,300.553955078125)"/>
<path d="M0 0 C2.03318568 0.00097119 4.06257397 -0.04067682 6.09521484 -0.08496094 C18.47740247 -0.10950442 18.47740247 -0.10950442 23.65600586 3.92919922 C30.22738903 10.75393948 29.75259031 18.57646594 29.60693359 27.62597656 C29.61402344 28.87507813 29.62111328 30.12417969 29.62841797 31.41113281 C29.57971499 38.43185434 29.45703087 43.93692224 24.45068359 49.36425781 C23.86287109 49.8425 23.27505859 50.32074219 22.66943359 50.81347656 C21.78771484 51.55017578 21.78771484 51.55017578 20.88818359 52.30175781 C15.69169081 55.92749255 8.5281607 54.76760231 2.48193359 54.81347656 C0.59958008 54.85698242 0.59958008 54.85698242 -1.32080078 54.90136719 C-8.63575682 54.95144324 -13.70516969 54.64762279 -19.83056641 50.50097656 C-21.67041016 48.53613281 -21.67041016 48.53613281 -22.76806641 46.56347656 C-23.14833984 45.91507812 -23.52861328 45.26667969 -23.92041016 44.59863281 C-26.26649668 39.19155786 -26.04627913 33.54552667 -26.08056641 27.75097656 C-26.10119141 26.89503906 -26.12181641 26.03910156 -26.14306641 25.15722656 C-26.18678212 17.94413442 -24.89388328 11.77382402 -21.01806641 5.62597656 C-14.85852818 -0.35757486 -8.113209 -0.02732377 0 0 Z M-8.55419922 16.76367188 C-10.1267586 18.90413335 -10.19262462 20.0263361 -10.15869141 22.66113281 C-10.15353516 23.45455078 -10.14837891 24.24796875 -10.14306641 25.06542969 C-10.12244141 25.88978516 -10.10181641 26.71414063 -10.08056641 27.56347656 C-10.07541016 28.39169922 -10.07025391 29.21992188 -10.06494141 30.07324219 C-10.12902714 34.43633956 -10.12902714 34.43633956 -8.83056641 38.50097656 C-5.351417 38.5298547 -1.8722981 38.54773343 1.60693359 38.56347656 C3.09676758 38.57604492 3.09676758 38.57604492 4.61669922 38.58886719 C5.5609375 38.59208984 6.50517578 38.5953125 7.47802734 38.59863281 C8.35257568 38.60386963 9.22712402 38.60910645 10.12817383 38.61450195 C12.16383565 38.72882465 12.16383565 38.72882465 13.16943359 37.50097656 C13.447078 34.19658747 13.40118347 30.87815522 13.41943359 27.56347656 C13.44005859 26.63083984 13.46068359 25.69820313 13.48193359 24.73730469 C13.48708984 23.84591797 13.49224609 22.95453125 13.49755859 22.03613281 C13.5069043 21.21508057 13.51625 20.39402832 13.52587891 19.5480957 C13.40825195 18.87254639 13.290625 18.19699707 13.16943359 17.50097656 C9.32624928 14.93885369 6.12249404 15.16989117 1.66943359 15.18847656 C0.89728516 15.17236328 0.12513672 15.15625 -0.67041016 15.13964844 C-4.86675633 15.04118017 -4.86675633 15.04118017 -8.55419922 16.76367188 Z " fill="#000000" transform="translate(94.83056640625,372.4990234375)"/>
</svg>
