<?xml version="1.0" encoding="UTF-8"?>
<svg version="1.1" xmlns="http://www.w3.org/2000/svg" width="512" height="512">
<path d="M0 0 C7.30963202 5.45993855 11.86250571 12.11090116 14 21 C15.01992844 30.26131446 14.67372707 38.7014351 10 47 C9.49146484 47.94746094 9.49146484 47.94746094 8.97265625 48.9140625 C5.64794704 54.28565673 0.52443538 58.05917275 -5 61 C-6.98 61.33 -8.96 61.66 -11 62 C-11 76.52 -11 91.04 -11 106 C-5.555 106.495 -5.555 106.495 0 107 C3.02065979 107.76042742 5.82922118 108.54355404 8.75 109.5625 C9.51151367 109.82281006 10.27302734 110.08312012 11.05761719 110.35131836 C21.31290904 114.00250075 30.78030168 118.81399101 39 126 C43.46034294 124.58079997 46.32847558 122.13383273 49.625 118.9375 C54.36985502 114.45730997 59.26618198 110.27422024 64.3515625 106.1796875 C67.81992358 103.32519564 71.11904248 100.30330902 74.4375 97.27734375 C78.11090147 94.01272019 81.92316537 90.92978016 85.75 87.84765625 C89.23093631 85.15386138 89.23093631 85.15386138 90.45703125 81.0859375 C90.57433594 79.86132812 90.69164062 78.63671875 90.8125 77.375 C92.99387214 58.71139672 100.5312783 41.08642012 113 27 C113.77085937 26.030625 114.54171875 25.06125 115.3359375 24.0625 C118.0462745 20.80762745 121.09681943 18.21300363 124.4375 15.625 C125.35221069 14.91609619 125.35221069 14.91609619 126.28540039 14.19287109 C148.22932749 -2.45308053 173.33043365 -7.74467502 200.59375 -4.71142578 C223.89188635 -1.04649513 245.65730696 12.47307597 259.875 31.125 C261.2648771 33.07280289 262.64169771 35.0300484 264 37 C264.48082031 37.66386719 264.96164062 38.32773437 265.45703125 39.01171875 C268.96907997 44.15157418 271.1625647 49.88637977 273.47265625 55.6328125 C273.7351416 56.28515869 273.99762695 56.93750488 274.26806641 57.60961914 C275 60 275 60 275.35302734 63.23217773 C276.11917933 68.23123434 276.87120484 72.22147958 280.82595825 75.5255127 C286.6932716 79.31706764 293.11609921 82.02227396 299.5 84.8125 C301.38620966 85.67970232 303.27035021 86.5514199 305.15234375 87.42773438 C308.88910958 89.15818353 312.64059453 90.84714948 316.41015625 92.50488281 C320.18649578 94.17026504 323.91247436 95.91061023 327.62109375 97.72167969 C328.52114136 98.15260422 329.42118896 98.58352875 330.34851074 99.0275116 C332.04711676 99.84279698 333.73769393 100.67511315 335.41809082 101.52729797 C339.55520259 103.48301015 341.28043403 104.15450831 345.89648438 103.16333008 C348.87808671 101.68542917 351.34094835 99.98530546 354 98 C361.82011232 95.18600332 370.91613546 96.5962028 378.3984375 99.6796875 C387.21370038 104.15349959 393.36271942 110.60164919 397.13671875 119.7578125 C399.39631213 128.24406819 399.57719594 139.28292683 395.25390625 147.0859375 C394.84011719 147.71757812 394.42632812 148.34921875 394 149 C393.57589844 149.69351563 393.15179688 150.38703125 392.71484375 151.1015625 C389.07980886 156.50855034 384.66682302 159.86910466 379 163 C378.38511719 163.34160156 377.77023437 163.68320313 377.13671875 164.03515625 C369.63490742 167.48888095 359.93464364 167.14886505 352.125 164.875 C343.19558376 161.32974012 335.98332126 154.34255369 331.6875 145.8125 C328.85952672 138.89574868 328.64968761 131.64322228 329.5012207 124.30078125 C329.59385696 123.49423096 329.68649323 122.68768066 329.78193665 121.85668945 C329.85389755 121.24398193 329.92585846 120.63127441 330 120 C323.68410178 116.90094863 317.36682396 113.80472348 311.04858398 110.71044922 C308.89982833 109.65771295 306.75138806 108.60433267 304.60327148 107.55029297 C301.51368794 106.03443256 298.42297363 104.52089985 295.33203125 103.0078125 C294.37351761 102.53691193 293.41500397 102.06601135 292.42744446 101.58084106 C291.52688828 101.14053558 290.62633209 100.7002301 289.69848633 100.24658203 C288.91016922 99.86019562 288.12185211 99.4738092 287.30964661 99.07571411 C284.90532049 97.95590317 282.47095782 96.96268154 280 96 C279.88519287 96.58265625 279.77038574 97.1653125 279.65209961 97.765625 C274.86402416 121.56799716 266.43834342 141.56165658 249 159 C249.35078613 159.44577393 249.70157227 159.89154785 250.06298828 160.35083008 C256.21331604 168.17969724 262.33498478 176.0255295 268.22900391 184.05004883 C269.37413163 185.60835853 270.52624561 187.16155689 271.68505859 188.7097168 C274.82017077 192.91864612 277.77508727 197.17374807 280.58203125 201.609375 C286.0028033 210.6872256 286.0028033 210.6872256 294.15771484 216.89746094 C298.72062902 217.79505063 303.16468003 217.41784372 307.77001953 217.05664062 C311.46016584 216.96291236 314.83104586 217.79308545 318.375 218.75 C319.36439575 219.01623169 319.36439575 219.01623169 320.3737793 219.2878418 C345.41670872 226.38956805 366.07356314 242.57567881 379.00683594 265.14550781 C391.36551489 288.22233312 393.25982928 315.0558401 386 340 C380.8425558 355.27117908 372.2252796 367.60274536 361 379 C360.21882813 379.80566406 359.43765625 380.61132812 358.6328125 381.44140625 C341.21831165 398.29887761 316.55888152 405.55771123 292.77050781 405.35131836 C265.97733183 404.65302182 243.00899915 392.63928395 224.40625 373.7421875 C220.40171555 369.17857843 217.1797188 364.16926352 214 359 C207.13830965 363.43190434 200.60721068 368.22055185 194.125 373.1875 C193.18914062 373.89841797 192.25328125 374.60933594 191.2890625 375.34179688 C185.75943868 379.2622623 185.75943868 379.2622623 181 384 C181.42472184 386.90327717 181.9840757 389.49886484 182.75 392.3125 C184.73825824 400.27036664 185.73571045 407.7805951 186 416 C186.52392334 416.24943359 187.04784668 416.49886719 187.58764648 416.75585938 C190.20481931 418.00274509 192.82119701 419.25129014 195.4375 420.5 C196.93796875 421.21530884 196.93796875 421.21530884 198.46875 421.94506836 C204.87204314 425.00464427 211.25685405 428.098673 217.62890625 431.22265625 C219.85169782 432.30981385 222.07465914 433.39662375 224.29763794 434.48339844 C225.75867384 435.19926898 227.21870883 435.91718617 228.67770386 436.63720703 C230.75140625 437.66041798 232.82847361 438.6764994 234.90625 439.69140625 C235.51904312 439.996194 236.13183624 440.30098175 236.76319885 440.61500549 C240.75433204 442.55410203 244.65456622 444.07320662 249 445 C251.53402927 443.47223208 251.53402927 443.47223208 253.16015625 442.1640625 C260.72513093 437.37773032 270.50334631 437.27945709 279 439 C289.38658422 442.18325014 296.80535272 448.55362821 302 458 C305.82866362 466.56891381 305.63178287 476.11935338 303 485 C300.61301709 490.59855992 297.60445454 494.97110228 293 499 C292.278125 499.680625 291.55625 500.36125 290.8125 501.0625 C282.01863902 507.12049312 272.45601607 508.51684028 262 507 C251.17238885 503.9596164 244.55195842 498.64792774 239 489 C234.43370322 479.9202979 234.88438403 470.84183957 236 461 C235.46560303 460.74532959 234.93120605 460.49065918 234.38061523 460.22827148 C216.88722166 451.88713597 199.43957639 443.45289969 182 435 C181.896875 436.16144531 181.79375 437.32289063 181.6875 438.51953125 C181.12836909 442.93530647 179.82125942 446.64642301 178 450.6875 C177.69239746 451.37666504 177.38479492 452.06583008 177.06787109 452.77587891 C166.77962924 474.97412923 147.70494567 493.36613873 124.67578125 501.85693359 C100.4029278 509.97329602 73.48012117 510.08557241 50.25024414 498.7746582 C40.29659559 493.6955017 32.06915192 487.70743132 24 480 C23.09507812 479.20722656 23.09507812 479.20722656 22.171875 478.3984375 C8.06583149 465.54479972 -0.41185547 445.63464063 -3 427 C-3 425.35 -3 423.7 -3 422 C-17.52 422 -32.04 422 -47 422 C-47.33 423.98 -47.66 425.96 -48 428 C-51.83710599 436.09903442 -58.60601397 442.32624928 -66.8125 445.875 C-76.28822344 448.87720941 -85.7593962 448.62131771 -95 445 C-102.35607785 441.15572203 -107.12249621 436.29431407 -111 429 C-111.50853516 428.11441406 -111.50853516 428.11441406 -112.02734375 427.2109375 C-115.64955533 419.63266996 -115.10317143 409.62052963 -113.19140625 401.61328125 C-109.67095105 392.09952515 -103.56069244 385.3751398 -94.4375 380.9375 C-85.59646596 377.68562541 -75.32093527 377.38832465 -66.4375 380.6875 C-64.93571374 381.41327965 -63.45332726 382.18149041 -62 383 C-61.36835937 383.33902344 -60.73671875 383.67804688 -60.0859375 384.02734375 C-54.71434327 387.35205296 -50.94082725 392.47556462 -48 398 C-47.67 399.98 -47.34 401.96 -47 404 C-32.48 404 -17.96 404 -3 404 C-2.67 400.37 -2.34 396.74 -2 393 C-1.2395446 389.97922909 -0.45714882 387.17064391 0.5625 384.25 C0.82571045 383.48486084 1.0889209 382.71972168 1.36010742 381.93139648 C5.82269811 369.45346046 12.02431487 358.80562862 21 349 C21.7321875 348.19820313 22.464375 347.39640625 23.21875 346.5703125 C38.75315096 330.32482981 62.03499878 319.45996754 84.578125 318.69921875 C86.46865429 318.67979832 88.35940454 318.67623208 90.25 318.6875 C91.25361572 318.69313965 92.25723145 318.6987793 93.29125977 318.70458984 C118.91747542 319.12020571 142.03439386 329.7914695 160 348 C163.63059729 352.11552161 166.83333843 356.52063589 170 361 C170.99702427 362.33555995 171.99647023 363.66932131 173 365 C183.7601784 357.11819922 194.47816002 349.1983457 205 341 C204.79503906 340.03320312 204.59007812 339.06640625 204.37890625 338.0703125 C202.84981976 330.73749749 201.41024421 323.49628058 201 316 C200.94714844 315.21238281 200.89429688 314.42476563 200.83984375 313.61328125 C199.99778576 289.70615663 208.62847101 267.06457245 224 249 C224.53109375 248.32324219 225.0621875 247.64648438 225.609375 246.94921875 C236.91338519 232.98708735 253.37320988 224.78931446 270 219 C261.32758959 207.13497638 252.52520104 195.37829603 243.59375 183.70703125 C240.36852478 179.49162045 237.17502473 175.25332108 234 171 C230.1458297 172.14583441 226.61413086 173.64000365 223 175.375 C201.3580246 185.36815257 175.28942665 186.22510548 152.85546875 178.23632812 C129.84121192 169.46398343 109.68298324 152.64197783 99.09960938 130.08056641 C96.09486573 123.24867467 93.49564999 116.32868494 92 109 C88.55220914 110.50006391 86.17639467 112.50409262 83.4375 115.0625 C79.87703072 118.33018473 76.2606708 121.46479193 72.5 124.5 C66.07800651 129.69962541 59.79116518 135.09746626 54 141 C54.825 141.99 55.65 142.98 56.5 144 C64.30071662 154.4256023 71.20064855 168.38698545 72.48046875 181.390625 C73.52778654 192.14804826 73.52778654 192.14804826 80.1875 200.375 C81.83663641 201.53535622 83.48796518 202.69412561 85.17871094 203.79296875 C87.80517483 205.53361721 90.29289397 207.44303413 92.80102539 209.34863281 C94.81611013 210.87773948 96.84657509 212.38454632 98.87890625 213.890625 C103.73342034 217.51908828 108.44497673 221.32132952 113.12817383 225.16748047 C117.20812691 228.73131814 117.20812691 228.73131814 122 231 C124.52486387 230.18507499 124.52486387 230.18507499 127 228.6875 C134.64449102 224.43408655 142.33904432 223.68785796 150.94921875 225.68359375 C161.27977167 229.15592744 168.96491468 235.18202219 174 244.9375 C177.99542382 254.46504911 177.54668973 263.98861153 174.06640625 273.5703125 C169.98377064 282.80921801 162.39514805 289.41472738 153.0625 293.1875 C143.20514657 295.73830637 133.45767946 294.66787302 124.73046875 289.7109375 C115.95831039 284.27016266 110.89160017 277.96328556 108 268 C106.33941106 260.42432052 107.43710006 253.51741956 109 246 C105.07169676 242.90535597 101.13974478 239.81541916 97.20458984 236.72949219 C95.68607034 235.53821952 94.16820467 234.34611309 92.65087891 233.15332031 C90.24867737 231.26598043 87.84339002 229.38263481 85.4375 227.5 C84.67646973 226.90106934 83.91543945 226.30213867 83.13134766 225.68505859 C79.53462423 222.87624214 76.00313709 220.21956116 72 218 C71.88785156 219.16144531 71.77570313 220.32289063 71.66015625 221.51953125 C69.14054315 241.45295734 55.4065424 260.79046678 40.08251953 273.22900391 C34.10433853 277.8479428 27.81622933 281.73878683 21 285 C19.65421875 285.65935547 19.65421875 285.65935547 18.28125 286.33203125 C-4.71648414 296.78841862 -30.53990287 296.77578343 -54.125 288.3125 C-77.97865948 279.20620432 -96.28018766 260.95761092 -107.11132812 238.07373047 C-117.11409143 214.73211743 -117.12218015 186.77919863 -107.8125 163.3125 C-102.87379622 151.59902574 -95.74447167 142.16163913 -87 133 C-86.20916016 132.09701172 -86.20916016 132.09701172 -85.40234375 131.17578125 C-72.54475067 117.06860111 -52.63897515 108.58874655 -34 106 C-32.35 106 -30.7 106 -29 106 C-29 91.48 -29 76.96 -29 62 C-30.98 61.67 -32.96 61.34 -35 61 C-43.09903442 57.16289401 -49.32624928 50.39398603 -52.875 42.1875 C-55.87720941 32.71177656 -55.62131771 23.2406038 -52 14 C-48.15572203 6.64392215 -43.29431407 1.87750379 -36 -2 C-35.11441406 -2.50853516 -35.11441406 -2.50853516 -34.2109375 -3.02734375 C-23.73922901 -8.03254363 -9.52275075 -5.89635439 0 0 Z M-34.9375 20.3125 C-37.32725137 26.35716523 -37.6459998 31.23465273 -35.078125 37.17578125 C-32.68170729 41.23058948 -29.35425815 43.35231132 -25.125 45.375 C-19.71583387 46.45683323 -15.6806927 45.84034635 -10.75 43.375 C-6.72966949 39.90289638 -4.42836165 36.75812452 -3.6171875 31.53515625 C-3.36086865 25.8534217 -4.13040525 22.39251296 -8 18 C-12.91617826 13.66908106 -15.86022751 12.58686193 -22.32421875 12.65234375 C-27.71972534 13.35336577 -31.50819778 16.21946187 -34.9375 20.3125 Z M127.28515625 38.03515625 C113.89582259 54.1957244 106.99218446 73.70516545 108.21875 94.75390625 C110.30887985 114.02731511 118.04565784 130.47314316 132 144 C132.33 144 132.66 144 133 144 C133.09796875 143.2265625 133.1959375 142.453125 133.296875 141.65625 C134.64790164 132.24565066 136.51993546 125.63748149 143.828125 119.32421875 C151.60558355 114.58220715 158.87180732 114.54569355 167.7734375 114.56640625 C169.75182114 114.55854347 169.75182114 114.55854347 171.77017212 114.55052185 C174.55228296 114.5416278 177.33410619 114.5439703 180.11621094 114.55395508 C183.6554999 114.5654288 187.19378868 114.54524044 190.7329464 114.51603794 C193.48190463 114.4975581 196.23062847 114.49799174 198.97963333 114.50367546 C200.91039513 114.50390036 202.84113529 114.48711057 204.77182007 114.46986389 C212.36177083 114.52946179 218.21354766 115.57229861 225 119 C226.09059219 119.50201683 226.09059219 119.50201683 227.20321655 120.01417542 C229.55552393 121.30479419 229.9899257 122.54888637 231 125 C231.34160156 125.66257812 231.68320312 126.32515625 232.03515625 127.0078125 C234.78128718 132.66713936 235.73834408 137.73334072 236 144 C245.86423574 139.87535276 251.93268529 126.41643552 256 117 C263.53039033 96.67560413 262.87247965 75.22803854 253.86328125 55.48828125 C243.71357056 36.48683125 228.40331309 23.0308714 208 16 C207.12859375 15.68160156 206.2571875 15.36320312 205.359375 15.03515625 C177.92999475 6.53204837 145.90017063 16.68283805 127.28515625 38.03515625 Z M351.25 120.625 C348.39063263 124.37559876 347.19923021 128.30613618 347 133 C347.84331746 138.8605226 350.77405037 142.24358879 355.28125 145.87109375 C359.19394873 148.44102541 363.47636817 148.59871598 368 148 C373.53230132 145.94769467 377.37366486 142.25267027 380 137 C380.55769904 131.03691027 380.50156448 126.07123132 377 121 C374.639038 118.7110076 374.639038 118.7110076 372 117 C371.1028125 116.38125 371.1028125 116.38125 370.1875 115.75 C362.70317973 113.18394734 356.7797626 115.34659025 351.25 120.625 Z M-71 143 C-71.75796875 143.66515625 -72.5159375 144.3303125 -73.296875 145.015625 C-86.94123978 157.71899911 -95.52601558 175.58688784 -96.3359375 194.26171875 C-96.68923942 215.31774506 -91.50848581 233.69745814 -77.859375 250.08203125 C-76.02977887 251.96928272 -74.14900572 253.49284334 -72 255 C-71.85304688 254.01 -71.70609375 253.02 -71.5546875 252 C-69.97873459 242.3724269 -67.84132542 235.83271596 -60 229.625 C-54.96910656 226.89993272 -50.59086079 225.75134366 -44.87792969 225.70947266 C-43.68939392 225.69671295 -42.50085815 225.68395325 -41.27630615 225.67080688 C-40.00434387 225.66858124 -38.73238159 225.66635559 -37.421875 225.6640625 C-36.08677024 225.65762456 -34.75166685 225.65089548 -33.41656494 225.64389038 C-30.62256607 225.63194716 -27.82869054 225.62820634 -25.03466797 225.62939453 C-21.47967333 225.62959722 -17.92548264 225.6023355 -14.37067795 225.56785011 C-11.61316401 225.54544919 -8.85583926 225.54156103 -6.09824371 225.54261398 C-4.15859535 225.53915039 -2.21900605 225.51756768 -0.27947998 225.49551392 C8.54237716 225.5407068 15.92547727 226.63408992 22.875 232.375 C23.57625 233.24125 24.2775 234.1075 25 235 C25.70125 235.804375 26.4025 236.60875 27.125 237.4375 C30.4323552 242.50608906 30.94330441 249.1561532 32 255 C45.45291572 244.89867574 53.03840297 227.57341197 55.70263672 211.27246094 C58.36712622 190.91033595 53.5582209 171.96685767 41.984375 155.0546875 C40.07871066 152.60133223 38.09923263 150.28894717 36 148 C35.37480469 147.29488281 34.74960938 146.58976562 34.10546875 145.86328125 C21.76633019 132.66970133 3.52254682 124.5460307 -14.40625 123.68359375 C-36.03593935 123.05085319 -54.65537544 128.21200635 -71 143 Z M153 135 C150.89790143 138.15314785 150.7565239 138.86103081 150.8046875 142.44921875 C150.81113281 143.29677734 150.81757813 144.14433594 150.82421875 145.01757812 C150.84097656 145.89865234 150.85773438 146.77972656 150.875 147.6875 C150.88402344 148.58017578 150.89304687 149.47285156 150.90234375 150.39257812 C150.92590252 152.59532314 150.95879671 154.79752588 151 157 C168.50579736 166.28958701 188.03787853 167.54420751 207 162 C212.91625287 160.25088301 212.91625287 160.25088301 218 157 C218.3061105 153.7383399 218.2783694 150.46176264 218.3125 147.1875 C218.34150391 146.27162109 218.37050781 145.35574219 218.40039062 144.41210938 C218.52858027 139.04993127 218.52858027 139.04993127 216.10546875 134.42578125 C212.77255902 132.16880156 210.89926261 131.86795831 206.89526367 131.83886719 C205.29801704 131.82445587 205.29801704 131.82445587 203.66850281 131.80975342 C202.51332657 131.80550354 201.35815033 131.80125366 200.16796875 131.796875 C198.39212151 131.78832489 198.39212151 131.78832489 196.58039856 131.77960205 C194.07110491 131.77014179 191.56179877 131.76361401 189.05249023 131.75976562 C185.21380908 131.75006647 181.37566462 131.7190545 177.53710938 131.6875 C175.10156569 131.68096951 172.66601816 131.67571922 170.23046875 131.671875 C169.0813652 131.6595282 167.93226166 131.6471814 166.74833679 131.63446045 C165.67404922 131.63746155 164.59976166 131.64046265 163.49291992 131.64355469 C162.55075119 131.63990906 161.60858246 131.63626343 160.63786316 131.63250732 C157.44193314 132.07774682 155.59511853 133.10603362 153 135 Z M240 258 C226.52927397 271.78929049 219.02072535 291.97114 218.92578125 311.08203125 C219.34053851 331.70721477 226.88282585 349.13233762 240.99609375 364.0859375 C242.65866349 366.1151184 242.65866349 366.1151184 244 366 C244.08636719 365.154375 244.17273438 364.30875 244.26171875 363.4375 C245.39664239 354.27481376 247.29261003 348.70738997 253.8125 342.1875 C261.94647055 336.60536335 269.37749413 336.53275879 278.9921875 336.53125 C280.34685575 336.52413294 281.70152105 336.51643173 283.05618286 336.50817871 C285.88535963 336.49479145 288.71425762 336.4931388 291.54345703 336.49902344 C295.14344057 336.50491306 298.74207244 336.47433436 302.34179497 336.43390656 C305.1370852 336.40787488 307.93205662 336.40516595 310.72745132 336.40879822 C312.69149456 336.40631412 314.65547067 336.38173289 316.61935425 336.35656738 C324.7365083 336.41874975 330.05261893 337.89123817 337 342 C338.485 342.495 338.485 342.495 340 343 C341.05859375 344.8046875 341.05859375 344.8046875 342 347 C342.34160156 347.66257812 342.68320312 348.32515625 343.03515625 349.0078125 C345.78128718 354.66713936 346.73834408 359.73334072 347 366 C361.82954152 354.41716283 369.72406925 336.38556231 372 318 C373.38905875 294.49285187 365.82448147 275.55033279 351.0703125 257.66015625 C340.1824646 245.86109361 322.85236321 236.92667184 307 235 C306.01773438 234.86722656 305.03546875 234.73445312 304.0234375 234.59765625 C279.61136572 231.95450006 257.32518981 241.1667304 240 258 Z M-52 246 C-53.89846967 248.79887041 -54.24306361 250.98554711 -54.1953125 254.328125 C-54.18886719 255.12734375 -54.18242188 255.9265625 -54.17578125 256.75 C-54.15902344 257.575 -54.14226563 258.4 -54.125 259.25 C-54.11597656 260.09046875 -54.10695312 260.9309375 -54.09765625 261.796875 C-54.07415817 263.86470604 -54.03828908 265.93238995 -54 268 C-48.55390334 270.91930407 -43.53466538 272.95333361 -37.5 274.25 C-36.72172852 274.41765869 -35.94345703 274.58531738 -35.14160156 274.75805664 C-17.90315762 278.19700382 -1.88693346 275.36152778 14 268 C14.08144943 265.29105233 14.14070614 262.58458737 14.1875 259.875 C14.21263672 259.11445313 14.23777344 258.35390625 14.26367188 257.5703125 C14.32735318 252.64562471 13.84720099 249.21001854 11 245 C7.86733148 242.98235502 5.35327957 242.74349405 1.66821289 242.7253418 C0.60353287 242.71580978 -0.46114716 242.70627777 -1.55809021 242.69645691 C-2.70294388 242.69736832 -3.84779755 242.69827972 -5.02734375 242.69921875 C-6.20841202 242.69493362 -7.38948029 242.6906485 -8.6063385 242.68623352 C-11.10368204 242.68049136 -13.6010423 242.67998911 -16.09838867 242.68432617 C-19.91939832 242.68748504 -23.73963302 242.66402811 -27.56054688 242.63867188 C-29.98697819 242.63639878 -32.41341159 242.63569543 -34.83984375 242.63671875 C-36.55408791 242.62290413 -36.55408791 242.62290413 -38.30296326 242.60881042 C-39.90471153 242.61815361 -39.90471153 242.61815361 -41.53881836 242.62768555 C-42.47495468 242.62705612 -43.411091 242.6264267 -44.37559509 242.6257782 C-47.5328823 243.07598529 -49.41783277 244.15953501 -52 246 Z M128.6875 249.25 C126.07584862 253.50602448 124.63810528 257.26259126 125.3046875 262.3046875 C126.90693079 268.17957956 129.88468559 271.74479992 135 275 C139.98079383 276.66026461 144.30273629 276.59903425 149.1875 274.875 C153.81464241 271.7902384 156.7800195 268.45231835 158.5 263.1875 C159.45718817 258.32721444 158.40883069 254.2806106 156 250 C151.9444153 245.43866003 148.42979431 243.20248286 142.25 242.6875 C136.46884747 242.77251695 132.81610677 245.2329772 128.6875 249.25 Z M39 357 C38.29488281 357.62519531 37.58976562 358.25039063 36.86328125 358.89453125 C23.66970133 371.23366981 15.5460307 389.47745318 14.68359375 407.40625 C14.07959861 428.05330193 18.66448869 445.69168127 32.0078125 461.9140625 C34.18039813 464.18888746 36.50356212 466.09095926 39 468 C39.07476562 467.24976563 39.14953125 466.49953125 39.2265625 465.7265625 C40.29978972 457.37222512 42.36329421 450.07148752 48.890625 444.33984375 C57.14148723 438.76888756 66.04423876 438.69159743 75.6796875 438.69921875 C76.8876297 438.69493362 78.0955719 438.6906485 79.34011841 438.68623352 C81.88673274 438.68050906 84.43336342 438.67997601 86.97998047 438.68432617 C90.85542984 438.68748405 94.73011369 438.66400903 98.60546875 438.63867188 C101.08854071 438.63639835 103.57161471 438.63569563 106.0546875 438.63671875 C107.20290985 438.627509 108.3511322 438.61829926 109.53414917 438.60881042 C119.48439237 438.66543276 127.98424671 439.96010287 135.30859375 447.0625 C141.08957233 453.68459093 141.71332599 460.39977963 142 469 C156.46360406 457.78332747 164.60872188 439.89335697 167 422 C169.06225154 401.18344343 163.14983938 381.29009953 150 365 C149.3709375 364.2059375 148.741875 363.411875 148.09375 362.59375 C135.56372063 347.59879682 116.97166355 338.61114463 97.64941406 336.77685547 C75.75277504 335.3507575 55.27731196 342.07179858 39 357 Z M263 358 C261.82573736 360.34852528 261.88491827 361.73774065 261.90234375 364.3515625 C261.90556641 365.20234375 261.90878906 366.053125 261.91210938 366.9296875 C261.92048828 367.81914062 261.92886719 368.70859375 261.9375 369.625 C261.94201172 370.5221875 261.94652344 371.419375 261.95117188 372.34375 C261.96297409 374.56256648 261.97943845 376.78125018 262 379 C277.67268408 387.31809969 295.13866926 388.99485646 312.375 385.25 C313.11145752 385.09313721 313.84791504 384.93627441 314.60668945 384.7746582 C319.85519567 383.54162886 324.25191876 381.55088789 329 379 C329.11638036 375.75030231 329.18730581 372.5011417 329.25 369.25 C329.28351563 368.32960938 329.31703125 367.40921875 329.3515625 366.4609375 C329.51922765 361.07403699 329.51922765 361.07403699 327.109375 356.421875 C323.74757709 354.15577418 321.83978481 353.86449404 317.8034668 353.82299805 C316.71861496 353.81016281 315.63376312 353.79732758 314.51603699 353.78410339 C313.33898697 353.77671646 312.16193695 353.76932953 310.94921875 353.76171875 C309.74312454 353.753647 308.53703033 353.74557526 307.29438782 353.73725891 C304.73802126 353.723409 302.18163614 353.71269093 299.62524414 353.70483398 C295.71399946 353.68761665 291.80359878 353.64373624 287.89257812 353.59960938 C285.41146456 353.5894832 282.9303438 353.58096686 280.44921875 353.57421875 C279.27824142 353.55671066 278.1072641 353.53920258 276.90080261 353.52116394 C269.06535439 353.41053686 269.06535439 353.41053686 263 358 Z M-93.3125 403.625 C-96.62230808 408.28324841 -96.72892733 412.38971665 -96 418 C-94.3372732 422.11887095 -92.08043213 425.09477308 -88.6875 427.9375 C-82.64283477 430.32725137 -77.76534727 430.6459998 -71.82421875 428.078125 C-67.76941052 425.68170729 -65.64768868 422.35425815 -63.625 418.125 C-62.4873071 412.4365355 -63.03768341 408.00367118 -66.1875 403.1875 C-69.31461968 399.29636813 -72.34973581 397.34587461 -77.39453125 396.6875 C-84.60654897 396.34149615 -88.47781355 398.13697755 -93.3125 403.625 Z M59 459 C56.98076181 461.82013274 56.75851228 464.12990837 56.8046875 467.546875 C56.81113281 468.39121094 56.81757813 469.23554688 56.82421875 470.10546875 C56.84097656 470.97816406 56.85773438 471.85085938 56.875 472.75 C56.88402344 473.63816406 56.89304688 474.52632813 56.90234375 475.44140625 C56.92585423 477.62788058 56.95871501 479.81380094 57 482 C59.14320727 482.79874865 61.28972416 483.58861858 63.4375 484.375 C64.63246094 484.81585938 65.82742187 485.25671875 67.05859375 485.7109375 C74.70272065 488.31810136 81.99343098 489.38930953 90.0625 489.375 C91.42689209 489.37367065 91.42689209 489.37367065 92.81884766 489.37231445 C103.92347963 489.18065399 113.87243008 486.51984898 124 482 C124.11632513 478.58362047 124.18728897 475.16775103 124.25 471.75 C124.28351563 470.78191406 124.31703125 469.81382812 124.3515625 468.81640625 C124.51656038 463.27481783 124.51656038 463.27481783 122.234375 458.390625 C118.55577991 456.10114973 115.23694462 455.87209313 110.95947266 455.83886719 C109.95808258 455.82925964 108.9566925 455.8196521 107.92495728 455.80975342 C106.848862 455.80550354 105.77276672 455.80125366 104.6640625 455.796875 C103.55195404 455.79117493 102.43984558 455.78547485 101.29403687 455.77960205 C98.94212799 455.77016003 96.59020592 455.76362124 94.23828125 455.75976562 C90.64559827 455.75005567 87.05348637 455.71902223 83.4609375 455.6875 C81.17448256 455.68097008 78.88802353 455.67571956 76.6015625 455.671875 C75.52951569 455.6595282 74.45746887 455.6471814 73.35293579 455.63446045 C67.88882176 455.65073358 63.60077311 455.68444794 59 459 Z M258.1875 461.5 C254.8324669 465.33432354 253.28347062 467.89752878 253 473 C254.17062381 478.97967298 256.16621552 483.10939298 261 487 C265.52997598 489.69324202 269.86138988 489.62550108 275 489 C279.19731533 487.6749496 282.05969412 485.35429625 284.375 481.625 C286.56716426 476.73478741 287.33372561 473.72930546 286.3125 468.4375 C284.2186905 462.95371321 281.38046061 459.44566391 276 457 C268.64246933 455.33862211 264.0145646 456.32038702 258.1875 461.5 Z " fill="#000000" transform="translate(114,5)"/>
<path d="M0 0 C8.22582427 5.18299724 13.77522356 11.60060669 17.51953125 20.515625 C19.5299153 31.84688057 18.9877065 42.42680841 12.359375 52.08203125 C5.74053242 60.14236405 -2.36380726 65.14436748 -12.79296875 66.453125 C-24.00001218 66.83401798 -33.36793862 63.38444505 -41.5390625 55.76171875 C-48.49959025 48.28045326 -51.13719093 39.35113311 -51.00390625 29.328125 C-50.34743926 20.1862143 -46.62370835 11.96657876 -39.94140625 5.63671875 C-37.96094499 4.06260712 -35.95051383 2.71001595 -33.79296875 1.390625 C-33.16132813 0.97683594 -32.5296875 0.56304687 -31.87890625 0.13671875 C-22.89728827 -4.8395831 -9.12798451 -4.41626508 0 0 Z M-29.04296875 20.765625 C-32.31840386 25.67877766 -33.40884908 29.43711515 -32.79296875 35.390625 C-30.94046118 40.16709047 -28.2165047 43.73650343 -23.79296875 46.390625 C-19.2851147 48.13504362 -15.29064804 48.90714616 -10.60546875 47.453125 C-6.26015506 45.51511509 -3.37825603 42.32670253 -0.79296875 38.390625 C0.86729586 33.40983117 0.8060655 29.08788871 -0.91796875 24.203125 C-3.50761327 20.31865822 -6.56610916 17.50405479 -10.79296875 15.390625 C-18.15148815 14.70241815 -23.73319341 15.16086214 -29.04296875 20.765625 Z " fill="#000000" transform="translate(425.79296875,258.609375)"/>
<path d="M0 0 C6.50078724 5.44062301 10.26924369 11.56660186 12.1875 19.8125 C12.9574448 28.6758181 13.15259052 37.09418171 8.1875 44.8125 C7.76339844 45.50730469 7.33929688 46.20210938 6.90234375 46.91796875 C3.26324733 52.32086121 -1.14607594 55.68182509 -6.8125 58.8125 C-7.42738281 59.15410156 -8.04226562 59.49570312 -8.67578125 59.84765625 C-16.56735472 63.48082176 -26.42785493 62.8903938 -34.5625 60.375 C-44.06458629 56.35865425 -50.56010212 49.32225874 -54.75390625 39.99609375 C-57.80926247 30.80747633 -57.67056505 21.37381665 -53.80859375 12.5078125 C-49.01609456 3.11261606 -42.11823034 -3.04996429 -32.125 -6.4375 C-20.39324775 -8.92879874 -9.75630741 -7.015405 0 0 Z M-36.609375 18.7890625 C-38.72716391 22.3507984 -39.11036802 25.72226355 -38.8125 29.8125 C-37.17047694 35.86746005 -33.89621905 39.36943574 -28.8125 42.8125 C-24.46652177 44.26115941 -20.20874753 44.70143053 -15.875 43.09375 C-10.8768505 40.42232527 -7.60469171 37.18907513 -5.8125 31.8125 C-5.24819136 26.11515311 -5.52663622 21.68464284 -8.8125 16.8125 C-11.173462 14.5235076 -11.173462 14.5235076 -13.8125 12.8125 C-14.7096875 12.19375 -14.7096875 12.19375 -15.625 11.5625 C-24.20112463 8.62211441 -31.20539274 12.04830569 -36.609375 18.7890625 Z " fill="#000000" transform="translate(226.8125,365.1875)"/>
<path d="M0 0 C8.220942 5.94474598 12.81524232 12.44572695 16 22 C16.85381702 34.33135728 15.7970926 44.24532834 7.74609375 54.18359375 C0.47671591 61.74569821 -8.33983622 64.29893013 -18.5625 65.375 C-29.75309875 64.15420741 -38.63077156 60.41506798 -45.875 51.625 C-51.91209393 43.22617257 -53.86142776 34.2396588 -52.6328125 23.9140625 C-50.69230407 14.59483065 -46.42302987 7.08795019 -38.5625 1.5625 C-37.06039774 0.67580753 -35.54019669 -0.18126386 -34 -1 C-33.40960938 -1.33902344 -32.81921875 -1.67804688 -32.2109375 -2.02734375 C-22.8295525 -6.51139781 -8.66093441 -5.43689791 0 0 Z M-32.375 20.75 C-35.04335386 26.08670772 -35.72361698 30.54209453 -33.9375 36.1875 C-31.68699213 41.39435685 -28.22997498 43.93349023 -23.125 46.375 C-17.4365355 47.5126929 -13.00367118 46.96231659 -8.1875 43.8125 C-4.29636813 40.68538032 -2.34587461 37.65026419 -1.6875 32.60546875 C-1.41274579 26.87856077 -2.08962471 23.43880438 -6 19 C-10.971482 14.6203611 -13.8719758 13.63794774 -20.39453125 13.72265625 C-25.72793149 14.29037951 -28.86863078 16.68999354 -32.375 20.75 Z " fill="#000000" transform="translate(112,149)"/>
<path d="M0 0 C7.87944423 4.82414953 14.11404614 11.55098566 17.1640625 20.36328125 C19.66060687 31.22441589 18.55767768 41.31794045 13 51 C6.79302393 59.58438927 -1.62619207 64.30662841 -12 66 C-21.60616386 67.13672939 -30.18085306 64.24760636 -37.96484375 58.66015625 C-44.64984012 53.20694424 -48.23065182 46.75038158 -50.75 38.5625 C-51.7872064 27.93113436 -50.67562111 18.6985366 -44 10 C-43.46375 9.175 -42.9275 8.35 -42.375 7.5 C-31.9418179 -3.48229695 -13.59776837 -7.2659831 0 0 Z M-29 20 C-32.46053593 24.65953852 -33.84564748 29.18617357 -33 35 C-30.61878214 40.31194753 -28.02186862 43.83808272 -23 47 C-18.01212598 48.43108466 -13.50949636 48.60432832 -8.6875 46.5625 C-4.37395397 44.00762081 -1.77895963 40.66976904 0 36 C0.99207035 30.36236944 0.26248334 25.78497556 -3 21 C-6.94513561 17.02252722 -10.54175984 14.88480397 -16.1875 14.625 C-21.49121305 14.71137969 -25.13449863 16.387545 -29 20 Z " fill="#000000" transform="translate(315,37)"/>
</svg>
