<?xml version="1.0" standalone="no"?>
<!DOCTYPE svg PUBLIC "-//W3C//DTD SVG 20010904//EN"
 "http://www.w3.org/TR/2001/REC-SVG-20010904/DTD/svg10.dtd">
<svg version="1.0" xmlns="http://www.w3.org/2000/svg" fill="currentColor"
 width="512.000000pt" height="512.000000pt" viewBox="0 0 512.000000 512.000000"
 preserveAspectRatio="xMidYMid meet">

<g transform="translate(0.000000,512.000000) scale(0.100000,-0.100000)" stroke="none">
<path d="M0 2945 l0 -1545 1460 0 1460 0 6 -28 c66 -298 241 -524 508 -651
152 -73 211 -86 401 -86 136 0 172 4 238 23 252 73 454 235 576 464 39 72 91
221 91 259 0 18 8 19 190 19 l190 0 0 1545 0 1545 -2560 0 -2560 0 0 -1545z
m4970 0 l0 -1395 -104 0 -105 0 -6 58 c-18 159 -50 270 -111 381 -45 82 -80
128 -158 209 -50 51 -58 64 -46 72 25 16 107 30 170 30 l60 0 0 645 0 645 -63
0 c-220 0 -387 166 -387 385 l0 65 -1659 0 -1658 0 -5 -85 c-13 -208 -158
-352 -365 -363 l-83 -5 0 -642 0 -642 88 -5 c68 -4 100 -11 147 -33 136 -65
214 -195 215 -357 l0 -58 1028 0 1028 0 -18 -72 c-10 -40 -21 -108 -25 -150
l-6 -78 -1378 0 -1379 0 0 1395 0 1395 2410 0 2410 0 0 -1395z m-890 903 c50
-196 194 -345 377 -392 l48 -12 3 -496 2 -497 -57 -16 c-32 -9 -82 -30 -112
-46 l-55 -29 -95 39 c-124 51 -225 71 -354 71 -165 0 -287 -29 -427 -101 -143
-74 -287 -204 -352 -319 l-23 -40 -994 3 -994 2 -17 61 c-22 81 -61 146 -132
220 -66 69 -142 114 -236 140 l-62 17 0 493 0 493 43 11 c204 53 344 193 397
398 l11 42 1509 0 1509 0 11 -42z m-55 -1552 c84 -23 230 -97 295 -150 169
-140 267 -334 278 -549 11 -237 -64 -434 -228 -595 -308 -304 -808 -292 -1102
27 -113 123 -177 260 -200 431 -51 385 216 757 607 844 86 19 262 15 350 -8z"/>
<path d="M2420 3494 c-188 -49 -341 -196 -401 -384 -28 -85 -30 -230 -5 -315
63 -214 247 -376 464 -407 290 -42 565 145 633 432 18 75 15 203 -5 275 -56
194 -217 350 -411 400 -74 19 -202 18 -275 -1z m309 -174 c140 -65 229 -193
238 -346 14 -218 -128 -397 -346 -435 -169 -30 -351 67 -432 229 -32 64 -34
72 -34 177 0 104 2 114 32 175 39 80 110 153 186 191 79 40 119 49 209 45 61
-3 92 -11 147 -36z"/>
<path d="M1215 3251 c-95 -24 -172 -89 -213 -179 -86 -188 39 -407 249 -437
59 -9 157 16 212 53 196 131 174 434 -39 538 -57 28 -154 40 -209 25z m117
-151 c49 -14 104 -76 113 -129 9 -53 -25 -126 -74 -158 -74 -49 -187 -19 -225
60 -43 92 -4 189 91 223 47 16 49 16 95 4z"/>
<path d="M3733 3242 c-242 -87 -288 -407 -79 -551 209 -144 489 3 489 255 0
169 -121 298 -292 310 -48 3 -80 0 -118 -14z m182 -161 c46 -26 75 -77 75
-128 0 -95 -64 -163 -153 -163 -58 0 -98 19 -130 62 -53 71 -43 154 24 212 23
19 51 37 63 39 33 7 88 -3 121 -22z"/>
<path d="M3760 1698 l0 -373 -133 133 -132 132 -55 -55 -55 -55 222 -222 221
-221 227 218 226 219 -56 55 -55 56 -130 -130 -130 -130 0 373 0 372 -75 0
-75 0 0 -372z"/>
</g>
</svg>
