<?xml version="1.0" standalone="no"?>
<!DOCTYPE svg PUBLIC "-//W3C//DTD SVG 20010904//EN"
 "http://www.w3.org/TR/2001/REC-SVG-20010904/DTD/svg10.dtd">
<svg version="1.0" xmlns="http://www.w3.org/2000/svg"
 width="64px" height="64px" viewBox="0 0 512.000000 512.000000"
 preserveAspectRatio="xMidYMid meet">

<g transform="translate(0.000000,512.000000) scale(0.100000,-0.100000)"
fill="currentColor" stroke="none">
<path d="M1945 5016 c-359 -70 -628 -331 -710 -690 -20 -87 -21 -268 -2 -361
87 -414 446 -708 867 -709 180 0 338 45 477 136 279 182 427 470 410 796 -7
132 -27 210 -82 328 -114 244 -322 417 -580 484 -103 27 -284 35 -380 16z
m350 -151 c254 -70 446 -258 527 -515 20 -64 23 -96 23 -215 -1 -131 -3 -146
-32 -228 -103 -291 -346 -482 -653 -512 -174 -18 -389 51 -535 172 -245 202
-331 545 -215 855 84 224 317 413 568 458 68 13 247 4 317 -15z"/>
<path d="M970 2901 c-326 -70 -580 -314 -672 -646 -22 -78 -22 -96 -26 -674
-2 -414 0 -615 8 -662 33 -196 179 -353 376 -404 50 -13 215 -15 1205 -15
l1148 0 108 -108 c129 -128 226 -189 388 -244 134 -45 258 -63 386 -54 382 25
729 266 870 605 120 288 115 577 -16 848 -144 296 -415 501 -738 557 -43 8
-81 16 -84 19 -2 3 -22 72 -42 154 -41 161 -52 188 -116 278 -111 156 -272
270 -472 332 l-88 28 -1075 2 c-1006 2 -1080 1 -1160 -16z m846 -148 c-3 -16
-46 -259 -96 -541 l-91 -513 20 -32 c36 -58 435 -447 458 -447 12 0 33 10 47
23 37 33 396 469 406 492 5 13 -25 200 -86 530 -51 281 -94 511 -94 513 0 2
183 2 408 0 l407 -3 88 -31 c48 -18 113 -47 145 -65 71 -42 219 -188 257 -253
22 -39 85 -257 85 -296 0 -4 -37 -13 -82 -20 -332 -47 -620 -259 -768 -565
-69 -142 -91 -231 -97 -400 -6 -165 13 -278 70 -419 l34 -86 -858 0 -859 0 0
295 0 296 -25 24 c-29 30 -68 32 -95 5 -19 -19 -20 -33 -20 -321 l0 -301 -192
4 c-185 3 -195 4 -250 30 -111 52 -185 146 -208 263 -8 43 -10 228 -7 645 4
646 2 626 71 775 97 208 289 359 521 410 44 10 164 14 438 14 l379 1 -6 -27z
m424 21 c0 -4 41 -229 91 -500 88 -482 90 -495 72 -517 -10 -13 -81 -98 -157
-191 l-139 -168 -165 165 -165 165 92 519 c50 285 91 521 91 526 0 4 63 7 140
7 77 0 140 -3 140 -6z m1736 -805 c402 -71 691 -390 730 -805 14 -151 -37
-363 -124 -508 -60 -102 -184 -228 -285 -290 -301 -187 -670 -178 -966 23 -71
48 -179 160 -232 241 -149 226 -181 527 -84 786 107 284 372 503 670 553 73
12 222 13 291 0z"/>
<path d="M3963 1188 l-283 -283 -133 133 c-142 141 -165 154 -207 112 -44 -44
-32 -63 148 -243 141 -140 172 -167 197 -167 25 0 72 43 333 303 167 166 310
315 317 331 21 49 -8 96 -59 96 -27 0 -65 -34 -313 -282z"/>
</g>
</svg>
