<?xml version="1.0" encoding="iso-8859-1"?>
<!-- Uploaded to: SVG Repo, www.svgrepo.com, Generator: SVG Repo Mixer Tools -->
<svg fill="currentColor" height="800px" width="800px" xmlns="http://www.w3.org/2000/svg" xmlns:xlink="http://www.w3.org/1999/xlink" 
	 viewBox="0 0 60 60" xml:space="preserve">
<path  d="M57.05,3H50h-2H31h-2H12h-2H2.95C1.323,3,0,4.323,0,5.95V16v2v11v2v11v2v10.05C0,55.677,1.323,57,2.95,57H19h2h17h2h17.05
	c1.627,0,2.95-1.323,2.95-2.95V44v-2V31v-2V18v-2V5.95C60,4.323,58.677,3,57.05,3z M31,5h17v11h-8h-2h-7V5z M48,42h-8h-2h-7V31h7h2
	h8V42z M12,31h7h2h8v11h-8h-2h-7V31z M38,29h-7h-2h-8V18h8h2h7V29z M12,5h17v11h-8h-2h-7V5z M2,5.95C2,5.426,2.426,5,2.95,5H10v11H2
	V5.95z M2,18h8h2h7v11h-7h-2H2V18z M2,31h8v11H2V31z M19,55H2.95C2.426,55,2,54.574,2,54.05V44h8h2h7V55z M38,55H21V44h8h2h7V55z
	 M58,54.05c0,0.524-0.426,0.95-0.95,0.95H40V44h8h2h8V54.05z M58,42h-8V31h8V42z M58,29h-8h-2h-8V18h8h2h8V29z M50,16V5h7.05
	C57.574,5,58,5.426,58,5.95V16H50z"/>
</svg>