<?xml version="1.0" ?><!-- Uploaded to: SVG Repo, www.svgrepo.com, Generator: SVG Repo Mixer Tools -->
<svg fill="#000000" width="800px" height="800px" viewBox="0 0 24 24" id="Layer_2" version="1.1" xml:space="preserve" xmlns="http://www.w3.org/2000/svg" xmlns:xlink="http://www.w3.org/1999/xlink"><path d="M18.5,16V8c0-1.378-1.122-2.5-2.5-2.5H8C6.622,5.5,5.5,6.622,5.5,8v8c0,1.379,1.122,2.5,2.5,2.5h8  C17.378,18.5,18.5,17.379,18.5,16z M6.5,16V8c0-0.827,0.673-1.5,1.5-1.5h8c0.827,0,1.5,0.673,1.5,1.5v8c0,0.827-0.673,1.5-1.5,1.5H8  C7.173,17.5,6.5,16.827,6.5,16z"/><path d="M14.25,8.25h-4.5c-0.827,0-1.5,0.673-1.5,1.5v4.5c0,0.827,0.673,1.5,1.5,1.5h4.5c0.827,0,1.5-0.673,1.5-1.5v-4.5  C15.75,8.923,15.077,8.25,14.25,8.25z M14.75,14.25c0,0.275-0.224,0.5-0.5,0.5h-4.5c-0.276,0-0.5-0.225-0.5-0.5v-4.5  c0-0.276,0.224-0.5,0.5-0.5h4.5c0.276,0,0.5,0.224,0.5,0.5V14.25z"/><path d="M9.375,4.583V3.5c0-0.276-0.224-0.5-0.5-0.5s-0.5,0.224-0.5,0.5v1.083c0,0.276,0.224,0.5,0.5,0.5S9.375,4.86,9.375,4.583z"/><path d="M12.5,4.583V3.5C12.5,3.224,12.276,3,12,3s-0.5,0.224-0.5,0.5v1.083c0,0.276,0.224,0.5,0.5,0.5S12.5,4.86,12.5,4.583z"/><path d="M15.625,4.583V3.5c0-0.276-0.224-0.5-0.5-0.5s-0.5,0.224-0.5,0.5v1.083c0,0.276,0.224,0.5,0.5,0.5S15.625,4.86,15.625,4.583  z"/><path d="M8.375,19.417V20.5c0,0.276,0.224,0.5,0.5,0.5s0.5-0.224,0.5-0.5v-1.083c0-0.276-0.224-0.5-0.5-0.5  S8.375,19.141,8.375,19.417z"/><path d="M11.5,19.417V20.5c0,0.276,0.224,0.5,0.5,0.5s0.5-0.224,0.5-0.5v-1.083c0-0.276-0.224-0.5-0.5-0.5S11.5,19.141,11.5,19.417z  "/><path d="M14.625,19.417V20.5c0,0.276,0.224,0.5,0.5,0.5s0.5-0.224,0.5-0.5v-1.083c0-0.276-0.224-0.5-0.5-0.5  S14.625,19.141,14.625,19.417z"/><path d="M20.5,8.375h-1.083c-0.276,0-0.5,0.224-0.5,0.5s0.224,0.5,0.5,0.5H20.5c0.276,0,0.5-0.224,0.5-0.5S20.776,8.375,20.5,8.375z  "/><path d="M20.5,11.5h-1.083c-0.276,0-0.5,0.224-0.5,0.5s0.224,0.5,0.5,0.5H20.5c0.276,0,0.5-0.224,0.5-0.5S20.776,11.5,20.5,11.5z"/><path d="M20.5,14.625h-1.083c-0.276,0-0.5,0.224-0.5,0.5s0.224,0.5,0.5,0.5H20.5c0.276,0,0.5-0.224,0.5-0.5  S20.776,14.625,20.5,14.625z"/><path d="M3.5,9.375h1.083c0.276,0,0.5-0.224,0.5-0.5s-0.224-0.5-0.5-0.5H3.5c-0.276,0-0.5,0.224-0.5,0.5S3.224,9.375,3.5,9.375z"/><path d="M3.5,12.5h1.083c0.276,0,0.5-0.224,0.5-0.5s-0.224-0.5-0.5-0.5H3.5C3.224,11.5,3,11.724,3,12S3.224,12.5,3.5,12.5z"/><path d="M5.083,15.125c0-0.276-0.224-0.5-0.5-0.5H3.5c-0.276,0-0.5,0.224-0.5,0.5s0.224,0.5,0.5,0.5h1.083  C4.86,15.625,5.083,15.401,5.083,15.125z"/></svg>